<svg width="324" height="246" viewBox="0 0 324 246" fill="none" xmlns="http://www.w3.org/2000/svg">
<rect width="324" height="246" fill="#FFFFFF"/>
<g id="LMS Landing Page">
<path d="M-2961 -5239.3C-2961 -5240.41 -2960.1 -5241.3 -2959 -5241.3H7190C7191.1 -5241.3 7192 -5240.41 7192 -5239.3V7156.7C7192 7157.8 7191.1 7158.7 7190 7158.7H-2959C-2960.1 7158.7 -2961 7157.8 -2961 7156.7V-5239.3Z" fill="#DFDFDF"/>
<path d="M-2959 -5241.3V-5240.3H7190V-5241.3V-5242.3H-2959V-5241.3ZM7192 -5239.3H7191V7156.7H7192H7193V-5239.3H7192ZM7190 7158.7V7157.7H-2959V7158.7V7159.7H7190V7158.7ZM-2961 7156.7H-2960V-5239.3H-2961H-2962V7156.7H-2961ZM-2959 7158.7V7157.7C-2959.55 7157.7 -2960 7157.25 -2960 7156.7H-2961H-2962C-2962 7158.35 -2960.66 7159.7 -2959 7159.7V7158.7ZM7192 7156.7H7191C7191 7157.25 7190.55 7157.7 7190 7157.7V7158.7V7159.7C7191.66 7159.7 7193 7158.35 7193 7156.7H7192ZM7190 -5241.3V-5240.3C7190.55 -5240.3 7191 -5239.86 7191 -5239.3H7192H7193C7193 -5240.96 7191.66 -5242.3 7190 -5242.3V-5241.3ZM-2959 -5241.3V-5242.3C-2960.66 -5242.3 -2962 -5240.96 -2962 -5239.3H-2961H-2960C-2960 -5239.86 -2959.55 -5240.3 -2959 -5240.3V-5241.3Z" fill="black" fill-opacity="0.1"/>
<g id="Theraptly - 1440w">
<rect width="1440" height="8097.49" transform="translate(-150 -3654.3)" fill="#F6F5F3"/>
<g id="Our Solution">
<rect width="1440" height="1565.5" transform="translate(-150 -486)" fill="white"/>
<g id="Frame 2147207152">
<g id="Container">
<g id="Background+Border">
<rect x="-29.5" y="-262.5" width="383" height="538" rx="15.5" fill="#FAFAFA"/>
<rect x="-29.5" y="-262.5" width="383" height="538" rx="15.5" stroke="#FFF8EA"/>
<g id="Container image">
<g clip-path="url(#clip0_225_4540)">
<rect width="324" height="246" rx="9.53264" fill="white"/>
<g id="Group 2087331480">
<g id="Wrapper" filter="url(#filter0_dd_225_4540)">
<rect x="45.2634" y="31" width="294.19" height="55.67" rx="9.68786" fill="#FAFAFA"/>
<rect x="45.324" y="31.0605" width="294.068" height="55.5489" rx="9.62731" stroke="url(#paint0_linear_225_4540)" stroke-width="0.121098"/>
<g id="Group 1707483572">
<g id="Icon wrapper">
<rect x="60.0371" y="39.7188" width="33.4231" height="33.4231" rx="16.7116" fill="#5347FF" fill-opacity="0.12"/>
<rect x="60.0371" y="39.7188" width="33.4231" height="33.4231" rx="16.7116" stroke="#0003DB" stroke-width="0.484393"/>
<g id="Icon &#226;&#134;&#146; bgrJRLt8DU2vvivVUcT8NFEJ1Q.svg" clip-path="url(#clip1_225_4540)">
<g id="bgrJRLt8DU2vvivVUcT8NFEJ1Q.svg fill" clip-path="url(#clip2_225_4540)">
<g id="bgrJRLt8DU2vvivVUcT8NFEJ1Q.svg">
<path id="Vector" d="M70.5698 52.8503C70.5698 51.624 70.5698 51.0102 70.9772 50.6294C71.3845 50.248 72.0403 50.248 73.3513 50.248C74.6623 50.248 75.3181 50.248 75.7254 50.6294C76.1328 51.0102 76.1328 51.624 76.1328 52.8503V60.0079C76.1328 61.2343 76.1328 61.848 75.7254 62.2288C75.3181 62.6102 74.6623 62.6102 73.3513 62.6102C72.0403 62.6102 71.3845 62.6102 70.9772 62.2288C70.5698 61.848 70.5698 61.2343 70.5698 60.0079V52.8503ZM77.369 58.5307C77.369 57.2487 77.369 56.6077 77.7763 56.2091C78.1836 55.811 78.8395 55.811 80.1505 55.811C81.4615 55.811 82.1173 55.811 82.5246 56.2091C82.9319 56.6084 82.9319 57.2487 82.9319 58.5307V59.8905C82.9319 61.1724 82.9319 61.8134 82.5246 62.2121C82.1173 62.6102 81.4615 62.6102 80.1505 62.6102C78.8395 62.6102 78.1836 62.6102 77.7763 62.2121C77.369 61.8128 77.369 61.1724 77.369 59.8905V58.5307ZM77.369 52.4114C77.369 51.7395 77.369 51.4039 77.4747 51.1381C77.6123 50.7886 77.8831 50.508 78.2275 50.3581C78.4828 50.248 78.8073 50.248 79.4551 50.248H80.8458C81.4936 50.248 81.8181 50.248 82.0734 50.3581C82.414 50.5039 82.6853 50.7846 82.8262 51.1381C82.9319 51.4039 82.9319 51.7395 82.9319 52.4114C82.9319 53.0833 82.9319 53.4189 82.8262 53.6847C82.6886 54.0342 82.4178 54.3148 82.0734 54.4648C81.8181 54.5748 81.4936 54.5748 80.8458 54.5748H79.4551C78.8073 54.5748 78.4828 54.5748 78.2275 54.4648C77.8831 54.3148 77.6123 54.0342 77.4747 53.6847C77.369 53.4189 77.369 53.0833 77.369 52.4114Z" fill="#0003DB"/>
</g>
</g>
</g>
</g>
<path id="Onboarding Training Part I" d="M114.406 58.9807C114.406 60.2252 114.178 61.2952 113.723 62.1906C113.267 63.0822 112.643 63.769 111.85 64.2508C111.061 64.7289 110.164 64.9679 109.158 64.9679C108.149 64.9679 107.248 64.7289 106.455 64.2508C105.666 63.769 105.044 63.0803 104.588 62.1849C104.133 61.2895 103.905 60.2214 103.905 58.9807C103.905 57.7363 104.133 56.6682 104.588 55.7766C105.044 54.8811 105.666 54.1944 106.455 53.7163C107.248 53.2345 108.149 52.9935 109.158 52.9935C110.164 52.9935 111.061 53.2345 111.85 53.7163C112.643 54.1944 113.267 54.8811 113.723 55.7766C114.178 56.6682 114.406 57.7363 114.406 58.9807ZM112.664 58.9807C112.664 58.0322 112.51 57.2335 112.203 56.5847C111.9 55.9321 111.482 55.4389 110.951 55.105C110.424 54.7673 109.826 54.5985 109.158 54.5985C108.487 54.5985 107.887 54.7673 107.36 55.105C106.832 55.4389 106.415 55.9321 106.108 56.5847C105.804 57.2335 105.652 58.0322 105.652 58.9807C105.652 59.9293 105.804 60.7299 106.108 61.3825C106.415 62.0313 106.832 62.5245 107.36 62.8622C107.887 63.1961 108.487 63.363 109.158 63.363C109.826 63.363 110.424 63.1961 110.951 62.8622C111.482 62.5245 111.9 62.0313 112.203 61.3825C112.51 60.7299 112.664 59.9293 112.664 58.9807ZM117.655 59.6182V64.8086H115.953V56.0668H117.586V57.4896H117.695C117.896 57.0267 118.211 56.6549 118.639 56.3741C119.072 56.0934 119.616 55.953 120.273 55.953C120.868 55.953 121.39 56.0782 121.838 56.3286C122.285 56.5752 122.633 56.9433 122.879 57.4327C123.126 57.9222 123.249 58.5273 123.249 59.2482V64.8086H121.548V59.4531C121.548 58.8195 121.382 58.3243 121.052 57.9677C120.722 57.6072 120.269 57.427 119.692 57.427C119.298 57.427 118.947 57.5124 118.639 57.6831C118.336 57.8539 118.095 58.1043 117.916 58.4344C117.742 58.7607 117.655 59.1553 117.655 59.6182ZM125.159 64.8086V53.1529H126.861V57.4839H126.964C127.062 57.3018 127.204 57.0912 127.39 56.8522C127.576 56.6132 127.834 56.4045 128.164 56.2262C128.494 56.044 128.931 55.953 129.473 55.953C130.179 55.953 130.809 56.1313 131.363 56.488C131.917 56.8446 132.351 57.3587 132.666 58.0303C132.985 58.7019 133.144 59.51 133.144 60.4548C133.144 61.3995 132.987 62.2096 132.672 62.8849C132.357 63.5565 131.924 64.0744 131.374 64.4387C130.824 64.7991 130.196 64.9793 129.49 64.9793C128.959 64.9793 128.525 64.8902 128.187 64.7118C127.853 64.5335 127.591 64.3248 127.402 64.0858C127.212 63.8468 127.066 63.6343 126.964 63.4484H126.821V64.8086H125.159ZM126.827 60.4377C126.827 61.0524 126.916 61.5911 127.094 62.054C127.273 62.5169 127.531 62.8793 127.868 63.1411C128.206 63.3991 128.62 63.5281 129.109 63.5281C129.618 63.5281 130.042 63.3934 130.384 63.124C130.725 62.8508 130.983 62.4809 131.158 62.0142C131.336 61.5475 131.425 61.022 131.425 60.4377C131.425 59.861 131.338 59.3431 131.164 58.884C130.993 58.4249 130.735 58.0626 130.39 57.797C130.048 57.5314 129.621 57.3986 129.109 57.3986C128.616 57.3986 128.199 57.5257 127.857 57.7799C127.519 58.0341 127.263 58.3888 127.089 58.8442C126.914 59.2995 126.827 59.8306 126.827 60.4377ZM138.229 64.985C137.409 64.985 136.694 64.7972 136.083 64.4216C135.472 64.046 134.998 63.5205 134.66 62.8451C134.323 62.1697 134.154 61.3806 134.154 60.4775C134.154 59.5707 134.323 58.7778 134.66 58.0986C134.998 57.4194 135.472 56.892 136.083 56.5164C136.694 56.1408 137.409 55.953 138.229 55.953C139.048 55.953 139.763 56.1408 140.374 56.5164C140.985 56.892 141.459 57.4194 141.797 58.0986C142.135 58.7778 142.304 59.5707 142.304 60.4775C142.304 61.3806 142.135 62.1697 141.797 62.8451C141.459 63.5205 140.985 64.046 140.374 64.4216C139.763 64.7972 139.048 64.985 138.229 64.985ZM138.234 63.5565C138.766 63.5565 139.206 63.4161 139.555 63.1354C139.904 62.8546 140.162 62.4809 140.329 62.0142C140.5 61.5475 140.585 61.0334 140.585 60.4719C140.585 59.9141 140.5 59.4019 140.329 58.9352C140.162 58.4647 139.904 58.0872 139.555 57.8026C139.206 57.5181 138.766 57.3758 138.234 57.3758C137.699 57.3758 137.255 57.5181 136.903 57.8026C136.554 58.0872 136.294 58.4647 136.123 58.9352C135.956 59.4019 135.873 59.9141 135.873 60.4719C135.873 61.0334 135.956 61.5475 136.123 62.0142C136.294 62.4809 136.554 62.8546 136.903 63.1354C137.255 63.4161 137.699 63.5565 138.234 63.5565ZM146.238 65.0021C145.685 65.0021 145.184 64.8997 144.736 64.6948C144.288 64.4861 143.934 64.1845 143.672 63.7899C143.414 63.3953 143.285 62.9115 143.285 62.3386C143.285 61.8453 143.38 61.4394 143.569 61.1207C143.759 60.8019 144.015 60.5496 144.338 60.3637C144.66 60.1778 145.021 60.0374 145.419 59.9426C145.817 59.8477 146.223 59.7756 146.637 59.7263C147.16 59.6656 147.585 59.6163 147.912 59.5783C148.238 59.5366 148.475 59.4702 148.623 59.3791C148.771 59.2881 148.845 59.1401 148.845 58.9352V58.8954C148.845 58.3983 148.705 58.0132 148.424 57.74C148.147 57.4669 147.733 57.3303 147.183 57.3303C146.61 57.3303 146.159 57.4574 145.829 57.7116C145.502 57.962 145.277 58.2409 145.151 58.5482L143.552 58.184C143.742 57.6528 144.019 57.224 144.383 56.8977C144.751 56.5676 145.174 56.3286 145.652 56.1806C146.13 56.0289 146.633 55.953 147.16 55.953C147.51 55.953 147.879 55.9947 148.27 56.0782C148.665 56.1579 149.033 56.3058 149.374 56.5221C149.72 56.7384 150.002 57.0476 150.222 57.4498C150.442 57.8482 150.552 58.3661 150.552 59.0035V64.8086H148.891V63.6134H148.822C148.712 63.8335 148.547 64.0498 148.327 64.2622C148.107 64.4747 147.824 64.6511 147.479 64.7915C147.134 64.9319 146.72 65.0021 146.238 65.0021ZM146.608 63.6362C147.079 63.6362 147.481 63.5432 147.815 63.3573C148.153 63.1714 148.409 62.9286 148.583 62.6288C148.762 62.3253 148.851 62.0009 148.851 61.6556V60.5288C148.79 60.5895 148.672 60.6464 148.498 60.6995C148.327 60.7488 148.132 60.7925 147.912 60.8304C147.692 60.8645 147.477 60.8968 147.269 60.9272C147.06 60.9537 146.885 60.9765 146.745 60.9954C146.415 61.0372 146.113 61.1074 145.84 61.206C145.571 61.3047 145.354 61.447 145.191 61.6329C145.032 61.815 144.952 62.0578 144.952 62.3614C144.952 62.7825 145.108 63.1012 145.419 63.3175C145.73 63.53 146.127 63.6362 146.608 63.6362ZM152.31 64.8086V56.0668H153.955V57.4555H154.046C154.206 56.985 154.486 56.6151 154.889 56.3457C155.295 56.0725 155.754 55.9359 156.266 55.9359C156.372 55.9359 156.497 55.9397 156.641 55.9473C156.789 55.9549 156.905 55.9644 156.989 55.9758V57.6035C156.92 57.5845 156.799 57.5636 156.624 57.5409C156.45 57.5143 156.275 57.501 156.101 57.501C155.699 57.501 155.34 57.5864 155.025 57.7571C154.714 57.9241 154.467 58.1574 154.285 58.4571C154.103 58.7531 154.012 59.0908 154.012 59.4702V64.8086H152.31ZM160.912 64.9793C160.206 64.9793 159.577 64.7991 159.023 64.4387C158.472 64.0744 158.04 63.5565 157.725 62.8849C157.414 62.2096 157.258 61.3995 157.258 60.4548C157.258 59.51 157.416 58.7019 157.731 58.0303C158.049 57.3587 158.486 56.8446 159.04 56.488C159.594 56.1313 160.222 55.953 160.923 55.953C161.466 55.953 161.902 56.044 162.232 56.2262C162.566 56.4045 162.824 56.6132 163.006 56.8522C163.192 57.0912 163.337 57.3018 163.439 57.4839H163.541V53.1529H165.243V64.8086H163.581V63.4484H163.439C163.337 63.6343 163.189 63.8468 162.995 64.0858C162.805 64.3248 162.544 64.5335 162.21 64.7118C161.876 64.8902 161.443 64.9793 160.912 64.9793ZM161.288 63.5281C161.777 63.5281 162.191 63.3991 162.528 63.1411C162.87 62.8793 163.128 62.5169 163.302 62.054C163.481 61.5911 163.57 61.0524 163.57 60.4377C163.57 59.8306 163.483 59.2995 163.308 58.8442C163.134 58.3888 162.877 58.0341 162.54 57.7799C162.202 57.5257 161.785 57.3986 161.288 57.3986C160.775 57.3986 160.349 57.5314 160.007 57.797C159.666 58.0626 159.408 58.4249 159.233 58.884C159.062 59.3431 158.977 59.861 158.977 60.4377C158.977 61.022 159.064 61.5475 159.239 62.0142C159.413 62.4809 159.671 62.8508 160.013 63.124C160.358 63.3934 160.783 63.5281 161.288 63.5281ZM167.163 64.8086V56.0668H168.865V64.8086H167.163ZM168.023 54.718C167.727 54.718 167.472 54.6193 167.26 54.422C167.051 54.2209 166.947 53.9819 166.947 53.7049C166.947 53.4242 167.051 53.1851 167.26 52.9878C167.472 52.7867 167.727 52.6862 168.023 52.6862C168.319 52.6862 168.571 52.7867 168.78 52.9878C168.992 53.1851 169.098 53.4242 169.098 53.7049C169.098 53.9819 168.992 54.2209 168.78 54.422C168.571 54.6193 168.319 54.718 168.023 54.718ZM172.347 59.6182V64.8086H170.646V56.0668H172.279V57.4896H172.387C172.588 57.0267 172.903 56.6549 173.332 56.3741C173.764 56.0934 174.309 55.953 174.965 55.953C175.561 55.953 176.083 56.0782 176.53 56.3286C176.978 56.5752 177.325 56.9433 177.572 57.4327C177.819 57.9222 177.942 58.5273 177.942 59.2482V64.8086H176.24V59.4531C176.24 58.8195 176.075 58.3243 175.745 57.9677C175.415 57.6072 174.962 57.427 174.385 57.427C173.99 57.427 173.639 57.5124 173.332 57.6831C173.028 57.8539 172.787 58.1043 172.609 58.4344C172.435 58.7607 172.347 59.1553 172.347 59.6182ZM183.381 68.2689C182.686 68.2689 182.089 68.1778 181.588 67.9957C181.091 67.8136 180.685 67.5727 180.37 67.2729C180.055 66.9732 179.82 66.645 179.664 66.2883L181.127 65.685C181.229 65.852 181.366 66.0284 181.537 66.2143C181.711 66.404 181.946 66.5653 182.242 66.6981C182.542 66.8309 182.927 66.8973 183.398 66.8973C184.043 66.8973 184.576 66.7398 184.997 66.4249C185.418 66.1138 185.629 65.6168 185.629 64.9338V63.215H185.521C185.418 63.401 185.27 63.6077 185.077 63.8354C184.887 64.063 184.625 64.2603 184.291 64.4273C183.957 64.5942 183.523 64.6777 182.988 64.6777C182.297 64.6777 181.675 64.5164 181.121 64.1939C180.571 63.8676 180.135 63.3877 179.812 62.754C179.493 62.1166 179.334 61.3331 179.334 60.4036C179.334 59.474 179.492 58.6772 179.806 58.0132C180.125 57.3492 180.562 56.8408 181.115 56.488C181.669 56.1313 182.297 55.953 182.999 55.953C183.542 55.953 183.98 56.044 184.314 56.2262C184.648 56.4045 184.908 56.6132 185.094 56.8522C185.283 57.0912 185.429 57.3018 185.532 57.4839H185.657V56.0668H187.325V65.0021C187.325 65.7533 187.15 66.3699 186.801 66.8518C186.452 67.3336 185.98 67.6903 185.384 67.9217C184.792 68.1532 184.124 68.2689 183.381 68.2689ZM183.364 63.2663C183.853 63.2663 184.267 63.1524 184.604 62.9248C184.946 62.6933 185.204 62.3632 185.378 61.9345C185.557 61.502 185.646 60.9841 185.646 60.3808C185.646 59.7927 185.558 59.2748 185.384 58.8271C185.209 58.3794 184.953 58.0303 184.616 57.7799C184.278 57.5257 183.861 57.3986 183.364 57.3986C182.851 57.3986 182.424 57.5314 182.083 57.797C181.742 58.0588 181.484 58.4154 181.309 58.8669C181.138 59.3184 181.053 59.823 181.053 60.3808C181.053 60.9537 181.14 61.4564 181.315 61.889C181.489 62.3215 181.747 62.6592 182.089 62.902C182.434 63.1448 182.859 63.2663 183.364 63.2663ZM192.393 54.6668V53.1529H201.413V54.6668H197.777V64.8086H196.024V54.6668H192.393ZM201.854 64.8086V56.0668H203.499V57.4555H203.59C203.749 56.985 204.03 56.6151 204.432 56.3457C204.838 56.0725 205.297 55.9359 205.809 55.9359C205.916 55.9359 206.041 55.9397 206.185 55.9473C206.333 55.9549 206.449 55.9644 206.532 55.9758V57.6035C206.464 57.5845 206.342 57.5636 206.168 57.5409C205.993 57.5143 205.819 57.501 205.644 57.501C205.242 57.501 204.884 57.5864 204.569 57.7571C204.257 57.9241 204.011 58.1574 203.829 58.4571C203.647 58.7531 203.556 59.0908 203.556 59.4702V64.8086H201.854ZM209.962 65.0021C209.408 65.0021 208.907 64.8997 208.459 64.6948C208.012 64.4861 207.657 64.1845 207.395 63.7899C207.137 63.3953 207.008 62.9115 207.008 62.3386C207.008 61.8453 207.103 61.4394 207.293 61.1207C207.482 60.8019 207.738 60.5496 208.061 60.3637C208.383 60.1778 208.744 60.0374 209.142 59.9426C209.541 59.8477 209.947 59.7756 210.36 59.7263C210.884 59.6656 211.309 59.6163 211.635 59.5783C211.961 59.5366 212.198 59.4702 212.346 59.3791C212.494 59.2881 212.568 59.1401 212.568 58.9352V58.8954C212.568 58.3983 212.428 58.0132 212.147 57.74C211.87 57.4669 211.457 57.3303 210.907 57.3303C210.334 57.3303 209.882 57.4574 209.552 57.7116C209.226 57.962 209 58.2409 208.875 58.5482L207.276 58.184C207.465 57.6528 207.742 57.224 208.106 56.8977C208.475 56.5676 208.898 56.3286 209.376 56.1806C209.854 56.0289 210.356 55.953 210.884 55.953C211.233 55.953 211.603 55.9947 211.994 56.0782C212.388 56.1579 212.756 56.3058 213.098 56.5221C213.443 56.7384 213.726 57.0476 213.946 57.4498C214.166 57.8482 214.276 58.3661 214.276 59.0035V64.8086H212.614V63.6134H212.546C212.436 63.8335 212.271 64.0498 212.051 64.2622C211.83 64.4747 211.548 64.6511 211.203 64.7915C210.857 64.9319 210.444 65.0021 209.962 65.0021ZM210.332 63.6362C210.802 63.6362 211.204 63.5432 211.538 63.3573C211.876 63.1714 212.132 62.9286 212.307 62.6288C212.485 62.3253 212.574 62.0009 212.574 61.6556V60.5288C212.513 60.5895 212.396 60.6464 212.221 60.6995C212.051 60.7488 211.855 60.7925 211.635 60.8304C211.415 60.8645 211.201 60.8968 210.992 60.9272C210.783 60.9537 210.609 60.9765 210.468 60.9954C210.138 61.0372 209.837 61.1074 209.563 61.206C209.294 61.3047 209.078 61.447 208.915 61.6329C208.755 61.815 208.676 62.0578 208.676 62.3614C208.676 62.7825 208.831 63.1012 209.142 63.3175C209.453 63.53 209.85 63.6362 210.332 63.6362ZM216.034 64.8086V56.0668H217.735V64.8086H216.034ZM216.893 54.718C216.597 54.718 216.343 54.6193 216.13 54.422C215.922 54.2209 215.817 53.9819 215.817 53.7049C215.817 53.4242 215.922 53.1851 216.13 52.9878C216.343 52.7867 216.597 52.6862 216.893 52.6862C217.189 52.6862 217.441 52.7867 217.65 52.9878C217.863 53.1851 217.969 53.4242 217.969 53.7049C217.969 53.9819 217.863 54.2209 217.65 54.422C217.441 54.6193 217.189 54.718 216.893 54.718ZM221.218 59.6182V64.8086H219.516V56.0668H221.15V57.4896H221.258C221.459 57.0267 221.774 56.6549 222.202 56.3741C222.635 56.0934 223.179 55.953 223.836 55.953C224.431 55.953 224.953 56.0782 225.401 56.3286C225.849 56.5752 226.196 56.9433 226.442 57.4327C226.689 57.9222 226.812 58.5273 226.812 59.2482V64.8086H225.111V59.4531C225.111 58.8195 224.946 58.3243 224.615 57.9677C224.285 57.6072 223.832 57.427 223.255 57.427C222.861 57.427 222.51 57.5124 222.202 57.6831C221.899 57.8539 221.658 58.1043 221.48 58.4344C221.305 58.7607 221.218 59.1553 221.218 59.6182ZM228.586 64.8086V56.0668H230.288V64.8086H228.586ZM229.445 54.718C229.149 54.718 228.895 54.6193 228.683 54.422C228.474 54.2209 228.37 53.9819 228.37 53.7049C228.37 53.4242 228.474 53.1851 228.683 52.9878C228.895 52.7867 229.149 52.6862 229.445 52.6862C229.741 52.6862 229.994 52.7867 230.202 52.9878C230.415 53.1851 230.521 53.4242 230.521 53.7049C230.521 53.9819 230.415 54.2209 230.202 54.422C229.994 54.6193 229.741 54.718 229.445 54.718ZM233.207 64.9167C232.895 64.9167 232.628 64.8067 232.404 64.5866C232.18 64.3628 232.068 64.0934 232.068 63.7785C232.068 63.4674 232.18 63.2018 232.404 62.9817C232.628 62.7578 232.895 62.6459 233.207 62.6459C233.518 62.6459 233.785 62.7578 234.009 62.9817C234.233 63.2018 234.345 63.4674 234.345 63.7785C234.345 63.9872 234.292 64.1788 234.185 64.3533C234.083 64.524 233.946 64.6606 233.776 64.7631C233.605 64.8655 233.415 64.9167 233.207 64.9167ZM237.458 64.9167C237.147 64.9167 236.879 64.8067 236.655 64.5866C236.432 64.3628 236.32 64.0934 236.32 63.7785C236.32 63.4674 236.432 63.2018 236.655 62.9817C236.879 62.7578 237.147 62.6459 237.458 62.6459C237.769 62.6459 238.037 62.7578 238.26 62.9817C238.484 63.2018 238.596 63.4674 238.596 63.7785C238.596 63.9872 238.543 64.1788 238.437 64.3533C238.334 64.524 238.198 64.6606 238.027 64.7631C237.856 64.8655 237.667 64.9167 237.458 64.9167ZM241.715 64.9167C241.404 64.9167 241.136 64.8067 240.913 64.5866C240.689 64.3628 240.577 64.0934 240.577 63.7785C240.577 63.4674 240.689 63.2018 240.913 62.9817C241.136 62.7578 241.404 62.6459 241.715 62.6459C242.026 62.6459 242.294 62.7578 242.517 62.9817C242.741 63.2018 242.853 63.4674 242.853 63.7785C242.853 63.9872 242.8 64.1788 242.694 64.3533C242.591 64.524 242.455 64.6606 242.284 64.7631C242.113 64.8655 241.924 64.9167 241.715 64.9167Z" fill="#292929"/>
</g>
<g id="Tag">
<rect x="259.28" y="48.3052" width="65.0812" height="22.2518" rx="11.1259" fill="#08FF00" fill-opacity="0.15"/>
<path id="Completed" d="M273.491 57.7278H272.39C272.348 57.4926 272.269 57.2857 272.154 57.107C272.039 56.9282 271.898 56.7765 271.731 56.6519C271.564 56.5273 271.377 56.4332 271.17 56.3697C270.965 56.3062 270.748 56.2744 270.517 56.2744C270.101 56.2744 269.728 56.3791 269.399 56.5884C269.072 56.7977 268.813 57.1046 268.623 57.5091C268.435 57.9136 268.341 58.4075 268.341 58.9907C268.341 59.5787 268.435 60.0749 268.623 60.4794C268.813 60.8839 269.073 61.1896 269.402 61.3966C269.732 61.6035 270.102 61.707 270.514 61.707C270.742 61.707 270.958 61.6764 271.163 61.6153C271.37 61.5518 271.557 61.4589 271.724 61.3366C271.891 61.2143 272.032 61.065 272.147 60.8886C272.265 60.7099 272.346 60.5053 272.39 60.2748L273.491 60.2783C273.432 60.6334 273.318 60.9603 273.149 61.259C272.982 61.5553 272.767 61.8117 272.503 62.028C272.242 62.242 271.944 62.4078 271.607 62.5254C271.271 62.643 270.904 62.7018 270.507 62.7018C269.881 62.7018 269.324 62.5536 268.835 62.2573C268.345 61.9586 267.96 61.5318 267.677 60.9768C267.398 60.4218 267.258 59.7597 267.258 58.9907C267.258 58.2193 267.399 57.5573 267.681 57.0047C267.963 56.4496 268.349 56.024 268.838 55.7277C269.327 55.429 269.883 55.2796 270.507 55.2796C270.89 55.2796 271.247 55.3349 271.579 55.4454C271.913 55.5536 272.213 55.7135 272.479 55.9252C272.744 56.1345 272.964 56.3908 273.138 56.6942C273.312 56.9953 273.43 57.3398 273.491 57.7278ZM276.675 62.7124C276.167 62.7124 275.724 62.596 275.345 62.3631C274.967 62.1303 274.673 61.8046 274.463 61.386C274.254 60.9674 274.149 60.4782 274.149 59.9185C274.149 59.3564 274.254 58.8649 274.463 58.4439C274.673 58.023 274.967 57.6961 275.345 57.4633C275.724 57.2304 276.167 57.114 276.675 57.114C277.183 57.114 277.626 57.2304 278.005 57.4633C278.384 57.6961 278.678 58.023 278.887 58.4439C279.096 58.8649 279.201 59.3564 279.201 59.9185C279.201 60.4782 279.096 60.9674 278.887 61.386C278.678 61.8046 278.384 62.1303 278.005 62.3631C277.626 62.596 277.183 62.7124 276.675 62.7124ZM276.679 61.8269C277.008 61.8269 277.281 61.7399 277.497 61.5659C277.714 61.3919 277.873 61.1602 277.977 60.871C278.083 60.5817 278.136 60.263 278.136 59.915C278.136 59.5693 278.083 59.2518 277.977 58.9625C277.873 58.6709 277.714 58.4369 277.497 58.2605C277.281 58.0841 277.008 57.9959 276.679 57.9959C276.347 57.9959 276.072 58.0841 275.853 58.2605C275.637 58.4369 275.476 58.6709 275.37 58.9625C275.266 59.2518 275.215 59.5693 275.215 59.915C275.215 60.263 275.266 60.5817 275.37 60.871C275.476 61.1602 275.637 61.3919 275.853 61.5659C276.072 61.7399 276.347 61.8269 276.679 61.8269ZM280.06 62.603V57.1846H281.073V58.0665H281.14C281.253 57.7678 281.437 57.535 281.694 57.368C281.95 57.1987 282.257 57.114 282.614 57.114C282.977 57.114 283.28 57.1987 283.525 57.368C283.772 57.5373 283.954 57.7702 284.071 58.0665H284.128C284.257 57.7772 284.463 57.5467 284.745 57.3751C285.027 57.201 285.364 57.114 285.754 57.114C286.246 57.114 286.647 57.2681 286.957 57.5761C287.27 57.8842 287.426 58.3487 287.426 58.9696V62.603H286.371V59.0683C286.371 58.7015 286.271 58.4357 286.072 58.2711C285.872 58.1065 285.633 58.0241 285.355 58.0241C285.012 58.0241 284.745 58.13 284.555 58.3416C284.364 58.5509 284.269 58.8202 284.269 59.1495V62.603H283.218V59.0013C283.218 58.7073 283.126 58.471 282.943 58.2922C282.759 58.1135 282.52 58.0241 282.226 58.0241C282.027 58.0241 281.842 58.0771 281.673 58.1829C281.506 58.2864 281.37 58.431 281.267 58.6168C281.166 58.8026 281.115 59.0178 281.115 59.2623V62.603H280.06ZM288.522 64.6349V57.1846H289.552V58.063H289.64C289.701 57.9501 289.79 57.8195 289.905 57.6714C290.02 57.5232 290.18 57.3939 290.385 57.2833C290.589 57.1705 290.86 57.114 291.196 57.114C291.633 57.114 292.024 57.2245 292.367 57.4456C292.71 57.6667 292.98 57.9853 293.175 58.4016C293.373 58.8179 293.471 59.3188 293.471 59.9044C293.471 60.49 293.374 60.9921 293.178 61.4107C292.983 61.8269 292.715 62.148 292.374 62.3737C292.033 62.5971 291.644 62.7089 291.207 62.7089C290.877 62.7089 290.608 62.6536 290.399 62.5431C290.192 62.4325 290.029 62.3032 289.912 62.155C289.794 62.0069 289.704 61.8752 289.64 61.7599H289.577V64.6349H288.522ZM289.556 59.8938C289.556 60.2748 289.611 60.6087 289.721 60.8956C289.832 61.1826 289.992 61.4072 290.201 61.5694C290.41 61.7293 290.667 61.8093 290.97 61.8093C291.285 61.8093 291.549 61.7258 291.76 61.5588C291.972 61.3895 292.132 61.1602 292.24 60.871C292.351 60.5817 292.406 60.256 292.406 59.8938C292.406 59.5363 292.352 59.2153 292.244 58.9308C292.138 58.6462 291.978 58.4216 291.764 58.257C291.552 58.0923 291.288 58.01 290.97 58.01C290.664 58.01 290.406 58.0888 290.194 58.2464C289.985 58.404 289.826 58.6238 289.718 58.9061C289.61 59.1883 289.556 59.5175 289.556 59.8938ZM295.39 55.3784V62.603H294.335V55.3784H295.39ZM298.826 62.7124C298.292 62.7124 297.833 62.5983 297.447 62.3702C297.064 62.1397 296.767 61.8164 296.558 61.4001C296.351 60.9815 296.248 60.4911 296.248 59.9291C296.248 59.3741 296.351 58.8849 296.558 58.4616C296.767 58.0383 297.059 57.7078 297.433 57.4703C297.809 57.2328 298.249 57.114 298.752 57.114C299.058 57.114 299.354 57.1646 299.641 57.2657C299.928 57.3668 300.186 57.5256 300.414 57.7419C300.642 57.9583 300.822 58.2393 300.954 58.585C301.085 58.9284 301.151 59.3458 301.151 59.8374V60.2113H296.844V59.4211H300.117C300.117 59.1436 300.061 58.8978 299.948 58.6838C299.835 58.4675 299.676 58.297 299.472 58.1723C299.27 58.0477 299.032 57.9853 298.759 57.9853C298.463 57.9853 298.204 58.0582 297.983 58.2041C297.765 58.3475 297.595 58.5357 297.475 58.7685C297.358 58.999 297.299 59.2494 297.299 59.5199V60.1372C297.299 60.4994 297.362 60.8075 297.489 61.0614C297.619 61.3154 297.799 61.5095 298.029 61.6435C298.26 61.7752 298.529 61.8411 298.837 61.8411C299.037 61.8411 299.219 61.8128 299.384 61.7564C299.548 61.6976 299.691 61.6106 299.811 61.4953C299.93 61.3801 300.022 61.2378 300.086 61.0685L301.084 61.2484C301.004 61.5424 300.861 61.7999 300.654 62.021C300.449 62.2397 300.192 62.4102 299.881 62.5325C299.573 62.6524 299.221 62.7124 298.826 62.7124ZM304.533 57.1846V58.0312H301.573V57.1846H304.533ZM302.367 55.8864H303.422V61.0121C303.422 61.2167 303.452 61.3707 303.513 61.4742C303.574 61.5753 303.653 61.6447 303.75 61.6823C303.848 61.7176 303.955 61.7352 304.071 61.7352C304.155 61.7352 304.229 61.7293 304.293 61.7176C304.356 61.7058 304.406 61.6964 304.441 61.6894L304.632 62.5607C304.57 62.5842 304.483 62.6077 304.371 62.6312C304.258 62.6571 304.117 62.6712 303.947 62.6736C303.67 62.6783 303.411 62.6289 303.171 62.5254C302.931 62.4219 302.737 62.262 302.589 62.0457C302.441 61.8293 302.367 61.5577 302.367 61.2308V55.8864ZM307.659 62.7124C307.125 62.7124 306.665 62.5983 306.279 62.3702C305.896 62.1397 305.6 61.8164 305.39 61.4001C305.184 60.9815 305.08 60.4911 305.08 59.9291C305.08 59.3741 305.184 58.8849 305.39 58.4616C305.6 58.0383 305.891 57.7078 306.265 57.4703C306.642 57.2328 307.081 57.114 307.585 57.114C307.89 57.114 308.187 57.1646 308.474 57.2657C308.761 57.3668 309.018 57.5256 309.246 57.7419C309.474 57.9583 309.654 58.2393 309.786 58.585C309.918 58.9284 309.983 59.3458 309.983 59.8374V60.2113H305.676V59.4211H308.95C308.95 59.1436 308.893 58.8978 308.781 58.6838C308.668 58.4675 308.509 58.297 308.304 58.1723C308.102 58.0477 307.865 57.9853 307.592 57.9853C307.295 57.9853 307.037 58.0582 306.816 58.2041C306.597 58.3475 306.428 58.5357 306.308 58.7685C306.19 58.999 306.131 59.2494 306.131 59.5199V60.1372C306.131 60.4994 306.195 60.8075 306.322 61.0614C306.451 61.3154 306.631 61.5095 306.862 61.6435C307.092 61.7752 307.361 61.8411 307.669 61.8411C307.869 61.8411 308.052 61.8128 308.216 61.7564C308.381 61.6976 308.523 61.6106 308.643 61.4953C308.763 61.3801 308.855 61.2378 308.918 61.0685L309.916 61.2484C309.836 61.5424 309.693 61.7999 309.486 62.021C309.281 62.2397 309.024 62.4102 308.714 62.5325C308.405 62.6524 308.054 62.7124 307.659 62.7124ZM312.864 62.7089C312.427 62.7089 312.036 62.5971 311.693 62.3737C311.352 62.148 311.084 61.8269 310.889 61.4107C310.696 60.9921 310.6 60.49 310.6 59.9044C310.6 59.3188 310.697 58.8179 310.892 58.4016C311.09 57.9853 311.36 57.6667 311.704 57.4456C312.047 57.2245 312.436 57.114 312.871 57.114C313.208 57.114 313.478 57.1705 313.683 57.2833C313.89 57.3939 314.05 57.5232 314.162 57.6714C314.278 57.8195 314.367 57.9501 314.431 58.063H314.494V55.3784H315.549V62.603H314.519V61.7599H314.431C314.367 61.8752 314.275 62.0069 314.155 62.155C314.038 62.3032 313.876 62.4325 313.669 62.5431C313.462 62.6536 313.194 62.7089 312.864 62.7089ZM313.097 61.8093C313.4 61.8093 313.657 61.7293 313.866 61.5694C314.078 61.4072 314.238 61.1826 314.346 60.8956C314.456 60.6087 314.512 60.2748 314.512 59.8938C314.512 59.5175 314.458 59.1883 314.349 58.9061C314.241 58.6238 314.082 58.404 313.873 58.2464C313.664 58.0888 313.405 58.01 313.097 58.01C312.78 58.01 312.515 58.0923 312.303 58.257C312.092 58.4216 311.932 58.6462 311.824 58.9308C311.718 59.2153 311.665 59.5363 311.665 59.8938C311.665 60.256 311.719 60.5817 311.827 60.871C311.935 61.1602 312.095 61.3895 312.307 61.5588C312.521 61.7258 312.784 61.8093 313.097 61.8093Z" fill="#093B00"/>
</g>
</g>
<g id="Wrapper_2" filter="url(#filter1_dd_225_4540)">
<rect x="17.5094" y="102.576" width="294.19" height="55.67" rx="9.68786" fill="#FAFAFA"/>
<rect x="17.5699" y="102.636" width="294.068" height="55.5489" rx="9.62731" stroke="url(#paint1_linear_225_4540)" stroke-width="0.121098"/>
<g id="Group 1707483573">
<g id="Icon wrapper_2">
<rect x="32.283" y="111.295" width="33.4231" height="33.4231" rx="16.7116" fill="#5347FF" fill-opacity="0.12"/>
<rect x="32.283" y="111.295" width="33.4231" height="33.4231" rx="16.7116" stroke="#0003DB" stroke-width="0.484393"/>
<g id="Icon &#226;&#134;&#146; WjTLGRFacWeUjyktUeDlyoeVQzU.svg" clip-path="url(#clip3_225_4540)">
<g id="WjTLGRFacWeUjyktUeDlyoeVQzU.svg fill" clip-path="url(#clip4_225_4540)">
<g id="WjTLGRFacWeUjyktUeDlyoeVQzU.svg">
<path id="Vector_2" d="M52.527 131.538L56.059 128.006L52.527 124.474M45.4629 124.474L41.9309 128.006L45.4629 131.538M50.4078 121.648L47.5822 134.364" stroke="#0003DB" stroke-width="1.69538" stroke-linecap="round" stroke-linejoin="round"/>
</g>
</g>
</g>
</g>
<path id="HIPAA Training" d="M76.9171 133.291V121.635H78.6757V126.701H84.4865V121.635H86.2508V133.291H84.4865V128.209H78.6757V133.291H76.9171ZM90.0619 121.635V133.291H88.3033V121.635H90.0619ZM92.1143 133.291V121.635H96.2689C97.1757 121.635 97.927 121.8 98.5227 122.13C99.1184 122.461 99.5642 122.912 99.8601 123.485C100.156 124.054 100.304 124.695 100.304 125.409C100.304 126.126 100.154 126.771 99.8544 127.344C99.5585 127.913 99.1108 128.364 98.5113 128.698C97.9156 129.028 97.1663 129.193 96.2632 129.193H93.4062V127.702H96.1039C96.6768 127.702 97.1416 127.604 97.4982 127.406C97.8549 127.205 98.1167 126.932 98.2836 126.587C98.4506 126.241 98.5341 125.849 98.5341 125.409C98.5341 124.968 98.4506 124.578 98.2836 124.236C98.1167 123.895 97.853 123.627 97.4926 123.434C97.1359 123.24 96.6654 123.143 96.0811 123.143H93.8729V133.291H92.1143ZM101.605 133.291H99.7385L103.933 121.635H105.965L110.159 133.291H108.292L104.997 123.752H104.906L101.605 133.291ZM101.918 128.727H107.974V130.206H101.918V128.727ZM112.318 133.291H110.452L114.646 121.635H116.678L120.872 133.291H119.006L115.71 123.752H115.619L112.318 133.291ZM112.631 128.727H118.687V130.206H112.631V128.727ZM125.205 123.149V121.635H134.226V123.149H130.589V133.291H128.836V123.149H125.205ZM134.666 133.291V124.549H136.311V125.938H136.402C136.561 125.467 136.842 125.097 137.244 124.828C137.65 124.555 138.109 124.418 138.621 124.418C138.728 124.418 138.853 124.422 138.997 124.43C139.145 124.437 139.261 124.447 139.344 124.458V126.086C139.276 126.067 139.154 126.046 138.98 126.023C138.805 125.997 138.631 125.983 138.456 125.983C138.054 125.983 137.696 126.069 137.381 126.24C137.07 126.406 136.823 126.64 136.641 126.94C136.459 127.236 136.368 127.573 136.368 127.953V133.291H134.666ZM142.774 133.485C142.22 133.485 141.719 133.382 141.271 133.177C140.824 132.969 140.469 132.667 140.207 132.272C139.949 131.878 139.82 131.394 139.82 130.821C139.82 130.328 139.915 129.922 140.105 129.603C140.294 129.284 140.551 129.032 140.873 128.846C141.196 128.66 141.556 128.52 141.954 128.425C142.353 128.33 142.759 128.258 143.172 128.209C143.696 128.148 144.121 128.099 144.447 128.061C144.773 128.019 145.011 127.953 145.159 127.862C145.307 127.77 145.381 127.623 145.381 127.418V127.378C145.381 126.881 145.24 126.496 144.959 126.222C144.682 125.949 144.269 125.813 143.719 125.813C143.146 125.813 142.694 125.94 142.364 126.194C142.038 126.444 141.812 126.723 141.687 127.031L140.088 126.666C140.277 126.135 140.554 125.706 140.919 125.38C141.287 125.05 141.71 124.811 142.188 124.663C142.666 124.511 143.169 124.435 143.696 124.435C144.045 124.435 144.415 124.477 144.806 124.561C145.2 124.64 145.568 124.788 145.91 125.005C146.255 125.221 146.538 125.53 146.758 125.932C146.978 126.331 147.088 126.849 147.088 127.486V133.291H145.426V132.096H145.358C145.248 132.316 145.083 132.532 144.863 132.745C144.643 132.957 144.36 133.134 144.015 133.274C143.669 133.414 143.256 133.485 142.774 133.485ZM143.144 132.119C143.614 132.119 144.017 132.026 144.35 131.84C144.688 131.654 144.944 131.411 145.119 131.111C145.297 130.808 145.386 130.483 145.386 130.138V129.011C145.326 129.072 145.208 129.129 145.033 129.182C144.863 129.231 144.667 129.275 144.447 129.313C144.227 129.347 144.013 129.379 143.804 129.41C143.595 129.436 143.421 129.459 143.28 129.478C142.95 129.52 142.649 129.59 142.376 129.688C142.106 129.787 141.89 129.929 141.727 130.115C141.567 130.297 141.488 130.54 141.488 130.844C141.488 131.265 141.643 131.584 141.954 131.8C142.266 132.012 142.662 132.119 143.144 132.119ZM148.846 133.291V124.549H150.548V133.291H148.846ZM149.705 123.2C149.409 123.2 149.155 123.102 148.943 122.904C148.734 122.703 148.63 122.464 148.63 122.187C148.63 121.907 148.734 121.668 148.943 121.47C149.155 121.269 149.409 121.169 149.705 121.169C150.001 121.169 150.253 121.269 150.462 121.47C150.675 121.668 150.781 121.907 150.781 122.187C150.781 122.464 150.675 122.703 150.462 122.904C150.253 123.102 150.001 123.2 149.705 123.2ZM154.03 128.101V133.291H152.328V124.549H153.962V125.972H154.07C154.271 125.509 154.586 125.137 155.015 124.857C155.447 124.576 155.992 124.435 156.648 124.435C157.244 124.435 157.765 124.561 158.213 124.811C158.661 125.058 159.008 125.426 159.254 125.915C159.501 126.405 159.624 127.01 159.624 127.731V133.291H157.923V127.936C157.923 127.302 157.758 126.807 157.428 126.45C157.098 126.09 156.644 125.909 156.067 125.909C155.673 125.909 155.322 125.995 155.015 126.166C154.711 126.336 154.47 126.587 154.292 126.917C154.117 127.243 154.03 127.638 154.03 128.101ZM161.398 133.291V124.549H163.1V133.291H161.398ZM162.257 123.2C161.961 123.2 161.707 123.102 161.495 122.904C161.286 122.703 161.182 122.464 161.182 122.187C161.182 121.907 161.286 121.668 161.495 121.47C161.707 121.269 161.961 121.169 162.257 121.169C162.553 121.169 162.806 121.269 163.014 121.47C163.227 121.668 163.333 121.907 163.333 122.187C163.333 122.464 163.227 122.703 163.014 122.904C162.806 123.102 162.553 123.2 162.257 123.2ZM166.582 128.101V133.291H164.88V124.549H166.514V125.972H166.622C166.823 125.509 167.138 125.137 167.567 124.857C167.999 124.576 168.544 124.435 169.2 124.435C169.796 124.435 170.317 124.561 170.765 124.811C171.213 125.058 171.56 125.426 171.807 125.915C172.053 126.405 172.177 127.01 172.177 127.731V133.291H170.475V127.936C170.475 127.302 170.31 126.807 169.98 126.45C169.65 126.09 169.196 125.909 168.62 125.909C168.225 125.909 167.874 125.995 167.567 126.166C167.263 126.336 167.022 126.587 166.844 126.917C166.669 127.243 166.582 127.638 166.582 128.101ZM177.615 136.751C176.921 136.751 176.323 136.66 175.823 136.478C175.326 136.296 174.92 136.055 174.605 135.755C174.29 135.456 174.055 135.127 173.899 134.771L175.362 134.167C175.464 134.334 175.601 134.511 175.771 134.697C175.946 134.886 176.181 135.048 176.477 135.181C176.777 135.313 177.162 135.38 177.632 135.38C178.277 135.38 178.811 135.222 179.232 134.907C179.653 134.596 179.863 134.099 179.863 133.416V131.697H179.755C179.653 131.883 179.505 132.09 179.311 132.318C179.122 132.545 178.86 132.743 178.526 132.91C178.192 133.077 177.758 133.16 177.223 133.16C176.532 133.16 175.91 132.999 175.356 132.676C174.806 132.35 174.369 131.87 174.047 131.236C173.728 130.599 173.569 129.816 173.569 128.886C173.569 127.956 173.726 127.16 174.041 126.496C174.36 125.832 174.796 125.323 175.35 124.97C175.904 124.614 176.532 124.435 177.234 124.435C177.777 124.435 178.215 124.526 178.549 124.709C178.883 124.887 179.143 125.096 179.328 125.335C179.518 125.574 179.664 125.784 179.767 125.966H179.892V124.549H181.559V133.485C181.559 134.236 181.385 134.852 181.036 135.334C180.687 135.816 180.214 136.173 179.619 136.404C179.027 136.636 178.359 136.751 177.615 136.751ZM177.598 131.749C178.088 131.749 178.501 131.635 178.839 131.407C179.18 131.176 179.438 130.846 179.613 130.417C179.791 129.984 179.88 129.466 179.88 128.863C179.88 128.275 179.793 127.757 179.619 127.309C179.444 126.862 179.188 126.513 178.85 126.262C178.513 126.008 178.095 125.881 177.598 125.881C177.086 125.881 176.659 126.014 176.318 126.279C175.976 126.541 175.718 126.898 175.544 127.349C175.373 127.801 175.288 128.305 175.288 128.863C175.288 129.436 175.375 129.939 175.549 130.371C175.724 130.804 175.982 131.142 176.323 131.384C176.669 131.627 177.094 131.749 177.598 131.749Z" fill="#292929"/>
</g>
<g id="Tag_2">
<rect x="231.526" y="119.88" width="65.0812" height="22.2518" rx="11.1259" fill="#08FF00" fill-opacity="0.15"/>
<path id="Completed_2" d="M245.737 129.303H244.636C244.594 129.068 244.515 128.861 244.4 128.682C244.285 128.503 244.143 128.352 243.976 128.227C243.809 128.102 243.623 128.008 243.416 127.945C243.211 127.881 242.993 127.85 242.763 127.85C242.347 127.85 241.974 127.954 241.645 128.164C241.318 128.373 241.059 128.68 240.869 129.084C240.68 129.489 240.586 129.983 240.586 130.566C240.586 131.154 240.68 131.65 240.869 132.055C241.059 132.459 241.319 132.765 241.648 132.972C241.977 133.179 242.348 133.282 242.759 133.282C242.988 133.282 243.204 133.252 243.409 133.19C243.615 133.127 243.802 133.034 243.969 132.912C244.136 132.79 244.277 132.64 244.393 132.464C244.51 132.285 244.591 132.08 244.636 131.85L245.737 131.854C245.678 132.209 245.564 132.536 245.395 132.834C245.228 133.131 245.012 133.387 244.749 133.603C244.488 133.817 244.189 133.983 243.853 134.101C243.517 134.218 243.15 134.277 242.752 134.277C242.127 134.277 241.569 134.129 241.08 133.833C240.591 133.534 240.205 133.107 239.923 132.552C239.643 131.997 239.503 131.335 239.503 130.566C239.503 129.795 239.645 129.133 239.927 128.58C240.209 128.025 240.595 127.599 241.084 127.303C241.573 127.004 242.129 126.855 242.752 126.855C243.136 126.855 243.493 126.91 243.825 127.021C244.159 127.129 244.459 127.289 244.724 127.5C244.99 127.71 245.21 127.966 245.384 128.269C245.558 128.57 245.676 128.915 245.737 129.303ZM248.921 134.288C248.413 134.288 247.97 134.171 247.591 133.938C247.212 133.706 246.918 133.38 246.709 132.961C246.5 132.543 246.395 132.053 246.395 131.494C246.395 130.932 246.5 130.44 246.709 130.019C246.918 129.598 247.212 129.271 247.591 129.038C247.97 128.806 248.413 128.689 248.921 128.689C249.429 128.689 249.872 128.806 250.251 129.038C250.629 129.271 250.923 129.598 251.133 130.019C251.342 130.44 251.447 130.932 251.447 131.494C251.447 132.053 251.342 132.543 251.133 132.961C250.923 133.38 250.629 133.706 250.251 133.938C249.872 134.171 249.429 134.288 248.921 134.288ZM248.924 133.402C249.254 133.402 249.527 133.315 249.743 133.141C249.959 132.967 250.119 132.735 250.223 132.446C250.328 132.157 250.381 131.838 250.381 131.49C250.381 131.144 250.328 130.827 250.223 130.538C250.119 130.246 249.959 130.012 249.743 129.836C249.527 129.659 249.254 129.571 248.924 129.571C248.593 129.571 248.318 129.659 248.099 129.836C247.883 130.012 247.722 130.246 247.616 130.538C247.512 130.827 247.46 131.144 247.46 131.49C247.46 131.838 247.512 132.157 247.616 132.446C247.722 132.735 247.883 132.967 248.099 133.141C248.318 133.315 248.593 133.402 248.924 133.402ZM252.306 134.178V128.76H253.319V129.642H253.386C253.499 129.343 253.683 129.11 253.939 128.943C254.196 128.774 254.503 128.689 254.86 128.689C255.222 128.689 255.526 128.774 255.77 128.943C256.017 129.113 256.2 129.345 256.317 129.642H256.374C256.503 129.352 256.709 129.122 256.991 128.95C257.273 128.776 257.609 128.689 258 128.689C258.491 128.689 258.892 128.843 259.203 129.151C259.516 129.459 259.672 129.924 259.672 130.545V134.178H258.617V130.644C258.617 130.277 258.517 130.011 258.317 129.846C258.117 129.682 257.879 129.599 257.601 129.599C257.258 129.599 256.991 129.705 256.8 129.917C256.61 130.126 256.515 130.395 256.515 130.725V134.178H255.463V130.576C255.463 130.283 255.372 130.046 255.188 129.867C255.005 129.689 254.766 129.599 254.472 129.599C254.272 129.599 254.088 129.652 253.918 129.758C253.751 129.862 253.616 130.006 253.513 130.192C253.412 130.378 253.361 130.593 253.361 130.838V134.178H252.306ZM260.768 136.21V128.76H261.798V129.638H261.886C261.947 129.525 262.035 129.395 262.151 129.247C262.266 129.098 262.426 128.969 262.63 128.859C262.835 128.746 263.105 128.689 263.442 128.689C263.879 128.689 264.269 128.8 264.613 129.021C264.956 129.242 265.225 129.561 265.421 129.977C265.618 130.393 265.717 130.894 265.717 131.48C265.717 132.065 265.619 132.567 265.424 132.986C265.229 133.402 264.961 133.723 264.62 133.949C264.279 134.172 263.89 134.284 263.452 134.284C263.123 134.284 262.854 134.229 262.644 134.118C262.437 134.008 262.275 133.878 262.158 133.73C262.04 133.582 261.949 133.45 261.886 133.335H261.822V136.21H260.768ZM261.801 131.469C261.801 131.85 261.857 132.184 261.967 132.471C262.078 132.758 262.238 132.982 262.447 133.145C262.656 133.305 262.913 133.385 263.216 133.385C263.531 133.385 263.794 133.301 264.006 133.134C264.218 132.965 264.378 132.735 264.486 132.446C264.596 132.157 264.652 131.831 264.652 131.469C264.652 131.112 264.598 130.791 264.489 130.506C264.384 130.221 264.224 129.997 264.01 129.832C263.798 129.668 263.533 129.585 263.216 129.585C262.91 129.585 262.651 129.664 262.44 129.822C262.231 129.979 262.072 130.199 261.964 130.481C261.855 130.763 261.801 131.093 261.801 131.469ZM267.636 126.954V134.178H266.581V126.954H267.636ZM271.072 134.288C270.538 134.288 270.078 134.174 269.693 133.945C269.309 133.715 269.013 133.392 268.804 132.975C268.597 132.557 268.493 132.066 268.493 131.504C268.493 130.949 268.597 130.46 268.804 130.037C269.013 129.613 269.305 129.283 269.679 129.046C270.055 128.808 270.495 128.689 270.998 128.689C271.304 128.689 271.6 128.74 271.887 128.841C272.174 128.942 272.431 129.101 272.659 129.317C272.888 129.533 273.068 129.815 273.199 130.16C273.331 130.504 273.397 130.921 273.397 131.413V131.786H269.09V130.996H272.363C272.363 130.719 272.307 130.473 272.194 130.259C272.081 130.043 271.922 129.872 271.718 129.748C271.515 129.623 271.278 129.561 271.005 129.561C270.709 129.561 270.45 129.633 270.229 129.779C270.01 129.923 269.841 130.111 269.721 130.344C269.603 130.574 269.545 130.825 269.545 131.095V131.712C269.545 132.075 269.608 132.383 269.735 132.637C269.864 132.891 270.044 133.085 270.275 133.219C270.505 133.35 270.775 133.416 271.083 133.416C271.283 133.416 271.465 133.388 271.629 133.332C271.794 133.273 271.936 133.186 272.056 133.071C272.176 132.955 272.268 132.813 272.331 132.644L273.33 132.824C273.25 133.118 273.106 133.375 272.899 133.596C272.695 133.815 272.437 133.985 272.127 134.108C271.819 134.228 271.467 134.288 271.072 134.288ZM276.779 128.76V129.606H273.819V128.76H276.779ZM274.613 127.462H275.667V132.587C275.667 132.792 275.698 132.946 275.759 133.049C275.82 133.151 275.899 133.22 275.995 133.258C276.094 133.293 276.201 133.31 276.316 133.31C276.401 133.31 276.475 133.305 276.539 133.293C276.602 133.281 276.652 133.272 276.687 133.265L276.877 134.136C276.816 134.159 276.729 134.183 276.616 134.206C276.503 134.232 276.362 134.246 276.193 134.249C275.915 134.253 275.657 134.204 275.417 134.101C275.177 133.997 274.983 133.837 274.835 133.621C274.687 133.404 274.613 133.133 274.613 132.806V127.462ZM279.904 134.288C279.371 134.288 278.911 134.174 278.525 133.945C278.142 133.715 277.846 133.392 277.636 132.975C277.429 132.557 277.326 132.066 277.326 131.504C277.326 130.949 277.429 130.46 277.636 130.037C277.846 129.613 278.137 129.283 278.511 129.046C278.887 128.808 279.327 128.689 279.83 128.689C280.136 128.689 280.432 128.74 280.719 128.841C281.006 128.942 281.264 129.101 281.492 129.317C281.72 129.533 281.9 129.815 282.032 130.16C282.163 130.504 282.229 130.921 282.229 131.413V131.786H277.922V130.996H281.196C281.196 130.719 281.139 130.473 281.026 130.259C280.913 130.043 280.755 129.872 280.55 129.748C280.348 129.623 280.11 129.561 279.837 129.561C279.541 129.561 279.282 129.633 279.061 129.779C278.843 129.923 278.673 130.111 278.553 130.344C278.436 130.574 278.377 130.825 278.377 131.095V131.712C278.377 132.075 278.441 132.383 278.568 132.637C278.697 132.891 278.877 133.085 279.107 133.219C279.338 133.35 279.607 133.416 279.915 133.416C280.115 133.416 280.297 133.388 280.462 133.332C280.626 133.273 280.769 133.186 280.889 133.071C281.009 132.955 281.1 132.813 281.164 132.644L282.162 132.824C282.082 133.118 281.939 133.375 281.732 133.596C281.527 133.815 281.27 133.985 280.959 134.108C280.651 134.228 280.3 134.288 279.904 134.288ZM285.11 134.284C284.673 134.284 284.282 134.172 283.939 133.949C283.598 133.723 283.33 133.402 283.135 132.986C282.942 132.567 282.845 132.065 282.845 131.48C282.845 130.894 282.943 130.393 283.138 129.977C283.336 129.561 283.606 129.242 283.949 129.021C284.293 128.8 284.682 128.689 285.117 128.689C285.453 128.689 285.724 128.746 285.928 128.859C286.135 128.969 286.295 129.098 286.408 129.247C286.523 129.395 286.613 129.525 286.676 129.638H286.74V126.954H287.795V134.178H286.764V133.335H286.676C286.613 133.45 286.521 133.582 286.401 133.73C286.284 133.878 286.121 134.008 285.914 134.118C285.707 134.229 285.439 134.284 285.11 134.284ZM285.343 133.385C285.646 133.385 285.903 133.305 286.112 133.145C286.324 132.982 286.483 132.758 286.592 132.471C286.702 132.184 286.757 131.85 286.757 131.469C286.757 131.093 286.703 130.763 286.595 130.481C286.487 130.199 286.328 129.979 286.119 129.822C285.91 129.664 285.651 129.585 285.343 129.585C285.025 129.585 284.761 129.668 284.549 129.832C284.337 129.997 284.178 130.221 284.069 130.506C283.964 130.791 283.911 131.112 283.911 131.469C283.911 131.831 283.965 132.157 284.073 132.446C284.181 132.735 284.341 132.965 284.553 133.134C284.767 133.301 285.03 133.385 285.343 133.385Z" fill="#093B00"/>
</g>
</g>
<g id="Wrapper_3" filter="url(#filter2_dd_225_4540)">
<rect x="45.2634" y="174.151" width="294.19" height="55.67" rx="9.68786" fill="#FAFAFA"/>
<rect x="45.324" y="174.212" width="294.068" height="55.5489" rx="9.62731" stroke="url(#paint2_linear_225_4540)" stroke-width="0.121098"/>
<g id="Group 1707483574">
<g id="Icon wrapper_3">
<rect x="60.0371" y="182.871" width="33.4231" height="33.4231" rx="16.7116" fill="#5347FF" fill-opacity="0.12"/>
<rect x="60.0371" y="182.871" width="33.4231" height="33.4231" rx="16.7116" stroke="#0003DB" stroke-width="0.484393"/>
<g id="Icon &#226;&#134;&#146; k6eiCnEwaKCFn623aauUmwI5K8.svg" clip-path="url(#clip5_225_4540)">
<g id="k6eiCnEwaKCFn623aauUmwI5K8.svg fill" clip-path="url(#clip6_225_4540)">
<g id="k6eiCnEwaKCFn623aauUmwI5K8.svg" clip-path="url(#clip7_225_4540)">
<g id="Group">
<path id="Vector_3" d="M75.8232 192.165H71.1874V207H82.3133V198.655H75.8232V192.165Z" fill="#0003DB"/>
<path id="Vector_4" d="M77.6774 192.165V196.801H82.3132L77.6774 192.165Z" fill="#0003DB"/>
</g>
</g>
</g>
</g>
</g>
<path id="Safety Policy Training" d="M111.029 197.272C110.968 196.734 110.718 196.316 110.277 196.02C109.837 195.721 109.283 195.571 108.616 195.571C108.138 195.571 107.724 195.647 107.375 195.798C107.026 195.946 106.755 196.151 106.561 196.413C106.371 196.671 106.276 196.965 106.276 197.295C106.276 197.572 106.341 197.811 106.47 198.012C106.603 198.213 106.775 198.382 106.988 198.519C107.204 198.652 107.436 198.764 107.682 198.855C107.929 198.942 108.166 199.014 108.394 199.071L109.532 199.367C109.904 199.458 110.285 199.581 110.676 199.737C111.067 199.892 111.429 200.097 111.763 200.351C112.097 200.606 112.366 200.921 112.571 201.296C112.78 201.672 112.884 202.121 112.884 202.645C112.884 203.305 112.713 203.891 112.372 204.404C112.034 204.916 111.543 205.32 110.898 205.616C110.257 205.912 109.481 206.06 108.57 206.06C107.697 206.06 106.942 205.921 106.305 205.644C105.667 205.367 105.169 204.975 104.808 204.466C104.448 203.954 104.248 203.347 104.211 202.645H105.975C106.009 203.066 106.146 203.417 106.385 203.698C106.627 203.975 106.937 204.182 107.312 204.318C107.692 204.451 108.107 204.517 108.559 204.517C109.056 204.517 109.498 204.44 109.885 204.284C110.276 204.125 110.583 203.905 110.807 203.624C111.031 203.339 111.142 203.007 111.142 202.628C111.142 202.283 111.044 202 110.847 201.78C110.653 201.56 110.389 201.378 110.055 201.234C109.725 201.089 109.352 200.962 108.934 200.852L107.557 200.477C106.624 200.222 105.884 199.849 105.337 199.355C104.795 198.862 104.524 198.21 104.524 197.398C104.524 196.726 104.706 196.14 105.07 195.639C105.434 195.138 105.927 194.749 106.55 194.472C107.172 194.192 107.874 194.051 108.655 194.051C109.445 194.051 110.141 194.19 110.744 194.467C111.351 194.744 111.829 195.125 112.178 195.611C112.527 196.092 112.709 196.646 112.725 197.272H111.029ZM116.884 206.06C116.33 206.06 115.83 205.957 115.382 205.752C114.934 205.544 114.579 205.242 114.318 204.847C114.06 204.453 113.931 203.969 113.931 203.396C113.931 202.903 114.025 202.497 114.215 202.178C114.405 201.86 114.661 201.607 114.983 201.421C115.306 201.235 115.666 201.095 116.065 201C116.463 200.905 116.869 200.833 117.283 200.784C117.806 200.723 118.231 200.674 118.558 200.636C118.884 200.594 119.121 200.528 119.269 200.437C119.417 200.346 119.491 200.198 119.491 199.993V199.953C119.491 199.456 119.351 199.071 119.07 198.798C118.793 198.524 118.379 198.388 117.829 198.388C117.256 198.388 116.805 198.515 116.475 198.769C116.148 199.02 115.922 199.298 115.797 199.606L114.198 199.242C114.388 198.71 114.665 198.282 115.029 197.955C115.397 197.625 115.82 197.386 116.298 197.238C116.776 197.086 117.279 197.011 117.806 197.011C118.155 197.011 118.525 197.052 118.916 197.136C119.311 197.215 119.679 197.363 120.02 197.58C120.365 197.796 120.648 198.105 120.868 198.507C121.088 198.906 121.198 199.424 121.198 200.061V205.866H119.536V204.671H119.468C119.358 204.891 119.193 205.107 118.973 205.32C118.753 205.532 118.47 205.709 118.125 205.849C117.78 205.99 117.366 206.06 116.884 206.06ZM117.254 204.694C117.725 204.694 118.127 204.601 118.461 204.415C118.798 204.229 119.055 203.986 119.229 203.686C119.407 203.383 119.497 203.059 119.497 202.713V201.586C119.436 201.647 119.318 201.704 119.144 201.757C118.973 201.806 118.778 201.85 118.558 201.888C118.337 201.922 118.123 201.954 117.914 201.985C117.706 202.011 117.531 202.034 117.391 202.053C117.061 202.095 116.759 202.165 116.486 202.264C116.217 202.362 116 202.505 115.837 202.69C115.678 202.873 115.598 203.115 115.598 203.419C115.598 203.84 115.754 204.159 116.065 204.375C116.376 204.588 116.772 204.694 117.254 204.694ZM127.117 197.124V198.49H122.177V197.124H127.117ZM123.531 205.866V196.111C123.531 195.565 123.651 195.112 123.89 194.751C124.129 194.387 124.445 194.116 124.84 193.937C125.235 193.755 125.663 193.664 126.126 193.664C126.468 193.664 126.76 193.693 127.003 193.75C127.246 193.803 127.426 193.852 127.543 193.897L127.145 195.275C127.065 195.252 126.963 195.225 126.838 195.195C126.712 195.161 126.561 195.144 126.382 195.144C125.969 195.144 125.673 195.246 125.495 195.451C125.32 195.656 125.233 195.952 125.233 196.339V205.866H123.531ZM131.787 206.043C130.926 206.043 130.184 205.859 129.562 205.491C128.943 205.119 128.465 204.597 128.127 203.925C127.794 203.25 127.627 202.459 127.627 201.552C127.627 200.657 127.794 199.868 128.127 199.185C128.465 198.502 128.936 197.969 129.539 197.585C130.146 197.202 130.855 197.011 131.667 197.011C132.161 197.011 132.639 197.092 133.102 197.255C133.565 197.418 133.98 197.675 134.348 198.024C134.716 198.373 135.006 198.826 135.219 199.384C135.431 199.938 135.538 200.611 135.538 201.404V202.008H128.588V200.733H133.87C133.87 200.285 133.779 199.888 133.597 199.543C133.415 199.194 133.159 198.919 132.828 198.718C132.502 198.517 132.119 198.416 131.679 198.416C131.201 198.416 130.783 198.534 130.427 198.769C130.074 199.001 129.801 199.304 129.607 199.68C129.418 200.052 129.323 200.456 129.323 200.892V201.888C129.323 202.472 129.425 202.969 129.63 203.379C129.839 203.789 130.129 204.102 130.501 204.318C130.873 204.531 131.307 204.637 131.804 204.637C132.127 204.637 132.421 204.591 132.686 204.5C132.952 204.405 133.181 204.265 133.375 204.079C133.568 203.893 133.716 203.664 133.819 203.391L135.429 203.681C135.3 204.155 135.069 204.571 134.735 204.927C134.405 205.28 133.989 205.555 133.489 205.752C132.992 205.946 132.424 206.043 131.787 206.043ZM140.998 197.124V198.49H136.223V197.124H140.998ZM137.503 195.03H139.205V203.299C139.205 203.63 139.254 203.878 139.353 204.045C139.451 204.208 139.579 204.32 139.734 204.381C139.894 204.438 140.066 204.466 140.252 204.466C140.389 204.466 140.508 204.457 140.611 204.438C140.713 204.419 140.793 204.404 140.85 204.392L141.157 205.798C141.058 205.836 140.918 205.874 140.736 205.912C140.554 205.953 140.326 205.976 140.053 205.98C139.605 205.988 139.188 205.908 138.801 205.741C138.414 205.574 138.101 205.316 137.862 204.967C137.623 204.618 137.503 204.18 137.503 203.652V195.03ZM143.447 209.144C143.193 209.144 142.961 209.124 142.753 209.082C142.544 209.044 142.388 209.002 142.286 208.957L142.696 207.562C143.007 207.646 143.284 207.682 143.527 207.67C143.77 207.659 143.984 207.568 144.17 207.397C144.36 207.226 144.526 206.948 144.671 206.561L144.881 205.98L141.683 197.124H143.504L145.718 203.908H145.809L148.023 197.124H149.85L146.247 207.033C146.08 207.488 145.868 207.873 145.61 208.188C145.352 208.507 145.044 208.746 144.688 208.905C144.331 209.065 143.918 209.144 143.447 209.144ZM154.81 205.866V194.211H158.964C159.871 194.211 160.622 194.376 161.218 194.706C161.814 195.036 162.26 195.487 162.556 196.06C162.851 196.629 162.999 197.271 162.999 197.984C162.999 198.701 162.85 199.346 162.55 199.919C162.254 200.488 161.806 200.939 161.207 201.273C160.611 201.603 159.862 201.769 158.959 201.769H156.102V200.277H158.799C159.372 200.277 159.837 200.179 160.194 199.981C160.55 199.78 160.812 199.507 160.979 199.162C161.146 198.817 161.229 198.424 161.229 197.984C161.229 197.544 161.146 197.153 160.979 196.811C160.812 196.47 160.548 196.202 160.188 196.009C159.831 195.815 159.361 195.719 158.777 195.719H156.568V205.866H154.81ZM167.989 206.043C167.169 206.043 166.454 205.855 165.843 205.479C165.232 205.104 164.758 204.578 164.42 203.903C164.082 203.227 163.914 202.438 163.914 201.535C163.914 200.628 164.082 199.835 164.42 199.156C164.758 198.477 165.232 197.95 165.843 197.574C166.454 197.198 167.169 197.011 167.989 197.011C168.808 197.011 169.523 197.198 170.134 197.574C170.745 197.95 171.219 198.477 171.557 199.156C171.895 199.835 172.064 200.628 172.064 201.535C172.064 202.438 171.895 203.227 171.557 203.903C171.219 204.578 170.745 205.104 170.134 205.479C169.523 205.855 168.808 206.043 167.989 206.043ZM167.994 204.614C168.525 204.614 168.966 204.474 169.315 204.193C169.664 203.912 169.922 203.538 170.089 203.072C170.259 202.605 170.345 202.091 170.345 201.529C170.345 200.972 170.259 200.46 170.089 199.993C169.922 199.522 169.664 199.145 169.315 198.86C168.966 198.576 168.525 198.433 167.994 198.433C167.459 198.433 167.015 198.576 166.663 198.86C166.313 199.145 166.054 199.522 165.883 199.993C165.716 200.46 165.632 200.972 165.632 201.529C165.632 202.091 165.716 202.605 165.883 203.072C166.054 203.538 166.313 203.912 166.663 204.193C167.015 204.474 167.459 204.614 167.994 204.614ZM175.156 194.211V205.866H173.454V194.211H175.156ZM176.937 205.866V197.124H178.638V205.866H176.937ZM177.796 195.776C177.5 195.776 177.246 195.677 177.034 195.48C176.825 195.279 176.721 195.04 176.721 194.763C176.721 194.482 176.825 194.243 177.034 194.045C177.246 193.844 177.5 193.744 177.796 193.744C178.092 193.744 178.344 193.844 178.553 194.045C178.766 194.243 178.872 194.482 178.872 194.763C178.872 195.04 178.766 195.279 178.553 195.48C178.344 195.677 178.092 195.776 177.796 195.776ZM184.101 206.043C183.255 206.043 182.527 205.851 181.916 205.468C181.309 205.081 180.842 204.548 180.516 203.869C180.19 203.189 180.026 202.412 180.026 201.535C180.026 200.647 180.193 199.864 180.527 199.185C180.861 198.502 181.332 197.969 181.939 197.585C182.546 197.202 183.261 197.011 184.084 197.011C184.748 197.011 185.34 197.134 185.86 197.381C186.38 197.623 186.799 197.965 187.118 198.405C187.44 198.845 187.632 199.359 187.693 199.947H186.036C185.945 199.538 185.737 199.185 185.41 198.889C185.088 198.593 184.655 198.445 184.113 198.445C183.639 198.445 183.223 198.57 182.866 198.82C182.514 199.067 182.238 199.42 182.041 199.879C181.844 200.334 181.745 200.873 181.745 201.495C181.745 202.133 181.842 202.683 182.035 203.146C182.229 203.609 182.502 203.967 182.855 204.221C183.212 204.476 183.631 204.603 184.113 204.603C184.435 204.603 184.727 204.544 184.989 204.426C185.255 204.305 185.477 204.132 185.655 203.908C185.837 203.685 185.964 203.415 186.036 203.1H187.693C187.632 203.666 187.448 204.17 187.141 204.614C186.833 205.058 186.422 205.407 185.906 205.661C185.393 205.916 184.792 206.043 184.101 206.043ZM190.079 209.144C189.825 209.144 189.594 209.124 189.385 209.082C189.176 209.044 189.021 209.002 188.918 208.957L189.328 207.562C189.639 207.646 189.916 207.682 190.159 207.67C190.402 207.659 190.616 207.568 190.802 207.397C190.992 207.226 191.159 206.948 191.303 206.561L191.514 205.98L188.315 197.124H190.136L192.35 203.908H192.441L194.655 197.124H196.482L192.88 207.033C192.713 207.488 192.5 207.873 192.242 208.188C191.984 208.507 191.677 208.746 191.32 208.905C190.963 209.065 190.55 209.144 190.079 209.144ZM200.867 195.724V194.211H209.888V195.724H206.251V205.866H204.498V195.724H200.867ZM210.328 205.866V197.124H211.973V198.513H212.064C212.224 198.043 212.504 197.673 212.906 197.403C213.312 197.13 213.772 196.994 214.284 196.994C214.39 196.994 214.515 196.997 214.659 197.005C214.807 197.013 214.923 197.022 215.007 197.033V198.661C214.938 198.642 214.817 198.621 214.642 198.598C214.468 198.572 214.293 198.559 214.119 198.559C213.717 198.559 213.358 198.644 213.043 198.815C212.732 198.982 212.485 199.215 212.303 199.515C212.121 199.811 212.03 200.148 212.03 200.528V205.866H210.328ZM218.436 206.06C217.882 206.06 217.382 205.957 216.934 205.752C216.486 205.544 216.131 205.242 215.87 204.847C215.612 204.453 215.483 203.969 215.483 203.396C215.483 202.903 215.577 202.497 215.767 202.178C215.957 201.86 216.213 201.607 216.535 201.421C216.858 201.235 217.218 201.095 217.617 201C218.015 200.905 218.421 200.833 218.835 200.784C219.358 200.723 219.783 200.674 220.11 200.636C220.436 200.594 220.673 200.528 220.821 200.437C220.969 200.346 221.043 200.198 221.043 199.993V199.953C221.043 199.456 220.903 199.071 220.622 198.798C220.345 198.524 219.931 198.388 219.381 198.388C218.808 198.388 218.357 198.515 218.027 198.769C217.7 199.02 217.474 199.298 217.349 199.606L215.75 199.242C215.94 198.71 216.217 198.282 216.581 197.955C216.949 197.625 217.372 197.386 217.85 197.238C218.328 197.086 218.831 197.011 219.358 197.011C219.707 197.011 220.077 197.052 220.468 197.136C220.863 197.215 221.231 197.363 221.572 197.58C221.917 197.796 222.2 198.105 222.42 198.507C222.64 198.906 222.75 199.424 222.75 200.061V205.866H221.088V204.671H221.02C220.91 204.891 220.745 205.107 220.525 205.32C220.305 205.532 220.022 205.709 219.677 205.849C219.332 205.99 218.918 206.06 218.436 206.06ZM218.806 204.694C219.277 204.694 219.679 204.601 220.013 204.415C220.35 204.229 220.607 203.986 220.781 203.686C220.959 203.383 221.049 203.059 221.049 202.713V201.586C220.988 201.647 220.87 201.704 220.696 201.757C220.525 201.806 220.33 201.85 220.11 201.888C219.889 201.922 219.675 201.954 219.466 201.985C219.258 202.011 219.083 202.034 218.943 202.053C218.613 202.095 218.311 202.165 218.038 202.264C217.769 202.362 217.552 202.505 217.389 202.69C217.23 202.873 217.15 203.115 217.15 203.419C217.15 203.84 217.306 204.159 217.617 204.375C217.928 204.588 218.324 204.694 218.806 204.694ZM224.508 205.866V197.124H226.21V205.866H224.508ZM225.368 195.776C225.072 195.776 224.817 195.677 224.605 195.48C224.396 195.279 224.292 195.04 224.292 194.763C224.292 194.482 224.396 194.243 224.605 194.045C224.817 193.844 225.072 193.744 225.368 193.744C225.664 193.744 225.916 193.844 226.125 194.045C226.337 194.243 226.443 194.482 226.443 194.763C226.443 195.04 226.337 195.279 226.125 195.48C225.916 195.677 225.664 195.776 225.368 195.776ZM229.129 205.974C228.818 205.974 228.55 205.864 228.326 205.644C228.103 205.42 227.991 205.151 227.991 204.836C227.991 204.525 228.103 204.259 228.326 204.039C228.55 203.815 228.818 203.704 229.129 203.704C229.44 203.704 229.707 203.815 229.931 204.039C230.155 204.259 230.267 204.525 230.267 204.836C230.267 205.045 230.214 205.236 230.108 205.411C230.005 205.582 229.869 205.718 229.698 205.821C229.527 205.923 229.338 205.974 229.129 205.974ZM233.38 205.974C233.069 205.974 232.802 205.864 232.578 205.644C232.354 205.42 232.242 205.151 232.242 204.836C232.242 204.525 232.354 204.259 232.578 204.039C232.802 203.815 233.069 203.704 233.38 203.704C233.691 203.704 233.959 203.815 234.183 204.039C234.407 204.259 234.518 204.525 234.518 204.836C234.518 205.045 234.465 205.236 234.359 205.411C234.257 205.582 234.12 205.718 233.949 205.821C233.779 205.923 233.589 205.974 233.38 205.974ZM237.637 205.974C237.326 205.974 237.059 205.864 236.835 205.644C236.611 205.42 236.499 205.151 236.499 204.836C236.499 204.525 236.611 204.259 236.835 204.039C237.059 203.815 237.326 203.704 237.637 203.704C237.948 203.704 238.216 203.815 238.44 204.039C238.664 204.259 238.776 204.525 238.776 204.836C238.776 205.045 238.722 205.236 238.616 205.411C238.514 205.582 238.377 205.718 238.206 205.821C238.036 205.923 237.846 205.974 237.637 205.974Z" fill="#292929"/>
</g>
<g id="Tag_3">
<rect x="259.28" y="191.456" width="65.0812" height="22.2518" rx="11.1259" fill="#08FF00" fill-opacity="0.15"/>
<path id="Completed_3" d="M273.491 200.879H272.39C272.348 200.644 272.269 200.437 272.154 200.258C272.039 200.08 271.898 199.928 271.731 199.803C271.564 199.679 271.377 199.585 271.17 199.521C270.965 199.458 270.748 199.426 270.517 199.426C270.101 199.426 269.728 199.53 269.399 199.74C269.072 199.949 268.813 200.256 268.623 200.66C268.435 201.065 268.341 201.559 268.341 202.142C268.341 202.73 268.435 203.226 268.623 203.631C268.813 204.035 269.073 204.341 269.402 204.548C269.732 204.755 270.102 204.858 270.514 204.858C270.742 204.858 270.958 204.828 271.163 204.767C271.37 204.703 271.557 204.61 271.724 204.488C271.891 204.366 272.032 204.216 272.147 204.04C272.265 203.861 272.346 203.657 272.39 203.426L273.491 203.43C273.432 203.785 273.318 204.112 273.149 204.41C272.982 204.707 272.767 204.963 272.503 205.179C272.242 205.393 271.944 205.559 271.607 205.677C271.271 205.794 270.904 205.853 270.507 205.853C269.881 205.853 269.324 205.705 268.835 205.409C268.345 205.11 267.96 204.683 267.677 204.128C267.398 203.573 267.258 202.911 267.258 202.142C267.258 201.371 267.399 200.709 267.681 200.156C267.963 199.601 268.349 199.175 268.838 198.879C269.327 198.58 269.883 198.431 270.507 198.431C270.89 198.431 271.247 198.486 271.579 198.597C271.913 198.705 272.213 198.865 272.479 199.077C272.744 199.286 272.964 199.542 273.138 199.846C273.312 200.147 273.43 200.491 273.491 200.879ZM276.675 205.864C276.167 205.864 275.724 205.747 275.345 205.515C274.967 205.282 274.673 204.956 274.463 204.537C274.254 204.119 274.149 203.63 274.149 203.07C274.149 202.508 274.254 202.016 274.463 201.595C274.673 201.174 274.967 200.847 275.345 200.615C275.724 200.382 276.167 200.265 276.675 200.265C277.183 200.265 277.626 200.382 278.005 200.615C278.384 200.847 278.678 201.174 278.887 201.595C279.096 202.016 279.201 202.508 279.201 203.07C279.201 203.63 279.096 204.119 278.887 204.537C278.678 204.956 278.384 205.282 278.005 205.515C277.626 205.747 277.183 205.864 276.675 205.864ZM276.679 204.978C277.008 204.978 277.281 204.891 277.497 204.717C277.714 204.543 277.873 204.312 277.977 204.022C278.083 203.733 278.136 203.414 278.136 203.066C278.136 202.721 278.083 202.403 277.977 202.114C277.873 201.822 277.714 201.588 277.497 201.412C277.281 201.235 277.008 201.147 276.679 201.147C276.347 201.147 276.072 201.235 275.853 201.412C275.637 201.588 275.476 201.822 275.37 202.114C275.266 202.403 275.215 202.721 275.215 203.066C275.215 203.414 275.266 203.733 275.37 204.022C275.476 204.312 275.637 204.543 275.853 204.717C276.072 204.891 276.347 204.978 276.679 204.978ZM280.06 205.754V200.336H281.073V201.218H281.14C281.253 200.919 281.437 200.686 281.694 200.519C281.95 200.35 282.257 200.265 282.614 200.265C282.977 200.265 283.28 200.35 283.525 200.519C283.772 200.689 283.954 200.922 284.071 201.218H284.128C284.257 200.929 284.463 200.698 284.745 200.526C285.027 200.352 285.364 200.265 285.754 200.265C286.246 200.265 286.647 200.419 286.957 200.728C287.27 201.036 287.426 201.5 287.426 202.121V205.754H286.371V202.22C286.371 201.853 286.271 201.587 286.072 201.422C285.872 201.258 285.633 201.176 285.355 201.176C285.012 201.176 284.745 201.281 284.555 201.493C284.364 201.702 284.269 201.972 284.269 202.301V205.754H283.218V202.153C283.218 201.859 283.126 201.622 282.943 201.444C282.759 201.265 282.52 201.176 282.226 201.176C282.027 201.176 281.842 201.228 281.673 201.334C281.506 201.438 281.37 201.582 281.267 201.768C281.166 201.954 281.115 202.169 281.115 202.414V205.754H280.06ZM288.522 207.786V200.336H289.552V201.214H289.64C289.701 201.101 289.79 200.971 289.905 200.823C290.02 200.675 290.18 200.545 290.385 200.435C290.589 200.322 290.86 200.265 291.196 200.265C291.633 200.265 292.024 200.376 292.367 200.597C292.71 200.818 292.98 201.137 293.175 201.553C293.373 201.969 293.471 202.47 293.471 203.056C293.471 203.641 293.374 204.143 293.178 204.562C292.983 204.978 292.715 205.299 292.374 205.525C292.033 205.749 291.644 205.86 291.207 205.86C290.877 205.86 290.608 205.805 290.399 205.694C290.192 205.584 290.029 205.455 289.912 205.306C289.794 205.158 289.704 205.027 289.64 204.911H289.577V207.786H288.522ZM289.556 203.045C289.556 203.426 289.611 203.76 289.721 204.047C289.832 204.334 289.992 204.559 290.201 204.721C290.41 204.881 290.667 204.961 290.97 204.961C291.285 204.961 291.549 204.877 291.76 204.71C291.972 204.541 292.132 204.312 292.24 204.022C292.351 203.733 292.406 203.407 292.406 203.045C292.406 202.688 292.352 202.367 292.244 202.082C292.138 201.798 291.978 201.573 291.764 201.408C291.552 201.244 291.288 201.161 290.97 201.161C290.664 201.161 290.406 201.24 290.194 201.398C289.985 201.555 289.826 201.775 289.718 202.057C289.61 202.34 289.556 202.669 289.556 203.045ZM295.39 198.53V205.754H294.335V198.53H295.39ZM298.826 205.864C298.292 205.864 297.833 205.75 297.447 205.522C297.064 205.291 296.767 204.968 296.558 204.551C296.351 204.133 296.248 203.643 296.248 203.08C296.248 202.525 296.351 202.036 296.558 201.613C296.767 201.19 297.059 200.859 297.433 200.622C297.809 200.384 298.249 200.265 298.752 200.265C299.058 200.265 299.354 200.316 299.641 200.417C299.928 200.518 300.186 200.677 300.414 200.893C300.642 201.11 300.822 201.391 300.954 201.736C301.085 202.08 301.151 202.497 301.151 202.989V203.363H296.844V202.572H300.117C300.117 202.295 300.061 202.049 299.948 201.835C299.835 201.619 299.676 201.448 299.472 201.324C299.27 201.199 299.032 201.137 298.759 201.137C298.463 201.137 298.204 201.21 297.983 201.355C297.765 201.499 297.595 201.687 297.475 201.92C297.358 202.15 297.299 202.401 297.299 202.671V203.289C297.299 203.651 297.362 203.959 297.489 204.213C297.619 204.467 297.799 204.661 298.029 204.795C298.26 204.927 298.529 204.992 298.837 204.992C299.037 204.992 299.219 204.964 299.384 204.908C299.548 204.849 299.691 204.762 299.811 204.647C299.93 204.531 300.022 204.389 300.086 204.22L301.084 204.4C301.004 204.694 300.861 204.951 300.654 205.172C300.449 205.391 300.192 205.562 299.881 205.684C299.573 205.804 299.221 205.864 298.826 205.864ZM304.533 200.336V201.183H301.573V200.336H304.533ZM302.367 199.038H303.422V204.163C303.422 204.368 303.452 204.522 303.513 204.626C303.574 204.727 303.653 204.796 303.75 204.834C303.848 204.869 303.955 204.887 304.071 204.887C304.155 204.887 304.229 204.881 304.293 204.869C304.356 204.857 304.406 204.848 304.441 204.841L304.632 205.712C304.57 205.736 304.483 205.759 304.371 205.783C304.258 205.808 304.117 205.823 303.947 205.825C303.67 205.83 303.411 205.78 303.171 205.677C302.931 205.573 302.737 205.413 302.589 205.197C302.441 204.981 302.367 204.709 302.367 204.382V199.038ZM307.659 205.864C307.125 205.864 306.665 205.75 306.279 205.522C305.896 205.291 305.6 204.968 305.39 204.551C305.184 204.133 305.08 203.643 305.08 203.08C305.08 202.525 305.184 202.036 305.39 201.613C305.6 201.19 305.891 200.859 306.265 200.622C306.642 200.384 307.081 200.265 307.585 200.265C307.89 200.265 308.187 200.316 308.474 200.417C308.761 200.518 309.018 200.677 309.246 200.893C309.474 201.11 309.654 201.391 309.786 201.736C309.918 202.08 309.983 202.497 309.983 202.989V203.363H305.676V202.572H308.95C308.95 202.295 308.893 202.049 308.781 201.835C308.668 201.619 308.509 201.448 308.304 201.324C308.102 201.199 307.865 201.137 307.592 201.137C307.295 201.137 307.037 201.21 306.816 201.355C306.597 201.499 306.428 201.687 306.308 201.92C306.19 202.15 306.131 202.401 306.131 202.671V203.289C306.131 203.651 306.195 203.959 306.322 204.213C306.451 204.467 306.631 204.661 306.862 204.795C307.092 204.927 307.361 204.992 307.669 204.992C307.869 204.992 308.052 204.964 308.216 204.908C308.381 204.849 308.523 204.762 308.643 204.647C308.763 204.531 308.855 204.389 308.918 204.22L309.916 204.4C309.836 204.694 309.693 204.951 309.486 205.172C309.281 205.391 309.024 205.562 308.714 205.684C308.405 205.804 308.054 205.864 307.659 205.864ZM312.864 205.86C312.427 205.86 312.036 205.749 311.693 205.525C311.352 205.299 311.084 204.978 310.889 204.562C310.696 204.143 310.6 203.641 310.6 203.056C310.6 202.47 310.697 201.969 310.892 201.553C311.09 201.137 311.36 200.818 311.704 200.597C312.047 200.376 312.436 200.265 312.871 200.265C313.208 200.265 313.478 200.322 313.683 200.435C313.89 200.545 314.05 200.675 314.162 200.823C314.278 200.971 314.367 201.101 314.431 201.214H314.494V198.53H315.549V205.754H314.519V204.911H314.431C314.367 205.027 314.275 205.158 314.155 205.306C314.038 205.455 313.876 205.584 313.669 205.694C313.462 205.805 313.194 205.86 312.864 205.86ZM313.097 204.961C313.4 204.961 313.657 204.881 313.866 204.721C314.078 204.559 314.238 204.334 314.346 204.047C314.456 203.76 314.512 203.426 314.512 203.045C314.512 202.669 314.458 202.34 314.349 202.057C314.241 201.775 314.082 201.555 313.873 201.398C313.664 201.24 313.405 201.161 313.097 201.161C312.78 201.161 312.515 201.244 312.303 201.408C312.092 201.573 311.932 201.798 311.824 202.082C311.718 202.367 311.665 202.688 311.665 203.045C311.665 203.407 311.719 203.733 311.827 204.022C311.935 204.312 312.095 204.541 312.307 204.71C312.521 204.877 312.784 204.961 313.097 204.961Z" fill="#093B00"/>
</g>
</g>
<rect id="Rectangle 1000001675" x="-11.0361" y="121.132" width="379.036" height="129.752" fill="url(#paint3_linear_225_4540)"/>
</g>
</g>
</g>
</g>
</g>
</g>
</g>
</g>
</g>
<defs>
<filter id="filter0_dd_225_4540" x="40.4195" y="27.3671" width="303.877" height="65.3578" filterUnits="userSpaceOnUse" color-interpolation-filters="sRGB">
<feFlood flood-opacity="0" result="BackgroundImageFix"/>
<feColorMatrix in="SourceAlpha" type="matrix" values="0 0 0 0 0 0 0 0 0 0 0 0 0 0 0 0 0 0 127 0" result="hardAlpha"/>
<feOffset dy="1.21098"/>
<feGaussianBlur stdDeviation="2.42196"/>
<feComposite in2="hardAlpha" operator="out"/>
<feColorMatrix type="matrix" values="0 0 0 0 0 0 0 0 0 0 0 0 0 0 0 0 0 0 0.04 0"/>
<feBlend mode="normal" in2="BackgroundImageFix" result="effect1_dropShadow_225_4540"/>
<feColorMatrix in="SourceAlpha" type="matrix" values="0 0 0 0 0 0 0 0 0 0 0 0 0 0 0 0 0 0 127 0" result="hardAlpha"/>
<feOffset dy="0.242197"/>
<feGaussianBlur stdDeviation="0.363295"/>
<feComposite in2="hardAlpha" operator="out"/>
<feColorMatrix type="matrix" values="0 0 0 0 0 0 0 0 0 0 0 0 0 0 0 0 0 0 0.2 0"/>
<feBlend mode="normal" in2="effect1_dropShadow_225_4540" result="effect2_dropShadow_225_4540"/>
<feBlend mode="normal" in="SourceGraphic" in2="effect2_dropShadow_225_4540" result="shape"/>
</filter>
<filter id="filter1_dd_225_4540" x="12.6655" y="98.9427" width="303.877" height="65.3578" filterUnits="userSpaceOnUse" color-interpolation-filters="sRGB">
<feFlood flood-opacity="0" result="BackgroundImageFix"/>
<feColorMatrix in="SourceAlpha" type="matrix" values="0 0 0 0 0 0 0 0 0 0 0 0 0 0 0 0 0 0 127 0" result="hardAlpha"/>
<feOffset dy="1.21098"/>
<feGaussianBlur stdDeviation="2.42196"/>
<feComposite in2="hardAlpha" operator="out"/>
<feColorMatrix type="matrix" values="0 0 0 0 0 0 0 0 0 0 0 0 0 0 0 0 0 0 0.04 0"/>
<feBlend mode="normal" in2="BackgroundImageFix" result="effect1_dropShadow_225_4540"/>
<feColorMatrix in="SourceAlpha" type="matrix" values="0 0 0 0 0 0 0 0 0 0 0 0 0 0 0 0 0 0 127 0" result="hardAlpha"/>
<feOffset dy="0.242197"/>
<feGaussianBlur stdDeviation="0.363295"/>
<feComposite in2="hardAlpha" operator="out"/>
<feColorMatrix type="matrix" values="0 0 0 0 0 0 0 0 0 0 0 0 0 0 0 0 0 0 0.2 0"/>
<feBlend mode="normal" in2="effect1_dropShadow_225_4540" result="effect2_dropShadow_225_4540"/>
<feBlend mode="normal" in="SourceGraphic" in2="effect2_dropShadow_225_4540" result="shape"/>
</filter>
<filter id="filter2_dd_225_4540" x="40.4195" y="170.518" width="303.877" height="65.3578" filterUnits="userSpaceOnUse" color-interpolation-filters="sRGB">
<feFlood flood-opacity="0" result="BackgroundImageFix"/>
<feColorMatrix in="SourceAlpha" type="matrix" values="0 0 0 0 0 0 0 0 0 0 0 0 0 0 0 0 0 0 127 0" result="hardAlpha"/>
<feOffset dy="1.21098"/>
<feGaussianBlur stdDeviation="2.42196"/>
<feComposite in2="hardAlpha" operator="out"/>
<feColorMatrix type="matrix" values="0 0 0 0 0 0 0 0 0 0 0 0 0 0 0 0 0 0 0.04 0"/>
<feBlend mode="normal" in2="BackgroundImageFix" result="effect1_dropShadow_225_4540"/>
<feColorMatrix in="SourceAlpha" type="matrix" values="0 0 0 0 0 0 0 0 0 0 0 0 0 0 0 0 0 0 127 0" result="hardAlpha"/>
<feOffset dy="0.242197"/>
<feGaussianBlur stdDeviation="0.363295"/>
<feComposite in2="hardAlpha" operator="out"/>
<feColorMatrix type="matrix" values="0 0 0 0 0 0 0 0 0 0 0 0 0 0 0 0 0 0 0.2 0"/>
<feBlend mode="normal" in2="effect1_dropShadow_225_4540" result="effect2_dropShadow_225_4540"/>
<feBlend mode="normal" in="SourceGraphic" in2="effect2_dropShadow_225_4540" result="shape"/>
</filter>
<linearGradient id="paint0_linear_225_4540" x1="192.358" y1="31" x2="192.358" y2="86.67" gradientUnits="userSpaceOnUse">
<stop stop-color="#E7E7E7" stop-opacity="0.6"/>
<stop offset="1" stop-color="white" stop-opacity="0"/>
</linearGradient>
<linearGradient id="paint1_linear_225_4540" x1="164.604" y1="102.576" x2="164.604" y2="158.246" gradientUnits="userSpaceOnUse">
<stop stop-color="#E7E7E7" stop-opacity="0.6"/>
<stop offset="1" stop-color="white" stop-opacity="0"/>
</linearGradient>
<linearGradient id="paint2_linear_225_4540" x1="192.358" y1="174.151" x2="192.358" y2="229.821" gradientUnits="userSpaceOnUse">
<stop stop-color="#E7E7E7" stop-opacity="0.6"/>
<stop offset="1" stop-color="white" stop-opacity="0"/>
</linearGradient>
<linearGradient id="paint3_linear_225_4540" x1="178.482" y1="121.132" x2="178.482" y2="250.884" gradientUnits="userSpaceOnUse">
<stop stop-color="white" stop-opacity="0"/>
<stop offset="1" stop-color="white"/>
</linearGradient>
<clipPath id="clip0_225_4540">
<rect width="324" height="246" rx="9.53264" fill="white"/>
</clipPath>
<clipPath id="clip1_225_4540">
<rect width="14.8345" height="14.8345" fill="white" transform="translate(69.3324 49.0132)"/>
</clipPath>
<clipPath id="clip2_225_4540">
<rect width="14.8345" height="14.8345" fill="white" transform="translate(69.3328 49.0132)"/>
</clipPath>
<clipPath id="clip3_225_4540">
<rect width="16.9538" height="16.9538" fill="white" transform="translate(40.5184 119.529)"/>
</clipPath>
<clipPath id="clip4_225_4540">
<rect width="16.9538" height="16.9538" fill="white" transform="translate(40.5186 119.529)"/>
</clipPath>
<clipPath id="clip5_225_4540">
<rect width="14.8345" height="14.8345" fill="white" transform="translate(69.3324 192.166)"/>
</clipPath>
<clipPath id="clip6_225_4540">
<rect width="14.8345" height="14.8345" fill="white" transform="translate(69.3328 192.166)"/>
</clipPath>
<clipPath id="clip7_225_4540">
<rect width="14.8345" height="14.8345" fill="white" transform="translate(69.3331 192.166)"/>
</clipPath>
</defs>
</svg>
