<svg width="324" height="246" viewBox="0 0 324 246" fill="none" xmlns="http://www.w3.org/2000/svg">
<rect width="324" height="246" fill="#FFFFFF"/>
<g id="LMS Landing Page">
<path d="M-3777 -5239.3C-3777 -5240.41 -3776.1 -5241.3 -3775 -5241.3H6374C6375.1 -5241.3 6376 -5240.41 6376 -5239.3V7156.7C6376 7157.8 6375.1 7158.7 6374 7158.7H-3775C-3776.1 7158.7 -3777 7157.8 -3777 7156.7V-5239.3Z" fill="#DFDFDF"/>
<path d="M-3775 -5241.3V-5240.3H6374V-5241.3V-5242.3H-3775V-5241.3ZM6376 -5239.3H6375V7156.7H6376H6377V-5239.3H6376ZM6374 7158.7V7157.7H-3775V7158.7V7159.7H6374V7158.7ZM-3777 7156.7H-3776V-5239.3H-3777H-3778V7156.7H-3777ZM-3775 7158.7V7157.7C-3775.55 7157.7 -3776 7157.25 -3776 7156.7H-3777H-3778C-3778 7158.35 -3776.66 7159.7 -3775 7159.7V7158.7ZM6376 7156.7H6375C6375 7157.25 6374.55 7157.7 6374 7157.7V7158.7V7159.7C6375.66 7159.7 6377 7158.35 6377 7156.7H6376ZM6374 -5241.3V-5240.3C6374.55 -5240.3 6375 -5239.86 6375 -5239.3H6376H6377C6377 -5240.96 6375.66 -5242.3 6374 -5242.3V-5241.3ZM-3775 -5241.3V-5242.3C-3776.66 -5242.3 -3778 -5240.96 -3778 -5239.3H-3777H-3776C-3776 -5239.86 -3775.55 -5240.3 -3775 -5240.3V-5241.3Z" fill="black" fill-opacity="0.1"/>
<g id="Theraptly - 1440w">
<rect width="1440" height="8097.49" transform="translate(-966 -3654.3)" fill="#F6F5F3"/>
<g id="Our Solution">
<rect width="1440" height="1565.5" transform="translate(-966 -486)" fill="white"/>
<g id="Frame 2147207152">
<g id="Container">
<g id="Background+Border">
<rect x="-29.5" y="-262.5" width="383" height="538" rx="15.5" fill="#FAFAFA"/>
<rect x="-29.5" y="-262.5" width="383" height="538" rx="15.5" stroke="#FFF8EA"/>
<g id="Container image">
<g clip-path="url(#clip0_225_4540)">
<rect width="324" height="246" rx="9.53264" fill="white"/>
<g id="Group 2087331483">
<g id="Group" opacity="0.02">
<g id="Group_2" filter="url(#filter0_f_225_4540)">
<path id="Vector" d="M305.551 -34.9014L340.95 0.497221L231.167 110.28L195.768 74.8819L305.551 -34.9014Z" fill="url(#paint0_linear_225_4540)"/>
</g>
<g id="Group_3" filter="url(#filter1_f_225_4540)">
<path id="Vector_2" d="M340.905 -34.9014L376.304 0.497192L266.521 110.28L231.122 74.8819L340.905 -34.9014Z" fill="url(#paint1_linear_225_4540)"/>
</g>
<g id="Group_4" filter="url(#filter2_f_225_4540)">
<path id="Vector_3" d="M356.586 4.36328L391.985 39.7619L282.201 149.545L246.803 114.147L356.586 4.36328Z" fill="url(#paint2_linear_225_4540)"/>
</g>
<g id="Group_5" filter="url(#filter3_f_225_4540)">
<path id="Vector_4" d="M365.601 47.106L401 82.5045L291.216 192.288L255.818 156.889L365.601 47.106Z" fill="url(#paint3_linear_225_4540)"/>
</g>
<g id="Group_6" filter="url(#filter4_f_225_4540)">
<path id="Vector_5" d="M356.586 -14.2051L391.985 21.1935L282.202 130.977L246.803 95.5782L356.586 -14.2051Z" fill="url(#paint4_linear_225_4540)"/>
</g>
</g>
<g id="Group 1707483567">
<path id="Results" d="M21.5704 40.8027V27.8586H26.4961C27.8803 27.8586 28.9778 28.2206 29.7886 28.9445C30.5994 29.6685 31.0048 30.6501 31.0048 31.8895C31.0048 32.793 30.7732 33.5633 30.3098 34.2004C29.8465 34.8316 29.2123 35.2921 28.4073 35.5816L31.2046 40.8027H29.0328L26.4527 35.9031C26.4237 35.9031 26.3948 35.9031 26.3658 35.9031H23.499V40.8027H21.5704ZM23.499 34.2612H26.4179C27.2519 34.2612 27.9064 34.0498 28.3813 33.627C28.862 33.1984 29.1023 32.6193 29.1023 31.8895C29.1023 31.1598 28.862 30.5835 28.3813 30.1608C27.9006 29.738 27.2432 29.5266 26.4092 29.5266H23.499V34.2612ZM36.3215 41.0112C35.4122 41.0112 34.6303 40.8056 33.9759 40.3944C33.3272 39.9832 32.8263 39.4186 32.473 38.7004C32.1255 37.9765 31.9518 37.1541 31.9518 36.2332C31.9518 35.3008 32.1342 34.4726 32.4991 33.7486C32.8639 33.0247 33.3678 32.4571 34.0106 32.0459C34.6535 31.6289 35.3919 31.4204 36.2259 31.4204C37.0946 31.4204 37.8476 31.6231 38.4846 32.0285C39.1275 32.4339 39.6256 32.9986 39.9788 33.7226C40.3321 34.4407 40.5088 35.2718 40.5088 36.2158V36.711H33.7587C33.7935 37.5392 34.0309 38.2081 34.4711 38.7178C34.917 39.2274 35.5425 39.4823 36.3475 39.4823C36.9499 39.4823 37.445 39.3462 37.8331 39.074C38.2211 38.8018 38.4788 38.4485 38.6062 38.0141H40.3698C40.2597 38.6048 40.0136 39.1261 39.6313 39.5778C39.2549 40.0296 38.78 40.3828 38.2066 40.6377C37.6391 40.8867 37.0107 41.0112 36.3215 41.0112ZM33.7761 35.321H38.7192C38.6439 34.5913 38.3862 34.015 37.946 33.5923C37.5058 33.1637 36.9383 32.9494 36.2433 32.9494C35.5483 32.9494 34.9807 33.1637 34.5406 33.5923C34.1062 34.015 33.8514 34.5913 33.7761 35.321ZM45.4953 41.0199C44.7945 41.0199 44.1632 40.907 43.6015 40.6811C43.0397 40.4552 42.585 40.1193 42.2375 39.6734C41.8958 39.2274 41.7047 38.6743 41.6642 38.0141H43.4711C43.5754 39.045 44.2385 39.5604 45.4605 39.5604C46.0397 39.5604 46.4972 39.4417 46.8331 39.2043C47.1748 38.9668 47.3457 38.6657 47.3457 38.3008C47.3457 37.988 47.2241 37.739 46.9808 37.5537C46.7376 37.3626 46.419 37.2236 46.0252 37.1367L44.5049 36.7979C42.7501 36.4156 41.8727 35.5411 41.8727 34.1743C41.8727 33.3635 42.1941 32.7032 42.837 32.1936C43.4856 31.6839 44.3341 31.4291 45.3824 31.4291C46.419 31.4291 47.2704 31.6984 47.9364 32.237C48.6083 32.7699 48.9557 33.4996 48.9789 34.4262H47.2241C47.2183 33.9803 47.0503 33.6125 46.7202 33.3229C46.3901 33.0276 45.9528 32.8799 45.4084 32.8799C44.8872 32.8799 44.4731 33.0015 44.1661 33.2448C43.8592 33.488 43.7057 33.7863 43.7057 34.1396C43.7057 34.4523 43.8215 34.7042 44.0532 34.8954C44.2907 35.0865 44.615 35.2284 45.0262 35.321L46.5899 35.6685C47.4818 35.8654 48.1391 36.1695 48.5619 36.5807C48.9847 36.9919 49.1961 37.5305 49.1961 38.1965C49.1961 38.7815 49.0339 39.2853 48.7096 39.7081C48.3911 40.1251 47.9538 40.4494 47.3978 40.6811C46.8418 40.907 46.2077 41.0199 45.4953 41.0199ZM54.1392 40.9852C53.5137 40.9852 52.949 40.8491 52.4452 40.5769C51.9471 40.2989 51.5504 39.8906 51.255 39.352C50.9654 38.8133 50.8206 38.1444 50.8206 37.3452V31.6289H52.6537V37.1193C52.6537 37.8548 52.8303 38.4108 53.1836 38.7873C53.5369 39.1579 54.032 39.3433 54.6691 39.3433C55.2888 39.3433 55.8101 39.1521 56.2328 38.7699C56.6614 38.3819 56.8757 37.7622 56.8757 36.9108V31.6289H58.7087V40.8027H56.9104V39.4214C56.285 40.4639 55.3612 40.9852 54.1392 40.9852ZM62.6093 27.8586V40.8027H60.7763V27.8586H62.6093ZM69.1943 31.6289V33.1405H67.3352V38.379C67.3352 38.7207 67.4047 38.9581 67.5437 39.0913C67.6827 39.2245 67.9347 39.2911 68.2995 39.2911H69.1943V40.8027H68.0389C66.342 40.8027 65.4935 40.073 65.4935 38.6135V33.1405H63.8777V31.6289H65.4935V29.127H67.3352V31.6289H69.1943ZM73.8855 41.0199C73.1847 41.0199 72.5534 40.907 71.9916 40.6811C71.4299 40.4552 70.9752 40.1193 70.6277 39.6734C70.286 39.2274 70.0949 38.6743 70.0544 38.0141H71.8613C71.9656 39.045 72.6287 39.5604 73.8507 39.5604C74.4299 39.5604 74.8874 39.4417 75.2233 39.2043C75.565 38.9668 75.7359 38.6657 75.7359 38.3008C75.7359 37.988 75.6143 37.739 75.371 37.5537C75.1278 37.3626 74.8092 37.2236 74.4154 37.1367L72.8951 36.7979C71.1403 36.4156 70.2629 35.5411 70.2629 34.1743C70.2629 33.3635 70.5843 32.7032 71.2272 32.1936C71.8758 31.6839 72.7243 31.4291 73.7726 31.4291C74.8092 31.4291 75.6606 31.6984 76.3266 32.237C76.9984 32.7699 77.3459 33.4996 77.3691 34.4262H75.6143C75.6085 33.9803 75.4405 33.6125 75.1104 33.3229C74.7803 33.0276 74.343 32.8799 73.7986 32.8799C73.2774 32.8799 72.8633 33.0015 72.5563 33.2448C72.2494 33.488 72.0959 33.7863 72.0959 34.1396C72.0959 34.4523 72.2117 34.7042 72.4434 34.8954C72.6808 35.0865 73.0052 35.2284 73.4164 35.321L74.9801 35.6685C75.872 35.8654 76.5293 36.1695 76.9521 36.5807C77.3749 36.9919 77.5863 37.5305 77.5863 38.1965C77.5863 38.7815 77.4241 39.2853 77.0998 39.7081C76.7813 40.1251 76.344 40.4494 75.788 40.6811C75.232 40.907 74.5978 41.0199 73.8855 41.0199Z" fill="#292929"/>
</g>
<g id="Wrapper" filter="url(#filter5_dd_225_4540)">
<rect x="20.3889" y="177.593" width="100.75" height="54.1064" rx="5.59722" fill="white"/>
<rect x="20.4822" y="177.687" width="100.563" height="53.9199" rx="5.50393" stroke="black" stroke-opacity="0.06" stroke-width="0.186574"/>
<g id="Group 1707483581">
<path id="Course Completed" d="M28.0871 223.387C27.2694 223.387 26.5529 223.192 25.9376 222.803C25.3224 222.41 24.842 221.87 24.4967 221.183C24.1553 220.493 23.9846 219.703 23.9846 218.814C23.9846 217.917 24.1553 217.125 24.4967 216.438C24.8381 215.747 25.3164 215.207 25.9317 214.818C26.5509 214.425 27.2694 214.229 28.0871 214.229C28.7064 214.229 29.272 214.352 29.7841 214.598C30.2962 214.84 30.7229 215.187 31.0643 215.64C31.4096 216.089 31.6359 216.622 31.7431 217.242H30.6475C30.5046 216.595 30.2029 216.098 29.7424 215.753C29.2859 215.404 28.7342 215.229 28.0871 215.229C27.4639 215.229 26.926 215.382 26.4735 215.688C26.021 215.989 25.6717 216.41 25.4256 216.95C25.1795 217.486 25.0564 218.107 25.0564 218.814C25.0564 219.516 25.1795 220.136 25.4256 220.671C25.6717 221.207 26.021 221.628 26.4735 221.934C26.926 222.235 27.4639 222.386 28.0871 222.386C28.7262 222.386 29.276 222.214 29.7365 221.868C30.197 221.523 30.5026 221.029 30.6534 220.386H31.7431C31.6359 221.001 31.4116 221.533 31.0703 221.981C30.7289 222.43 30.3002 222.777 29.7841 223.023C29.272 223.265 28.7064 223.387 28.0871 223.387ZM35.2156 223.387C34.6361 223.387 34.126 223.248 33.6854 222.97C33.2487 222.688 32.9073 222.301 32.6612 221.809C32.4191 221.316 32.298 220.751 32.298 220.112C32.298 219.469 32.4191 218.899 32.6612 218.403C32.9073 217.907 33.2487 217.518 33.6854 217.236C34.126 216.954 34.6361 216.813 35.2156 216.813C35.7992 216.813 36.3092 216.954 36.7459 217.236C37.1825 217.518 37.5219 217.907 37.7641 218.403C38.0102 218.899 38.1332 219.469 38.1332 220.112C38.1332 220.751 38.0102 221.316 37.7641 221.809C37.5219 222.301 37.1825 222.688 36.7459 222.97C36.3092 223.248 35.7992 223.387 35.2156 223.387ZM35.2156 222.47C35.8111 222.47 36.2755 222.255 36.6089 221.827C36.9424 221.394 37.1091 220.822 37.1091 220.112C37.1091 219.393 36.9404 218.818 36.603 218.385C36.2695 217.948 35.8071 217.73 35.2156 217.73C34.6242 217.73 34.1597 217.946 33.8223 218.379C33.4889 218.812 33.3222 219.389 33.3222 220.112C33.3222 220.826 33.4889 221.398 33.8223 221.827C34.1558 222.255 34.6202 222.47 35.2156 222.47ZM41.2307 223.363C40.8099 223.363 40.4229 223.271 40.0696 223.089C39.7203 222.902 39.4404 222.624 39.23 222.255C39.0236 221.882 38.9204 221.418 38.9204 220.862V216.956H39.9326V220.79C39.9326 221.334 40.0636 221.745 40.3256 222.023C40.5876 222.297 40.9528 222.434 41.4212 222.434C41.8817 222.434 42.2727 222.293 42.5942 222.011C42.9157 221.729 43.0765 221.271 43.0765 220.636V216.956H44.0887V223.244H43.1003V222.321C42.882 222.678 42.6141 222.942 42.2965 223.113C41.9829 223.279 41.6276 223.363 41.2307 223.363ZM45.1974 223.244V216.956H46.162V217.944H46.1858C46.301 217.619 46.4836 217.357 46.7336 217.158C46.9837 216.96 47.3052 216.861 47.6982 216.861C47.7895 216.861 47.8729 216.865 47.9483 216.873C48.0277 216.88 48.0872 216.888 48.1269 216.896V217.909C48.0872 217.897 48.0098 217.883 47.8947 217.867C47.7836 217.847 47.6546 217.837 47.5077 217.837C47.1584 217.837 46.8547 217.96 46.5967 218.206C46.3387 218.452 46.2097 218.841 46.2097 219.373V223.244H45.1974ZM50.9266 223.387C50.4781 223.387 50.0712 223.313 49.706 223.166C49.3408 223.019 49.0451 222.797 48.8188 222.499C48.5926 222.198 48.4655 221.819 48.4377 221.362H49.4381C49.5095 222.132 49.9978 222.517 50.9028 222.517C51.3395 222.517 51.6828 222.426 51.9329 222.243C52.187 222.061 52.314 221.83 52.314 221.553C52.314 221.314 52.2267 221.124 52.052 220.981C51.8774 220.838 51.6491 220.735 51.3673 220.671L50.355 220.433C49.1721 220.155 48.5806 219.56 48.5806 218.647C48.5806 218.29 48.6759 217.974 48.8665 217.7C49.061 217.422 49.3289 217.206 49.6703 217.051C50.0156 216.892 50.4126 216.813 50.8612 216.813C51.2978 216.813 51.6888 216.896 52.0342 217.063C52.3835 217.226 52.6594 217.458 52.8618 217.76C53.0682 218.061 53.1774 218.421 53.1893 218.837H52.2009C52.1969 218.504 52.0738 218.228 51.8317 218.01C51.5896 217.791 51.266 217.682 50.8612 217.682C50.4761 217.682 50.1685 217.776 49.9382 217.962C49.708 218.149 49.5929 218.377 49.5929 218.647C49.5929 218.885 49.6802 219.078 49.8549 219.224C50.0295 219.367 50.2677 219.475 50.5694 219.546L51.5816 219.784C52.185 219.927 52.6276 220.141 52.9094 220.427C53.1913 220.709 53.3322 221.076 53.3322 221.529C53.3322 221.918 53.227 222.251 53.0166 222.529C52.8062 222.807 52.5184 223.019 52.1532 223.166C51.792 223.313 51.3831 223.387 50.9266 223.387ZM56.7273 223.387C56.1121 223.387 55.5861 223.246 55.1494 222.964C54.7168 222.682 54.3853 222.295 54.1551 221.803C53.9248 221.307 53.8097 220.743 53.8097 220.112C53.8097 219.473 53.9308 218.905 54.1729 218.409C54.4151 217.913 54.7505 217.524 55.1792 217.242C55.6079 216.956 56.1001 216.813 56.6559 216.813C57.2394 216.813 57.7455 216.952 58.1742 217.23C58.6029 217.508 58.9324 217.895 59.1626 218.391C59.3968 218.887 59.5139 219.461 59.5139 220.112V220.392H54.81C54.8339 221.007 55.0105 221.507 55.34 221.892C55.6694 222.277 56.1319 222.47 56.7273 222.47C57.1759 222.47 57.5411 222.366 57.8229 222.16C58.1087 221.954 58.2993 221.688 58.3945 221.362H59.4068C59.3274 221.763 59.1626 222.116 58.9126 222.422C58.6625 222.724 58.3489 222.96 57.9718 223.131C57.5986 223.301 57.1838 223.387 56.7273 223.387ZM54.822 219.522H58.5017C58.4461 218.97 58.2536 218.532 57.9241 218.206C57.5947 217.881 57.1719 217.718 56.6559 217.718C56.1398 217.718 55.7191 217.881 55.3936 218.206C55.0681 218.532 54.8775 218.97 54.822 219.522ZM66.8222 223.387C66.0045 223.387 65.288 223.192 64.6727 222.803C64.0575 222.41 63.5771 221.87 63.2318 221.183C62.8904 220.493 62.7197 219.703 62.7197 218.814C62.7197 217.917 62.8904 217.125 63.2318 216.438C63.5732 215.747 64.0515 215.207 64.6668 214.818C65.286 214.425 66.0045 214.229 66.8222 214.229C67.4415 214.229 68.0072 214.352 68.5192 214.598C69.0313 214.84 69.458 215.187 69.7994 215.64C70.1448 216.089 70.371 216.622 70.4782 217.242H69.3826C69.2397 216.595 68.938 216.098 68.4775 215.753C68.021 215.404 67.4693 215.229 66.8222 215.229C66.199 215.229 65.6612 215.382 65.2086 215.688C64.7561 215.989 64.4068 216.41 64.1607 216.95C63.9146 217.486 63.7915 218.107 63.7915 218.814C63.7915 219.516 63.9146 220.136 64.1607 220.671C64.4068 221.207 64.7561 221.628 65.2086 221.934C65.6612 222.235 66.199 222.386 66.8222 222.386C67.4613 222.386 68.0111 222.214 68.4716 221.868C68.9321 221.523 69.2377 221.029 69.3886 220.386H70.4782C70.371 221.001 70.1467 221.533 69.8054 221.981C69.464 222.43 69.0353 222.777 68.5192 223.023C68.0072 223.265 67.4415 223.387 66.8222 223.387ZM73.9507 223.387C73.3712 223.387 72.8611 223.248 72.4205 222.97C71.9838 222.688 71.6425 222.301 71.3963 221.809C71.1542 221.316 71.0331 220.751 71.0331 220.112C71.0331 219.469 71.1542 218.899 71.3963 218.403C71.6425 217.907 71.9838 217.518 72.4205 217.236C72.8611 216.954 73.3712 216.813 73.9507 216.813C74.5343 216.813 75.0444 216.954 75.481 217.236C75.9177 217.518 76.257 217.907 76.4992 218.403C76.7453 218.899 76.8684 219.469 76.8684 220.112C76.8684 220.751 76.7453 221.316 76.4992 221.809C76.257 222.301 75.9177 222.688 75.481 222.97C75.0444 223.248 74.5343 223.387 73.9507 223.387ZM73.9507 222.47C74.5462 222.47 75.0106 222.255 75.3441 221.827C75.6775 221.394 75.8442 220.822 75.8442 220.112C75.8442 219.393 75.6755 218.818 75.3381 218.385C75.0047 217.948 74.5422 217.73 73.9507 217.73C73.3593 217.73 72.8948 217.946 72.5574 218.379C72.224 218.812 72.0573 219.389 72.0573 220.112C72.0573 220.826 72.224 221.398 72.5574 221.827C72.8909 222.255 73.3553 222.47 73.9507 222.47ZM77.6555 223.244V216.956H78.6439V217.974C78.8424 217.605 79.1064 217.323 79.4358 217.129C79.7653 216.934 80.1226 216.837 80.5076 216.837C80.9363 216.837 81.3115 216.946 81.633 217.164C81.9545 217.383 82.1808 217.651 82.3118 217.968C82.4825 217.647 82.7385 217.379 83.0799 217.164C83.4213 216.946 83.8262 216.837 84.2946 216.837C84.6796 216.837 85.0289 216.92 85.3425 217.087C85.6601 217.254 85.9122 217.506 86.0987 217.843C86.2893 218.181 86.3845 218.607 86.3845 219.123V223.244H85.3723V219.123C85.3723 218.635 85.2353 218.288 84.9614 218.081C84.6875 217.871 84.37 217.766 84.0088 217.766C83.5483 217.766 83.1851 217.907 82.9191 218.188C82.6571 218.466 82.5261 218.818 82.5261 219.242V223.244H81.5139V219.016C81.5139 218.639 81.3869 218.337 81.1328 218.111C80.8827 217.881 80.5672 217.766 80.1861 217.766C79.9241 217.766 79.676 217.827 79.4418 217.95C79.2116 218.073 79.025 218.258 78.8821 218.504C78.7392 218.746 78.6677 219.048 78.6677 219.409V223.244H77.6555ZM87.4932 225.733V216.956H88.4816V217.885H88.4935C88.696 217.531 88.9758 217.269 89.3331 217.099C89.6904 216.924 90.0734 216.837 90.4823 216.837C91.0301 216.837 91.5084 216.974 91.9173 217.248C92.3261 217.522 92.6437 217.905 92.87 218.397C93.0962 218.885 93.2093 219.453 93.2093 220.1C93.2093 220.743 93.0962 221.31 92.87 221.803C92.6437 222.291 92.3261 222.674 91.9173 222.952C91.5084 223.226 91.0301 223.363 90.4823 223.363C90.0734 223.363 89.7003 223.275 89.3629 223.101C89.0255 222.922 88.7436 222.652 88.5174 222.291H88.5054V225.733H87.4932ZM90.3275 222.452C90.8713 222.452 91.3159 222.253 91.6612 221.856C92.0105 221.455 92.1852 220.87 92.1852 220.1C92.1852 219.33 92.0105 218.744 91.6612 218.343C91.3159 217.942 90.8713 217.742 90.3275 217.742C89.7439 217.742 89.2795 217.958 88.9342 218.391C88.5928 218.82 88.4221 219.389 88.4221 220.1C88.4221 220.81 88.5928 221.38 88.9342 221.809C89.2795 222.237 89.7439 222.452 90.3275 222.452ZM95.0087 214.372V223.244H93.9965V214.372H95.0087ZM98.7135 223.387C98.0982 223.387 97.5723 223.246 97.1356 222.964C96.7029 222.682 96.3715 222.295 96.1412 221.803C95.911 221.307 95.7959 220.743 95.7959 220.112C95.7959 219.473 95.917 218.905 96.1591 218.409C96.4012 217.913 96.7367 217.524 97.1654 217.242C97.5941 216.956 98.0863 216.813 98.642 216.813C99.2256 216.813 99.7317 216.952 100.16 217.23C100.589 217.508 100.919 217.895 101.149 218.391C101.383 218.887 101.5 219.461 101.5 220.112V220.392H96.7962C96.82 221.007 96.9967 221.507 97.3261 221.892C97.6556 222.277 98.1181 222.47 98.7135 222.47C99.1621 222.47 99.5273 222.366 99.8091 222.16C100.095 221.954 100.285 221.688 100.381 221.362H101.393C101.314 221.763 101.149 222.116 100.899 222.422C100.649 222.724 100.335 222.96 99.9579 223.131C99.5848 223.301 99.17 223.387 98.7135 223.387ZM96.8081 219.522H100.488C100.432 218.97 100.24 218.532 99.9103 218.206C99.5808 217.881 99.1581 217.718 98.642 217.718C98.126 217.718 97.7052 217.881 97.3797 218.206C97.0542 218.532 96.8637 218.97 96.8081 219.522ZM105.008 216.956V217.825H103.734V221.719C103.734 221.961 103.784 222.132 103.883 222.231C103.986 222.327 104.167 222.374 104.425 222.374H105.008V223.244H104.33C103.258 223.244 102.722 222.771 102.722 221.827V217.825H101.603V216.956H102.722V215.241H103.734V216.956H105.008ZM108.147 223.387C107.532 223.387 107.006 223.246 106.57 222.964C106.137 222.682 105.805 222.295 105.575 221.803C105.345 221.307 105.23 220.743 105.23 220.112C105.23 219.473 105.351 218.905 105.593 218.409C105.835 217.913 106.171 217.524 106.599 217.242C107.028 216.956 107.52 216.813 108.076 216.813C108.66 216.813 109.166 216.952 109.594 217.23C110.023 217.508 110.353 217.895 110.583 218.391C110.817 218.887 110.934 219.461 110.934 220.112V220.392H106.23C106.254 221.007 106.431 221.507 106.76 221.892C107.09 222.277 107.552 222.47 108.147 222.47C108.596 222.47 108.961 222.366 109.243 222.16C109.529 221.954 109.719 221.688 109.815 221.362H110.827C110.748 221.763 110.583 222.116 110.333 222.422C110.083 222.724 109.769 222.96 109.392 223.131C109.019 223.301 108.604 223.387 108.147 223.387ZM106.242 219.522H109.922C109.866 218.97 109.674 218.532 109.344 218.206C109.015 217.881 108.592 217.718 108.076 217.718C107.56 217.718 107.139 217.881 106.814 218.206C106.488 218.532 106.298 218.97 106.242 219.522ZM114.103 223.363C113.559 223.363 113.081 223.226 112.668 222.952C112.259 222.674 111.942 222.291 111.715 221.803C111.489 221.31 111.376 220.743 111.376 220.1C111.376 219.453 111.489 218.885 111.715 218.397C111.942 217.905 112.259 217.522 112.668 217.248C113.081 216.974 113.559 216.837 114.103 216.837C114.512 216.837 114.891 216.924 115.24 217.099C115.59 217.269 115.865 217.531 116.068 217.885H116.08V214.372H117.092V223.244H116.104V222.291H116.092C115.865 222.652 115.58 222.922 115.234 223.101C114.889 223.275 114.512 223.363 114.103 223.363ZM114.258 222.452C114.841 222.452 115.304 222.237 115.645 221.809C115.99 221.38 116.163 220.81 116.163 220.1C116.163 219.389 115.99 218.82 115.645 218.391C115.304 217.958 114.841 217.742 114.258 217.742C113.714 217.742 113.267 217.942 112.918 218.343C112.573 218.744 112.4 219.33 112.4 220.1C112.4 220.87 112.573 221.455 112.918 221.856C113.267 222.253 113.714 222.452 114.258 222.452Z" fill="black"/>
<path id="43.50%" d="M23.9355 199.155V197.348L29.7994 189.112H32.6228V197.304H34.4124V199.155H32.6228V202.056H30.4423V199.155H23.9355ZM30.4423 197.304V191.397H30.4336L26.2463 197.287V197.304H30.4423ZM40.0148 202.265C39.0013 202.265 38.1355 202.071 37.4173 201.683C36.705 201.289 36.1577 200.759 35.7754 200.093C35.399 199.427 35.2107 198.68 35.2107 197.851H37.4434C37.4434 198.662 37.6664 199.294 38.1123 199.745C38.5641 200.191 39.1895 200.414 39.9888 200.414C40.7417 200.414 41.3527 200.223 41.8218 199.841C42.2967 199.459 42.5342 198.949 42.5342 198.312C42.5342 197.715 42.2793 197.235 41.7697 196.87C41.2658 196.505 40.5998 196.323 39.7716 196.323H38.6596V194.559H39.7716C40.5187 194.559 41.1152 194.394 41.5612 194.064C42.0071 193.734 42.2301 193.291 42.2301 192.735C42.2301 192.121 42.0216 191.631 41.6046 191.266C41.1876 190.902 40.6403 190.719 39.9627 190.719C39.2619 190.719 38.703 190.922 38.2861 191.327C37.8691 191.727 37.6606 192.271 37.6606 192.961H35.48C35.48 192.173 35.6654 191.475 36.036 190.867C36.4125 190.253 36.9366 189.772 37.6084 189.425C38.2803 189.077 39.0679 188.904 39.9714 188.904C40.8228 188.904 41.5815 189.06 42.2475 189.373C42.9135 189.68 43.4376 190.105 43.8199 190.65C44.2079 191.194 44.4019 191.82 44.4019 192.526C44.4019 193.227 44.179 193.826 43.733 194.324C43.2871 194.823 42.7021 195.158 41.9782 195.332V195.358C42.8585 195.48 43.5477 195.827 44.0458 196.401C44.5496 196.968 44.8016 197.637 44.8016 198.407C44.8016 199.155 44.596 199.821 44.1848 200.406C43.7736 200.985 43.2089 201.439 42.4907 201.769C41.7726 202.1 40.9473 202.265 40.0148 202.265ZM46.8161 202.213C46.4397 202.213 46.1212 202.082 45.8605 201.822C45.5999 201.555 45.4696 201.237 45.4696 200.866C45.4696 200.49 45.5999 200.171 45.8605 199.91C46.1212 199.65 46.4397 199.519 46.8161 199.519C47.1926 199.519 47.5111 199.65 47.7717 199.91C48.0324 200.171 48.1627 200.49 48.1627 200.866C48.1627 201.237 48.0324 201.555 47.7717 201.822C47.5111 202.082 47.1926 202.213 46.8161 202.213ZM53.6261 202.239C52.7342 202.239 51.9408 202.068 51.2458 201.726C50.5566 201.379 50.0064 200.898 49.5952 200.284C49.1898 199.67 48.9668 198.961 48.9263 198.156H51.1242C51.1705 198.804 51.4253 199.34 51.8887 199.763C52.3578 200.185 52.9398 200.397 53.6348 200.397C54.3646 200.397 54.9524 200.154 55.3983 199.667C55.8501 199.175 56.076 198.546 56.076 197.782C56.076 197.018 55.8559 196.389 55.4157 195.897C54.9814 195.405 54.4109 195.158 53.7043 195.158C53.0904 195.158 52.5634 195.286 52.1232 195.541C51.6889 195.79 51.3877 196.149 51.2197 196.618H49.1L49.5083 189.112H57.5181V191.015H51.5499L51.2892 194.455H51.3066C52.019 193.708 52.9427 193.334 54.0779 193.334C54.8655 193.334 55.575 193.525 56.2063 193.907C56.8375 194.29 57.3385 194.814 57.7092 195.48C58.0798 196.14 58.2652 196.89 58.2652 197.73C58.2652 198.61 58.0711 199.392 57.6831 200.075C57.3009 200.753 56.7623 201.283 56.0673 201.665C55.3723 202.047 54.5586 202.239 53.6261 202.239ZM64.1804 202.265C63.1379 202.265 62.2402 201.992 61.4873 201.448C60.7344 200.904 60.1523 200.133 59.7411 199.137C59.3357 198.141 59.133 196.96 59.133 195.593C59.133 194.22 59.3357 193.036 59.7411 192.04C60.1523 191.038 60.7344 190.265 61.4873 189.72C62.2402 189.176 63.1379 188.904 64.1804 188.904C65.2228 188.904 66.1205 189.176 66.8734 189.72C67.6321 190.265 68.2142 191.038 68.6196 192.04C69.025 193.036 69.2277 194.22 69.2277 195.593C69.2277 196.96 69.025 198.144 68.6196 199.146C68.2142 200.142 67.6321 200.912 66.8734 201.457C66.1205 201.995 65.2228 202.265 64.1804 202.265ZM64.1804 200.371C65.0723 200.371 65.773 199.945 66.2827 199.094C66.7981 198.242 67.0559 197.075 67.0559 195.593C67.0559 194.099 66.7981 192.926 66.2827 192.074C65.773 191.223 65.0723 190.797 64.1804 190.797C63.2885 190.797 62.5848 191.223 62.0693 192.074C61.5597 192.926 61.3049 194.099 61.3049 195.593C61.3049 197.075 61.5597 198.242 62.0693 199.094C62.5848 199.945 63.2885 200.371 64.1804 200.371ZM81.5715 202.265C80.9981 202.265 80.4914 202.134 80.0512 201.874C79.6169 201.607 79.2781 201.24 79.0348 200.77C78.7916 200.301 78.6699 199.763 78.6699 199.155V198.894C78.6699 198.286 78.7916 197.747 79.0348 197.278C79.2781 196.809 79.6169 196.441 80.0512 196.175C80.4914 195.908 80.9981 195.775 81.5715 195.775C82.1449 195.775 82.6487 195.908 83.0831 196.175C83.5175 196.441 83.8563 196.809 84.0995 197.278C84.3428 197.747 84.4644 198.286 84.4644 198.894V199.155C84.4644 199.763 84.3428 200.301 84.0995 200.77C83.8563 201.24 83.5175 201.607 83.0831 201.874C82.6487 202.134 82.1449 202.265 81.5715 202.265ZM73.4836 195.393C72.9102 195.393 72.4035 195.26 71.9633 194.993C71.529 194.727 71.1902 194.362 70.9469 193.899C70.7037 193.43 70.582 192.891 70.582 192.283V192.022C70.582 191.408 70.7037 190.867 70.9469 190.398C71.1902 189.929 71.529 189.564 71.9633 189.303C72.4035 189.037 72.9102 188.904 73.4836 188.904C74.057 188.904 74.5608 189.037 74.9952 189.303C75.4296 189.564 75.7684 189.929 76.0116 190.398C76.2549 190.867 76.3765 191.408 76.3765 192.022V192.283C76.3765 192.891 76.2549 193.43 76.0116 193.899C75.7684 194.362 75.4296 194.727 74.9952 194.993C74.5608 195.26 74.057 195.393 73.4836 195.393ZM72.1718 202.056L81.0676 189.112H82.8399L73.944 202.056H72.1718ZM73.4836 193.951C73.8543 193.951 74.1496 193.809 74.3697 193.525C74.5956 193.236 74.7085 192.822 74.7085 192.283V192.022C74.7085 191.478 74.5956 191.061 74.3697 190.771C74.1496 190.482 73.8543 190.337 73.4836 190.337C73.1072 190.337 72.806 190.482 72.5801 190.771C72.36 191.061 72.25 191.478 72.25 192.022V192.283C72.25 192.822 72.36 193.236 72.5801 193.525C72.806 193.809 73.1072 193.951 73.4836 193.951ZM81.5715 200.831C81.9422 200.831 82.2375 200.686 82.4576 200.397C82.6835 200.107 82.7964 199.693 82.7964 199.155V198.894C82.7964 198.35 82.6835 197.933 82.4576 197.643C82.2375 197.353 81.9422 197.209 81.5715 197.209C81.1951 197.209 80.8939 197.353 80.668 197.643C80.448 197.933 80.3379 198.35 80.3379 198.894V199.155C80.3379 199.693 80.448 200.107 80.668 200.397C80.8939 200.686 81.1951 200.831 81.5715 200.831Z" fill="#4848FF"/>
</g>
</g>
<g id="Wrapper_2" filter="url(#filter6_dd_225_4540)">
<rect x="134.665" y="177.593" width="79.2939" height="54.1064" rx="5.59722" fill="white"/>
<rect x="134.759" y="177.687" width="79.1073" height="53.9199" rx="5.50393" stroke="black" stroke-opacity="0.06" stroke-width="0.186574"/>
<g id="Group 1707483581_2">
<path id="Course added" d="M145.364 223.387C144.546 223.387 143.83 223.192 143.214 222.803C142.599 222.41 142.119 221.87 141.773 221.183C141.432 220.493 141.261 219.703 141.261 218.814C141.261 217.917 141.432 217.125 141.773 216.438C142.115 215.747 142.593 215.207 143.208 214.818C143.828 214.425 144.546 214.229 145.364 214.229C145.983 214.229 146.549 214.352 147.061 214.598C147.573 214.84 148 215.187 148.341 215.64C148.686 216.089 148.913 216.622 149.02 217.242H147.924C147.781 216.595 147.48 216.098 147.019 215.753C146.563 215.404 146.011 215.229 145.364 215.229C144.741 215.229 144.203 215.382 143.75 215.688C143.298 215.989 142.948 216.41 142.702 216.95C142.456 217.486 142.333 218.107 142.333 218.814C142.333 219.516 142.456 220.136 142.702 220.671C142.948 221.207 143.298 221.628 143.75 221.934C144.203 222.235 144.741 222.386 145.364 222.386C146.003 222.386 146.553 222.214 147.013 221.868C147.474 221.523 147.779 221.029 147.93 220.386H149.02C148.913 221.001 148.688 221.533 148.347 221.981C148.005 222.43 147.577 222.777 147.061 223.023C146.549 223.265 145.983 223.387 145.364 223.387ZM152.492 223.387C151.913 223.387 151.403 223.248 150.962 222.97C150.525 222.688 150.184 222.301 149.938 221.809C149.696 221.316 149.575 220.751 149.575 220.112C149.575 219.469 149.696 218.899 149.938 218.403C150.184 217.907 150.525 217.518 150.962 217.236C151.403 216.954 151.913 216.813 152.492 216.813C153.076 216.813 153.586 216.954 154.023 217.236C154.459 217.518 154.799 217.907 155.041 218.403C155.287 218.899 155.41 219.469 155.41 220.112C155.41 220.751 155.287 221.316 155.041 221.809C154.799 222.301 154.459 222.688 154.023 222.97C153.586 223.248 153.076 223.387 152.492 223.387ZM152.492 222.47C153.088 222.47 153.552 222.255 153.886 221.827C154.219 221.394 154.386 220.822 154.386 220.112C154.386 219.393 154.217 218.818 153.88 218.385C153.546 217.948 153.084 217.73 152.492 217.73C151.901 217.73 151.436 217.946 151.099 218.379C150.765 218.812 150.599 219.389 150.599 220.112C150.599 220.826 150.765 221.398 151.099 221.827C151.432 222.255 151.897 222.47 152.492 222.47ZM158.507 223.363C158.087 223.363 157.699 223.271 157.346 223.089C156.997 222.902 156.717 222.624 156.507 222.255C156.3 221.882 156.197 221.418 156.197 220.862V216.956H157.209V220.79C157.209 221.334 157.34 221.745 157.602 222.023C157.864 222.297 158.229 222.434 158.698 222.434C159.158 222.434 159.549 222.293 159.871 222.011C160.192 221.729 160.353 221.271 160.353 220.636V216.956H161.365V223.244H160.377V222.321C160.159 222.678 159.891 222.942 159.573 223.113C159.26 223.279 158.904 223.363 158.507 223.363ZM162.474 223.244V216.956H163.439V217.944H163.462C163.578 217.619 163.76 217.357 164.01 217.158C164.26 216.96 164.582 216.861 164.975 216.861C165.066 216.861 165.15 216.865 165.225 216.873C165.304 216.88 165.364 216.888 165.404 216.896V217.909C165.364 217.897 165.286 217.883 165.171 217.867C165.06 217.847 164.931 217.837 164.784 217.837C164.435 217.837 164.131 217.96 163.873 218.206C163.615 218.452 163.486 218.841 163.486 219.373V223.244H162.474ZM168.203 223.387C167.755 223.387 167.348 223.313 166.983 223.166C166.617 223.019 166.322 222.797 166.095 222.499C165.869 222.198 165.742 221.819 165.714 221.362H166.715C166.786 222.132 167.274 222.517 168.179 222.517C168.616 222.517 168.959 222.426 169.21 222.243C169.464 222.061 169.591 221.83 169.591 221.553C169.591 221.314 169.503 221.124 169.329 220.981C169.154 220.838 168.926 220.735 168.644 220.671L167.632 220.433C166.449 220.155 165.857 219.56 165.857 218.647C165.857 218.29 165.953 217.974 166.143 217.7C166.338 217.422 166.606 217.206 166.947 217.051C167.292 216.892 167.689 216.813 168.138 216.813C168.574 216.813 168.965 216.896 169.311 217.063C169.66 217.226 169.936 217.458 170.138 217.76C170.345 218.061 170.454 218.421 170.466 218.837H169.477C169.474 218.504 169.35 218.228 169.108 218.01C168.866 217.791 168.543 217.682 168.138 217.682C167.753 217.682 167.445 217.776 167.215 217.962C166.985 218.149 166.869 218.377 166.869 218.647C166.869 218.885 166.957 219.078 167.131 219.224C167.306 219.367 167.544 219.475 167.846 219.546L168.858 219.784C169.462 219.927 169.904 220.141 170.186 220.427C170.468 220.709 170.609 221.076 170.609 221.529C170.609 221.918 170.504 222.251 170.293 222.529C170.083 222.807 169.795 223.019 169.43 223.166C169.069 223.313 168.66 223.387 168.203 223.387ZM174.004 223.387C173.389 223.387 172.863 223.246 172.426 222.964C171.993 222.682 171.662 222.295 171.432 221.803C171.201 221.307 171.086 220.743 171.086 220.112C171.086 219.473 171.207 218.905 171.45 218.409C171.692 217.913 172.027 217.524 172.456 217.242C172.885 216.956 173.377 216.813 173.932 216.813C174.516 216.813 175.022 216.952 175.451 217.23C175.88 217.508 176.209 217.895 176.439 218.391C176.673 218.887 176.791 219.461 176.791 220.112V220.392H172.087C172.11 221.007 172.287 221.507 172.617 221.892C172.946 222.277 173.409 222.47 174.004 222.47C174.452 222.47 174.818 222.366 175.1 222.16C175.385 221.954 175.576 221.688 175.671 221.362H176.683C176.604 221.763 176.439 222.116 176.189 222.422C175.939 222.724 175.625 222.96 175.248 223.131C174.875 223.301 174.46 223.387 174.004 223.387ZM172.099 219.522H175.778C175.723 218.97 175.53 218.532 175.201 218.206C174.871 217.881 174.449 217.718 173.932 217.718C173.416 217.718 172.996 217.881 172.67 218.206C172.345 218.532 172.154 218.97 172.099 219.522ZM182.128 223.339C181.505 223.339 180.983 223.178 180.562 222.857C180.145 222.535 179.937 222.061 179.937 221.434C179.937 221.072 180.006 220.779 180.145 220.552C180.288 220.326 180.477 220.149 180.711 220.022C180.949 219.891 181.217 219.792 181.515 219.725C181.816 219.657 182.124 219.604 182.438 219.564C182.839 219.508 183.154 219.467 183.384 219.439C183.615 219.411 183.777 219.365 183.873 219.302C183.972 219.238 184.021 219.127 184.021 218.968V218.909C184.021 218.568 183.898 218.286 183.652 218.063C183.41 217.841 183.069 217.73 182.628 217.73C182.191 217.73 181.832 217.837 181.55 218.051C181.273 218.262 181.122 218.524 181.098 218.837H180.068C180.088 218.452 180.207 218.111 180.425 217.813C180.643 217.512 180.941 217.273 181.318 217.099C181.695 216.924 182.132 216.837 182.628 216.837C183.363 216.837 183.944 217.027 184.373 217.408C184.805 217.786 185.022 218.286 185.022 218.909V223.244H184.021V222.351H183.998C183.922 222.501 183.811 222.654 183.664 222.809C183.517 222.96 183.319 223.087 183.069 223.19C182.823 223.289 182.509 223.339 182.128 223.339ZM182.271 222.434C182.684 222.434 183.019 222.36 183.277 222.214C183.535 222.063 183.724 221.868 183.843 221.63C183.962 221.392 184.021 221.136 184.021 220.862V220.076C183.946 220.147 183.746 220.213 183.42 220.272C183.095 220.328 182.751 220.382 182.39 220.433C182.148 220.465 181.918 220.521 181.699 220.6C181.485 220.675 181.31 220.785 181.175 220.927C181.04 221.066 180.973 221.255 180.973 221.493C180.973 221.787 181.088 222.017 181.318 222.184C181.552 222.351 181.87 222.434 182.271 222.434ZM188.536 223.363C187.992 223.363 187.514 223.226 187.101 222.952C186.692 222.674 186.375 222.291 186.148 221.803C185.922 221.31 185.809 220.743 185.809 220.1C185.809 219.453 185.922 218.885 186.148 218.397C186.375 217.905 186.692 217.522 187.101 217.248C187.514 216.974 187.992 216.837 188.536 216.837C188.945 216.837 189.324 216.924 189.673 217.099C190.023 217.269 190.298 217.531 190.501 217.885H190.513V214.372H191.525V223.244H190.537V222.291H190.525C190.298 222.652 190.013 222.922 189.667 223.101C189.322 223.275 188.945 223.363 188.536 223.363ZM188.691 222.452C189.274 222.452 189.737 222.237 190.078 221.809C190.424 221.38 190.596 220.81 190.596 220.1C190.596 219.389 190.424 218.82 190.078 218.391C189.737 217.958 189.274 217.742 188.691 217.742C188.147 217.742 187.7 217.942 187.351 218.343C187.006 218.744 186.833 219.33 186.833 220.1C186.833 220.87 187.006 221.455 187.351 221.856C187.7 222.253 188.147 222.452 188.691 222.452ZM195.039 223.363C194.495 223.363 194.017 223.226 193.604 222.952C193.195 222.674 192.878 222.291 192.652 221.803C192.425 221.31 192.312 220.743 192.312 220.1C192.312 219.453 192.425 218.885 192.652 218.397C192.878 217.905 193.195 217.522 193.604 217.248C194.017 216.974 194.495 216.837 195.039 216.837C195.448 216.837 195.827 216.924 196.177 217.099C196.526 217.269 196.802 217.531 197.004 217.885H197.016V214.372H198.028V223.244H197.04V222.291H197.028C196.802 222.652 196.516 222.922 196.171 223.101C195.825 223.275 195.448 223.363 195.039 223.363ZM195.194 222.452C195.778 222.452 196.24 222.237 196.581 221.809C196.927 221.38 197.099 220.81 197.099 220.1C197.099 219.389 196.927 218.82 196.581 218.391C196.24 217.958 195.778 217.742 195.194 217.742C194.65 217.742 194.204 217.942 193.854 218.343C193.509 218.744 193.336 219.33 193.336 220.1C193.336 220.87 193.509 221.455 193.854 221.856C194.204 222.253 194.65 222.452 195.194 222.452ZM201.733 223.387C201.118 223.387 200.592 223.246 200.155 222.964C199.723 222.682 199.391 222.295 199.161 221.803C198.931 221.307 198.816 220.743 198.816 220.112C198.816 219.473 198.937 218.905 199.179 218.409C199.421 217.913 199.756 217.524 200.185 217.242C200.614 216.956 201.106 216.813 201.662 216.813C202.245 216.813 202.751 216.952 203.18 217.23C203.609 217.508 203.938 217.895 204.168 218.391C204.403 218.887 204.52 219.461 204.52 220.112V220.392H199.816C199.84 221.007 200.016 221.507 200.346 221.892C200.675 222.277 201.138 222.47 201.733 222.47C202.182 222.47 202.547 222.366 202.829 222.16C203.115 221.954 203.305 221.688 203.4 221.362H204.413C204.333 221.763 204.168 222.116 203.918 222.422C203.668 222.724 203.355 222.96 202.978 223.131C202.604 223.301 202.19 223.387 201.733 223.387ZM199.828 219.522H203.508C203.452 218.97 203.259 218.532 202.93 218.206C202.6 217.881 202.178 217.718 201.662 217.718C201.146 217.718 200.725 217.881 200.399 218.206C200.074 218.532 199.883 218.97 199.828 219.522ZM207.689 223.363C207.145 223.363 206.666 223.226 206.254 222.952C205.845 222.674 205.527 222.291 205.301 221.803C205.075 221.31 204.962 220.743 204.962 220.1C204.962 219.453 205.075 218.885 205.301 218.397C205.527 217.905 205.845 217.522 206.254 217.248C206.666 216.974 207.145 216.837 207.689 216.837C208.097 216.837 208.477 216.924 208.826 217.099C209.175 217.269 209.451 217.531 209.654 217.885H209.665V214.372H210.678V223.244H209.689V222.291H209.677C209.451 222.652 209.165 222.922 208.82 223.101C208.475 223.275 208.097 223.363 207.689 223.363ZM207.843 222.452C208.427 222.452 208.889 222.237 209.231 221.809C209.576 221.38 209.749 220.81 209.749 220.1C209.749 219.389 209.576 218.82 209.231 218.391C208.889 217.958 208.427 217.742 207.843 217.742C207.3 217.742 206.853 217.942 206.504 218.343C206.158 218.744 205.986 219.33 205.986 220.1C205.986 220.87 206.158 221.455 206.504 221.856C206.853 222.253 207.3 222.452 207.843 222.452Z" fill="black"/>
<path id="23+" d="M141.429 202.056V200.31L146.129 196.201C146.783 195.616 147.299 195.095 147.675 194.637C148.052 194.18 148.24 193.635 148.24 193.004C148.24 192.326 148.034 191.791 147.623 191.397C147.218 190.997 146.665 190.797 145.964 190.797C145.205 190.797 144.611 191.038 144.183 191.518C143.76 191.993 143.549 192.645 143.549 193.473H141.42C141.42 192.564 141.606 191.767 141.976 191.084C142.347 190.395 142.871 189.859 143.549 189.477C144.232 189.095 145.037 188.904 145.964 188.904C146.821 188.904 147.583 189.071 148.249 189.407C148.92 189.738 149.445 190.204 149.821 190.806C150.203 191.403 150.394 192.1 150.394 192.9C150.394 193.78 150.148 194.565 149.656 195.254C149.169 195.943 148.466 196.69 147.545 197.495L144.556 200.145V200.162H150.455V202.056H141.429ZM156.249 202.265C155.235 202.265 154.369 202.071 153.651 201.683C152.939 201.289 152.392 200.759 152.009 200.093C151.633 199.427 151.445 198.68 151.445 197.851H153.677C153.677 198.662 153.9 199.294 154.346 199.745C154.798 200.191 155.423 200.414 156.223 200.414C156.976 200.414 157.587 200.223 158.056 199.841C158.531 199.459 158.768 198.949 158.768 198.312C158.768 197.715 158.513 197.235 158.004 196.87C157.5 196.505 156.834 196.323 156.005 196.323H154.893V194.559H156.005C156.753 194.559 157.349 194.394 157.795 194.064C158.241 193.734 158.464 193.291 158.464 192.735C158.464 192.121 158.255 191.631 157.839 191.266C157.422 190.902 156.874 190.719 156.197 190.719C155.496 190.719 154.937 190.922 154.52 191.327C154.103 191.727 153.894 192.271 153.894 192.961H151.714C151.714 192.173 151.899 191.475 152.27 190.867C152.646 190.253 153.171 189.772 153.842 189.425C154.514 189.077 155.302 188.904 156.205 188.904C157.057 188.904 157.815 189.06 158.481 189.373C159.147 189.68 159.672 190.105 160.054 190.65C160.442 191.194 160.636 191.82 160.636 192.526C160.636 193.227 160.413 193.826 159.967 194.324C159.521 194.823 158.936 195.158 158.212 195.332V195.358C159.092 195.48 159.782 195.827 160.28 196.401C160.784 196.968 161.035 197.637 161.035 198.407C161.035 199.155 160.83 199.821 160.419 200.406C160.007 200.985 159.443 201.439 158.725 201.769C158.006 202.1 157.181 202.265 156.249 202.265ZM166.065 200.015V196.574H162.668V194.741H166.065V191.301H167.984V194.741H171.372V196.574H167.984V200.015H166.065Z" fill="#4848FF"/>
</g>
</g>
<g id="Wrapper_3" filter="url(#filter7_dd_225_4540)">
<g clip-path="url(#clip1_225_4540)">
<rect x="226.553" y="177.593" width="76.4953" height="54.1064" rx="5.59722" fill="white"/>
<g id="Group 1707483581_3">
<path id="Active courses" d="M226.672 223.244L229.947 214.372H231.162L234.401 223.244H233.258L232.388 220.755H228.685L227.792 223.244H226.672ZM229.024 219.802H232.061L231.394 217.897C231.283 217.583 231.162 217.234 231.031 216.849C230.904 216.46 230.745 215.969 230.555 215.378C230.364 215.969 230.203 216.46 230.072 216.849C229.945 217.234 229.824 217.583 229.709 217.897L229.024 219.802ZM237.236 223.387C236.657 223.387 236.147 223.248 235.706 222.97C235.27 222.688 234.928 222.301 234.682 221.809C234.44 221.316 234.319 220.751 234.319 220.112C234.319 219.469 234.44 218.899 234.682 218.403C234.928 217.907 235.27 217.518 235.706 217.236C236.147 216.954 236.657 216.813 237.236 216.813C237.713 216.813 238.14 216.908 238.517 217.099C238.894 217.285 239.201 217.543 239.44 217.873C239.682 218.202 239.831 218.579 239.886 219.004H238.862C238.787 218.635 238.612 218.331 238.338 218.093C238.068 217.851 237.701 217.73 237.236 217.73C236.645 217.73 236.181 217.946 235.843 218.379C235.51 218.812 235.343 219.389 235.343 220.112C235.343 220.826 235.51 221.398 235.843 221.827C236.177 222.255 236.641 222.47 237.236 222.47C237.709 222.47 238.07 222.354 238.32 222.124C238.57 221.89 238.745 221.58 238.844 221.195H239.886C239.831 221.608 239.682 221.981 239.44 222.315C239.201 222.644 238.892 222.906 238.511 223.101C238.134 223.291 237.709 223.387 237.236 223.387ZM243.377 216.956V217.825H242.102V221.719C242.102 221.961 242.152 222.132 242.251 222.231C242.354 222.327 242.535 222.374 242.793 222.374H243.377V223.244H242.698C241.626 223.244 241.09 222.771 241.09 221.827V217.825H239.971V216.956H241.09V215.241H242.102V216.956H243.377ZM244.039 223.244V216.956H245.051V223.244H244.039ZM244.545 215.729C244.354 215.729 244.191 215.662 244.056 215.527C243.922 215.392 243.854 215.229 243.854 215.039C243.854 214.848 243.922 214.685 244.056 214.55C244.191 214.415 244.354 214.348 244.545 214.348C244.735 214.348 244.898 214.415 245.033 214.55C245.168 214.685 245.235 214.848 245.235 215.039C245.235 215.229 245.168 215.392 245.033 215.527C244.898 215.662 244.735 215.729 244.545 215.729ZM248.017 223.244L245.588 216.956H246.684L248.041 220.576C248.132 220.818 248.22 221.06 248.303 221.303C248.386 221.541 248.468 221.781 248.547 222.023C248.631 221.781 248.714 221.541 248.797 221.303C248.881 221.06 248.966 220.818 249.053 220.576L250.393 216.956H251.471L249.041 223.244H248.017ZM254.366 223.387C253.75 223.387 253.225 223.246 252.788 222.964C252.355 222.682 252.024 222.295 251.793 221.803C251.563 221.307 251.448 220.743 251.448 220.112C251.448 219.473 251.569 218.905 251.811 218.409C252.054 217.913 252.389 217.524 252.818 217.242C253.246 216.956 253.739 216.813 254.294 216.813C254.878 216.813 255.384 216.952 255.813 217.23C256.241 217.508 256.571 217.895 256.801 218.391C257.035 218.887 257.152 219.461 257.152 220.112V220.392H252.448C252.472 221.007 252.649 221.507 252.978 221.892C253.308 222.277 253.77 222.47 254.366 222.47C254.814 222.47 255.18 222.366 255.461 222.16C255.747 221.954 255.938 221.688 256.033 221.362H257.045C256.966 221.763 256.801 222.116 256.551 222.422C256.301 222.724 255.987 222.96 255.61 223.131C255.237 223.301 254.822 223.387 254.366 223.387ZM252.46 219.522H256.14C256.085 218.97 255.892 218.532 255.563 218.206C255.233 217.881 254.81 217.718 254.294 217.718C253.778 217.718 253.357 217.881 253.032 218.206C252.706 218.532 252.516 218.97 252.46 219.522ZM263.169 223.387C262.589 223.387 262.079 223.248 261.638 222.97C261.202 222.688 260.86 222.301 260.614 221.809C260.372 221.316 260.251 220.751 260.251 220.112C260.251 219.469 260.372 218.899 260.614 218.403C260.86 217.907 261.202 217.518 261.638 217.236C262.079 216.954 262.589 216.813 263.169 216.813C263.645 216.813 264.072 216.908 264.449 217.099C264.826 217.285 265.134 217.543 265.372 217.873C265.614 218.202 265.763 218.579 265.818 219.004H264.794C264.719 218.635 264.544 218.331 264.27 218.093C264 217.851 263.633 217.73 263.169 217.73C262.577 217.73 262.113 217.946 261.775 218.379C261.442 218.812 261.275 219.389 261.275 220.112C261.275 220.826 261.442 221.398 261.775 221.827C262.109 222.255 262.573 222.47 263.169 222.47C263.641 222.47 264.002 222.354 264.252 222.124C264.502 221.89 264.677 221.58 264.776 221.195H265.818C265.763 221.608 265.614 221.981 265.372 222.315C265.134 222.644 264.824 222.906 264.443 223.101C264.066 223.291 263.641 223.387 263.169 223.387ZM269.16 223.387C268.58 223.387 268.07 223.248 267.63 222.97C267.193 222.688 266.852 222.301 266.605 221.809C266.363 221.316 266.242 220.751 266.242 220.112C266.242 219.469 266.363 218.899 266.605 218.403C266.852 217.907 267.193 217.518 267.63 217.236C268.07 216.954 268.58 216.813 269.16 216.813C269.743 216.813 270.253 216.954 270.69 217.236C271.127 217.518 271.466 217.907 271.708 218.403C271.954 218.899 272.077 219.469 272.077 220.112C272.077 220.751 271.954 221.316 271.708 221.809C271.466 222.301 271.127 222.688 270.69 222.97C270.253 223.248 269.743 223.387 269.16 223.387ZM269.16 222.47C269.755 222.47 270.22 222.255 270.553 221.827C270.887 221.394 271.053 220.822 271.053 220.112C271.053 219.393 270.885 218.818 270.547 218.385C270.214 217.948 269.751 217.73 269.16 217.73C268.568 217.73 268.104 217.946 267.767 218.379C267.433 218.812 267.266 219.389 267.266 220.112C267.266 220.826 267.433 221.398 267.767 221.827C268.1 222.255 268.564 222.47 269.16 222.47ZM275.175 223.363C274.754 223.363 274.367 223.271 274.014 223.089C273.664 222.902 273.385 222.624 273.174 222.255C272.968 221.882 272.865 221.418 272.865 220.862V216.956H273.877V220.79C273.877 221.334 274.008 221.745 274.27 222.023C274.532 222.297 274.897 222.434 275.365 222.434C275.826 222.434 276.217 222.293 276.538 222.011C276.86 221.729 277.021 221.271 277.021 220.636V216.956H278.033V223.244H277.045V222.321C276.826 222.678 276.558 222.942 276.241 223.113C275.927 223.279 275.572 223.363 275.175 223.363ZM279.142 223.244V216.956H280.106V217.944H280.13C280.245 217.619 280.428 217.357 280.678 217.158C280.928 216.96 281.249 216.861 281.642 216.861C281.734 216.861 281.817 216.865 281.892 216.873C281.972 216.88 282.031 216.888 282.071 216.896V217.909C282.031 217.897 281.954 217.883 281.839 217.867C281.728 217.847 281.599 217.837 281.452 217.837C281.103 217.837 280.799 217.96 280.541 218.206C280.283 218.452 280.154 218.841 280.154 219.373V223.244H279.142ZM284.871 223.387C284.422 223.387 284.015 223.313 283.65 223.166C283.285 223.019 282.989 222.797 282.763 222.499C282.537 222.198 282.41 221.819 282.382 221.362H283.382C283.454 222.132 283.942 222.517 284.847 222.517C285.284 222.517 285.627 222.426 285.877 222.243C286.131 222.061 286.258 221.83 286.258 221.553C286.258 221.314 286.171 221.124 285.996 220.981C285.822 220.838 285.593 220.735 285.311 220.671L284.299 220.433C283.116 220.155 282.525 219.56 282.525 218.647C282.525 218.29 282.62 217.974 282.811 217.7C283.005 217.422 283.273 217.206 283.614 217.051C283.96 216.892 284.357 216.813 284.805 216.813C285.242 216.813 285.633 216.896 285.978 217.063C286.328 217.226 286.604 217.458 286.806 217.76C287.012 218.061 287.122 218.421 287.133 218.837H286.145C286.141 218.504 286.018 218.228 285.776 218.01C285.534 217.791 285.21 217.682 284.805 217.682C284.42 217.682 284.113 217.776 283.882 217.962C283.652 218.149 283.537 218.377 283.537 218.647C283.537 218.885 283.624 219.078 283.799 219.224C283.974 219.367 284.212 219.475 284.514 219.546L285.526 219.784C286.129 219.927 286.572 220.141 286.854 220.427C287.135 220.709 287.276 221.076 287.276 221.529C287.276 221.918 287.171 222.251 286.961 222.529C286.75 222.807 286.463 223.019 286.097 223.166C285.736 223.313 285.327 223.387 284.871 223.387ZM290.672 223.387C290.056 223.387 289.53 223.246 289.094 222.964C288.661 222.682 288.329 222.295 288.099 221.803C287.869 221.307 287.754 220.743 287.754 220.112C287.754 219.473 287.875 218.905 288.117 218.409C288.359 217.913 288.695 217.524 289.123 217.242C289.552 216.956 290.044 216.813 290.6 216.813C291.184 216.813 291.69 216.952 292.118 217.23C292.547 217.508 292.877 217.895 293.107 218.391C293.341 218.887 293.458 219.461 293.458 220.112V220.392H288.754C288.778 221.007 288.955 221.507 289.284 221.892C289.614 222.277 290.076 222.47 290.672 222.47C291.12 222.47 291.485 222.366 291.767 222.16C292.053 221.954 292.243 221.688 292.339 221.362H293.351C293.272 221.763 293.107 222.116 292.857 222.422C292.607 222.724 292.293 222.96 291.916 223.131C291.543 223.301 291.128 223.387 290.672 223.387ZM288.766 219.522H292.446C292.39 218.97 292.198 218.532 291.868 218.206C291.539 217.881 291.116 217.718 290.6 217.718C290.084 217.718 289.663 217.881 289.338 218.206C289.012 218.532 288.822 218.97 288.766 219.522ZM296.413 223.387C295.964 223.387 295.557 223.313 295.192 223.166C294.827 223.019 294.531 222.797 294.305 222.499C294.079 222.198 293.952 221.819 293.924 221.362H294.924C294.996 222.132 295.484 222.517 296.389 222.517C296.825 222.517 297.169 222.426 297.419 222.243C297.673 222.061 297.8 221.83 297.8 221.553C297.8 221.314 297.713 221.124 297.538 220.981C297.363 220.838 297.135 220.735 296.853 220.671L295.841 220.433C294.658 220.155 294.067 219.56 294.067 218.647C294.067 218.29 294.162 217.974 294.352 217.7C294.547 217.422 294.815 217.206 295.156 217.051C295.502 216.892 295.899 216.813 296.347 216.813C296.784 216.813 297.175 216.896 297.52 217.063C297.869 217.226 298.145 217.458 298.348 217.76C298.554 218.061 298.663 218.421 298.675 218.837H297.687C297.683 218.504 297.56 218.228 297.318 218.01C297.076 217.791 296.752 217.682 296.347 217.682C295.962 217.682 295.654 217.776 295.424 217.962C295.194 218.149 295.079 218.377 295.079 218.647C295.079 218.885 295.166 219.078 295.341 219.224C295.516 219.367 295.754 219.475 296.055 219.546L297.068 219.784C297.671 219.927 298.114 220.141 298.395 220.427C298.677 220.709 298.818 221.076 298.818 221.529C298.818 221.918 298.713 222.251 298.503 222.529C298.292 222.807 298.004 223.019 297.639 223.166C297.278 223.313 296.869 223.387 296.413 223.387Z" fill="black"/>
<path id="08" d="M232.226 202.265C231.183 202.265 230.286 201.992 229.533 201.448C228.78 200.904 228.198 200.133 227.787 199.137C227.381 198.141 227.178 196.96 227.178 195.593C227.178 194.22 227.381 193.036 227.787 192.04C228.198 191.038 228.78 190.265 229.533 189.72C230.286 189.176 231.183 188.904 232.226 188.904C233.268 188.904 234.166 189.176 234.919 189.72C235.678 190.265 236.26 191.038 236.665 192.04C237.07 193.036 237.273 194.22 237.273 195.593C237.273 196.96 237.07 198.144 236.665 199.146C236.26 200.142 235.678 200.912 234.919 201.457C234.166 201.995 233.268 202.265 232.226 202.265ZM232.226 200.371C233.118 200.371 233.818 199.945 234.328 199.094C234.844 198.242 235.101 197.075 235.101 195.593C235.101 194.099 234.844 192.926 234.328 192.074C233.818 191.223 233.118 190.797 232.226 190.797C231.334 190.797 230.63 191.223 230.115 192.074C229.605 192.926 229.35 194.099 229.35 195.593C229.35 197.075 229.605 198.242 230.115 199.094C230.63 199.945 231.334 200.371 232.226 200.371ZM242.876 202.265C241.937 202.265 241.112 202.111 240.4 201.804C239.687 201.491 239.131 201.06 238.732 200.51C238.332 199.954 238.132 199.314 238.132 198.59C238.132 197.721 238.41 196.989 238.966 196.392C239.522 195.79 240.238 195.431 241.112 195.315C240.353 195.182 239.739 194.857 239.27 194.342C238.807 193.826 238.575 193.181 238.575 192.405C238.575 191.721 238.758 191.119 239.123 190.598C239.493 190.071 240 189.656 240.643 189.355C241.292 189.054 242.036 188.904 242.876 188.904C243.715 188.904 244.457 189.054 245.1 189.355C245.748 189.651 246.255 190.062 246.62 190.589C246.985 191.11 247.167 191.715 247.167 192.405C247.167 193.181 246.933 193.826 246.463 194.342C246 194.857 245.392 195.182 244.639 195.315C245.218 195.396 245.731 195.587 246.177 195.888C246.629 196.184 246.982 196.566 247.237 197.035C247.491 197.498 247.619 198.017 247.619 198.59C247.619 199.314 247.416 199.954 247.011 200.51C246.611 201.06 246.055 201.491 245.343 201.804C244.63 202.111 243.808 202.265 242.876 202.265ZM242.876 200.51C243.605 200.51 244.193 200.322 244.639 199.945C245.091 199.563 245.317 199.062 245.317 198.442C245.317 197.817 245.085 197.301 244.622 196.896C244.164 196.485 243.582 196.279 242.876 196.279C242.163 196.279 241.575 196.485 241.112 196.896C240.655 197.301 240.426 197.817 240.426 198.442C240.426 199.062 240.649 199.563 241.095 199.945C241.546 200.322 242.14 200.51 242.876 200.51ZM242.876 194.516C243.495 194.516 243.996 194.342 244.379 193.994C244.767 193.641 244.961 193.175 244.961 192.596C244.961 192.022 244.769 191.562 244.387 191.214C244.005 190.861 243.501 190.684 242.876 190.684C242.244 190.684 241.738 190.861 241.355 191.214C240.973 191.562 240.782 192.022 240.782 192.596C240.782 193.169 240.973 193.632 241.355 193.986C241.743 194.339 242.25 194.516 242.876 194.516Z" fill="#4848FF"/>
</g>
</g>
<rect x="226.646" y="177.687" width="76.3087" height="53.9199" rx="5.50393" stroke="black" stroke-opacity="0.06" stroke-width="0.186574"/>
</g>
<g id="Group 1707483586">
<g id="Group 1707483582">
<path id="Vector 2297" d="M20.3892 132.875C25.0034 132.651 36.8654 133.748 47.3994 139.93C57.9334 146.112 61.9175 130.187 62.5927 121.451C64.0558 117.755 68.4675 112.917 74.4097 123.131C81.8375 135.898 84.8762 139.594 90.2783 137.242C95.6803 134.89 103.108 125.483 107.497 126.491C111.886 127.499 111.594 130.549 115.938 142.282C118.301 148.666 137.209 142.618 136.871 121.451L138.897 112.511C139.234 107.135 148.688 103.775 154.428 113.855C156.791 118.006 157.399 129.245 162.531 130.858C164.331 131.978 170.094 133.008 178.737 128.17C182.113 127.05 190.212 128.012 197.982 139.258C200.683 142.393 207.638 145.238 213.85 131.53C220.063 117.822 223.867 108.795 224.992 105.995C226.343 103.979 228.706 101.628 231.71 105.323C235.983 110.581 230.022 123.802 244.877 123.802C249.977 123.802 256.391 109.826 257.742 95.5799C258.867 92.7801 263.077 88.9947 270.909 96.2519C280.701 105.323 278.337 119.099 290.154 122.459C299.608 125.146 321.554 122.459 326.281 116.075C327.969 111.707 338.57 105.794 343.162 107.675" stroke="url(#paint5_linear_225_4540)" stroke-width="1.86574" stroke-linecap="round" stroke-linejoin="round"/>
<path id="Vector 2298" d="M47.3994 139.93C36.8654 133.748 25.0034 132.651 20.3892 132.875V158.972L343.162 162.668V107.675C338.57 105.794 327.969 111.707 326.281 116.075C321.554 122.459 299.608 125.146 290.154 122.459C278.337 119.099 280.701 105.323 270.91 96.2519C263.077 88.9947 258.867 92.7801 257.742 95.5799C256.391 109.826 249.977 123.802 244.877 123.802C230.022 123.802 235.983 110.581 231.71 105.323C228.706 101.628 226.343 103.979 224.992 105.995C223.867 108.795 220.063 117.822 213.85 131.53C207.638 145.238 200.683 142.393 197.982 139.258C190.212 128.012 182.113 127.05 178.737 128.17C170.094 133.008 164.331 131.978 162.531 130.858C157.399 129.245 156.791 118.006 154.428 113.855C148.688 103.775 139.234 107.135 138.897 112.511L136.871 121.451C137.209 142.618 118.301 148.666 115.938 142.282C111.594 130.549 111.886 127.499 107.497 126.491C103.108 125.483 95.6803 134.89 90.2783 137.242C84.8762 139.594 81.8375 135.898 74.4097 123.131C68.4675 112.917 64.0558 117.755 62.5927 121.451C61.9175 130.187 57.9334 146.112 47.3994 139.93Z" fill="url(#paint6_linear_225_4540)"/>
</g>
<g id="Group 1000002885">
<path id="Union" d="M281.714 58.3867C283.447 58.387 284.852 59.7922 284.853 61.5254V75.6504C284.853 77.3838 283.447 78.7888 281.714 78.7891H264.081C263.665 78.7891 263.265 78.9544 262.971 79.2487L257.595 84.625C256.675 85.5443 255.185 85.5443 254.266 84.625L248.888 79.2486C248.594 78.9544 248.195 78.7891 247.779 78.7891H229.923C228.189 78.7891 226.783 77.3839 226.783 75.6504V61.5254C226.783 59.792 228.189 58.3867 229.923 58.3867H281.714Z" fill="#0003DB"/>
<path id="70,867" d="M238.117 74.3115L241.922 66.7862V66.7224H237.521V65.5945H243.284V66.7607L239.492 74.3115H238.117ZM247.612 74.4562C246.939 74.4534 246.365 74.2761 245.888 73.9242C245.411 73.5723 245.047 73.0601 244.794 72.3876C244.541 71.7151 244.415 70.905 244.415 69.9572C244.415 69.0123 244.541 68.205 244.794 67.5354C245.049 66.8657 245.415 66.3549 245.892 66.0031C246.372 65.6512 246.945 65.4753 247.612 65.4753C248.279 65.4753 248.85 65.6526 249.327 66.0073C249.804 66.3592 250.168 66.87 250.421 67.5396C250.676 68.2065 250.804 69.0123 250.804 69.9572C250.804 70.9078 250.678 71.7194 250.425 72.3919C250.173 73.0616 249.808 73.5738 249.331 73.9284C248.855 74.2803 248.281 74.4562 247.612 74.4562ZM247.612 73.3198C248.202 73.3198 248.663 73.0318 248.995 72.4557C249.33 71.8797 249.497 71.0469 249.497 69.9572C249.497 69.2337 249.421 68.6222 249.267 68.1227C249.117 67.6205 248.9 67.2403 248.616 66.982C248.335 66.721 248 66.5905 247.612 66.5905C247.024 66.5905 246.563 66.8799 246.228 67.4588C245.894 68.0376 245.725 68.8705 245.722 69.9572C245.722 70.6837 245.797 71.298 245.947 71.8003C246.101 72.2997 246.318 72.6785 246.599 72.9367C246.88 73.1921 247.217 73.3198 247.612 73.3198ZM253.671 73.1197L253.607 73.5837C253.564 73.9242 253.492 74.2789 253.39 74.6478C253.29 75.0195 253.187 75.3643 253.079 75.6821C252.974 75.9999 252.888 76.2524 252.819 76.4397H251.917C251.954 76.2638 252.005 76.0254 252.07 75.7246C252.136 75.4267 252.199 75.0933 252.262 74.7244C252.324 74.3555 252.371 73.9795 252.402 73.5965L252.445 73.1197H253.671ZM258.104 74.4307C257.494 74.4307 256.954 74.3257 256.486 74.1157C256.021 73.9057 255.656 73.6163 255.392 73.2474C255.129 72.8785 254.998 72.4586 255.001 71.9875C254.998 71.6187 255.073 71.2796 255.226 70.9703C255.382 70.6581 255.594 70.3985 255.861 70.1913C256.127 69.9814 256.425 69.848 256.754 69.7912V69.7402C256.32 69.6352 255.973 69.4025 255.712 69.0421C255.451 68.6818 255.321 68.2675 255.324 67.7993C255.321 67.3538 255.439 66.9565 255.678 66.6075C255.919 66.2556 256.249 65.979 256.669 65.7775C257.089 65.576 257.567 65.4753 258.104 65.4753C258.634 65.4753 259.108 65.5774 259.525 65.7817C259.945 65.9832 260.276 66.2599 260.517 66.6117C260.758 66.9608 260.88 67.3566 260.883 67.7993C260.88 68.2675 260.747 68.6818 260.483 69.0421C260.219 69.4025 259.876 69.6352 259.453 69.7402V69.7912C259.779 69.848 260.073 69.9814 260.334 70.1913C260.598 70.3985 260.808 70.6581 260.964 70.9703C261.123 71.2796 261.204 71.6187 261.207 71.9875C261.204 72.4586 261.07 72.8785 260.807 73.2474C260.543 73.6163 260.177 73.9057 259.708 74.1157C259.243 74.3257 258.708 74.4307 258.104 74.4307ZM258.104 73.3538C258.464 73.3538 258.776 73.2942 259.04 73.1751C259.304 73.0531 259.508 72.8842 259.653 72.6686C259.798 72.4501 259.872 72.1947 259.874 71.9024C259.872 71.5988 259.792 71.3306 259.636 71.098C259.483 70.8653 259.274 70.6823 259.01 70.5489C258.746 70.4155 258.444 70.3488 258.104 70.3488C257.76 70.3488 257.455 70.4155 257.189 70.5489C256.922 70.6823 256.712 70.8653 256.559 71.098C256.405 71.3306 256.33 71.5988 256.333 71.9024C256.33 72.1947 256.4 72.4501 256.542 72.6686C256.686 72.8842 256.892 73.0531 257.159 73.1751C257.426 73.2942 257.74 73.3538 258.104 73.3538ZM258.104 69.2975C258.393 69.2975 258.65 69.2393 258.874 69.123C259.098 69.0067 259.274 68.8449 259.402 68.6378C259.532 68.4306 259.599 68.188 259.602 67.9099C259.599 67.6375 259.534 67.3992 259.406 67.1949C259.281 66.9906 259.107 66.8331 258.883 66.7224C258.658 66.6089 258.399 66.5521 258.104 66.5521C257.803 66.5521 257.539 66.6089 257.312 66.7224C257.088 66.8331 256.913 66.9906 256.788 67.1949C256.664 67.3992 256.603 67.6375 256.605 67.9099C256.603 68.188 256.665 68.4306 256.793 68.6378C256.92 68.8449 257.096 69.0067 257.321 69.123C257.548 69.2393 257.809 69.2975 258.104 69.2975ZM265.775 74.4307C265.386 74.425 265.003 74.3541 264.626 74.2179C264.251 74.0817 263.91 73.8547 263.604 73.5369C263.298 73.2191 263.052 72.792 262.868 72.2557C262.686 71.7194 262.595 71.0497 262.595 70.2467C262.595 69.4862 262.67 68.8109 262.821 68.2206C262.974 67.6304 263.194 67.1324 263.481 66.7267C263.767 66.318 264.113 66.0073 264.519 65.7945C264.925 65.5817 265.38 65.4753 265.885 65.4753C266.405 65.4753 266.866 65.5774 267.269 65.7817C267.672 65.986 267.998 66.2684 268.248 66.6288C268.5 66.9891 268.661 67.3992 268.729 67.8589H267.43C267.343 67.4956 267.168 67.1991 266.907 66.9693C266.646 66.7394 266.305 66.6245 265.885 66.6245C265.247 66.6245 264.749 66.9026 264.391 67.4588C264.037 68.0149 263.858 68.7882 263.855 69.7785H263.919C264.069 69.5316 264.254 69.3216 264.472 69.1485C264.694 68.9726 264.941 68.8378 265.213 68.7442C265.488 68.6477 265.778 68.5995 266.081 68.5995C266.586 68.5995 267.043 68.7229 267.452 68.9698C267.863 69.2138 268.191 69.5515 268.435 69.9828C268.679 70.4141 268.801 70.9078 268.801 71.464C268.801 72.0202 268.675 72.5238 268.422 72.975C268.173 73.4262 267.821 73.7837 267.367 74.0476C266.913 74.3087 266.382 74.4364 265.775 74.4307ZM265.771 73.324C266.105 73.324 266.405 73.2418 266.669 73.0772C266.933 72.9126 267.141 72.6913 267.294 72.4132C267.448 72.1351 267.524 71.8244 267.524 71.481C267.524 71.1462 267.449 70.8412 267.299 70.5659C267.151 70.2907 266.947 70.0722 266.686 69.9104C266.427 69.7487 266.132 69.6678 265.8 69.6678C265.548 69.6678 265.314 69.7161 265.098 69.8125C264.885 69.909 264.698 70.0424 264.536 70.2126C264.374 70.3829 264.247 70.5787 264.153 70.8C264.062 71.0185 264.017 71.2498 264.017 71.4938C264.017 71.8201 264.092 72.1223 264.242 72.4004C264.396 72.6785 264.604 72.9027 264.868 73.0729C265.135 73.2403 265.436 73.324 265.771 73.324ZM270.645 74.3115L274.45 66.7862V66.7224H270.049V65.5945H275.812V66.7607L272.02 74.3115H270.645Z" fill="white"/>
</g>
</g>
<g id="Group 1707483588">
<g id="Group 1000002935">
<circle id="Ellipse 2263" cx="97.112" cy="35.0646" r="4.89223" fill="#03CC98"/>
<path id="Vector 2296" d="M95.0149 34.9095L96.6277 36.4626L99.2082 33.667" stroke="#F2FAFD" stroke-width="0.69889" stroke-linecap="round" stroke-linejoin="round"/>
</g>
<path id="On track" d="M109.508 39.5855C108.851 39.5855 108.265 39.4295 107.75 39.1176C107.238 38.8025 106.832 38.3625 106.533 37.7978C106.238 37.2299 106.09 36.5651 106.09 35.8034C106.09 35.0384 106.238 34.372 106.533 33.804C106.832 33.236 107.238 32.7961 107.75 32.4842C108.265 32.169 108.851 32.0114 109.508 32.0114C110.161 32.0114 110.746 32.169 111.261 32.4842C111.776 32.7961 112.182 33.236 112.477 33.804C112.776 34.372 112.926 35.0384 112.926 35.8034C112.926 36.5651 112.776 37.2299 112.477 37.7978C112.182 38.3658 111.776 38.8057 111.261 39.1176C110.746 39.4295 110.161 39.5855 109.508 39.5855ZM109.508 38.4183C109.908 38.4183 110.266 38.3166 110.581 38.113C110.9 37.9095 111.151 37.614 111.335 37.2266C111.519 36.8359 111.611 36.3615 111.611 35.8034C111.611 35.242 111.519 34.7659 111.335 34.3753C111.151 33.9846 110.9 33.6874 110.581 33.4839C110.266 33.2803 109.908 33.1786 109.508 33.1786C109.107 33.1786 108.748 33.2803 108.429 33.4839C108.114 33.6874 107.863 33.9846 107.676 34.3753C107.492 34.7659 107.4 35.242 107.4 35.8034C107.4 36.3615 107.492 36.8359 107.676 37.2266C107.863 37.614 108.114 37.9095 108.429 38.113C108.748 38.3166 109.107 38.4183 109.508 38.4183ZM115.073 36.5273V39.4673H113.832V34.2669H115.053V35.0647C115.414 34.4639 115.946 34.1635 116.649 34.1635C117.193 34.1635 117.638 34.3391 117.983 34.6904C118.331 35.0417 118.505 35.5506 118.505 36.2171V39.4673H117.259V36.414C117.259 36.0332 117.167 35.7443 116.983 35.5473C116.8 35.3503 116.542 35.2518 116.21 35.2518C115.885 35.2518 115.614 35.3536 115.398 35.5572C115.181 35.7607 115.073 36.0841 115.073 36.5273ZM124.641 34.2669V35.2666H123.582V37.9751C123.582 38.1623 123.62 38.2919 123.696 38.3642C123.771 38.4331 123.909 38.4676 124.109 38.4676H124.641V39.4673H123.893C123.364 39.4673 122.972 39.3606 122.716 39.1472C122.463 38.9338 122.336 38.6038 122.336 38.1573V35.2666H121.43V34.2669H122.336V32.8486H123.582V34.2669H124.641ZM125.424 39.4673V34.2669H126.621V35.1287H126.636C126.731 34.8332 126.88 34.6083 127.084 34.454C127.291 34.2965 127.561 34.2177 127.896 34.2177C127.982 34.2177 128.057 34.2209 128.123 34.2275C128.192 34.2308 128.251 34.2341 128.3 34.2374V35.3405C128.254 35.3339 128.175 35.3257 128.064 35.3158C127.952 35.306 127.836 35.3011 127.714 35.3011C127.419 35.3011 127.169 35.4029 126.966 35.6064C126.765 35.81 126.665 36.1153 126.665 36.5224V39.4673H125.424ZM130.506 39.551C129.988 39.551 129.558 39.4213 129.216 39.162C128.878 38.8993 128.709 38.5086 128.709 37.9899C128.709 37.5959 128.804 37.2923 128.994 37.0789C129.188 36.8622 129.439 36.7046 129.748 36.6061C130.06 36.5076 130.395 36.4403 130.753 36.4042C131.235 36.3484 131.572 36.2991 131.762 36.2564C131.953 36.2138 132.048 36.1038 132.048 35.9265V35.8871C132.048 35.6639 131.962 35.4816 131.792 35.3405C131.624 35.1993 131.393 35.1287 131.097 35.1287C130.795 35.1287 130.549 35.1993 130.359 35.3405C130.171 35.4816 130.07 35.6622 130.053 35.8822H128.857C128.886 35.3667 129.101 34.9514 129.502 34.6363C129.902 34.3211 130.442 34.1635 131.122 34.1635C131.798 34.1635 132.327 34.3211 132.708 34.6363C133.088 34.9514 133.279 35.3799 133.279 35.9216V39.4673H132.058V38.7335H132.038C131.913 38.9633 131.733 39.157 131.496 39.3146C131.26 39.4722 130.93 39.551 130.506 39.551ZM130.812 38.6301C131.219 38.6301 131.527 38.525 131.737 38.3149C131.948 38.1015 132.053 37.8438 132.053 37.5418V36.9804C131.977 37.0296 131.831 37.0756 131.614 37.1183C131.398 37.1576 131.161 37.197 130.905 37.2364C130.639 37.2758 130.408 37.3513 130.211 37.463C130.017 37.5713 129.92 37.7437 129.92 37.9801C129.92 38.1836 130.001 38.3428 130.162 38.4577C130.322 38.5726 130.539 38.6301 130.812 38.6301ZM136.677 39.5855C136.171 39.5855 135.726 39.4706 135.342 39.2408C134.961 39.0109 134.664 38.6925 134.451 38.2854C134.241 37.8783 134.136 37.4072 134.136 36.872C134.136 36.3369 134.241 35.8658 134.451 35.4587C134.664 35.0483 134.961 34.7282 135.342 34.4984C135.726 34.2653 136.171 34.1487 136.677 34.1487C137.113 34.1487 137.503 34.2341 137.844 34.4048C138.185 34.5722 138.46 34.8053 138.666 35.1041C138.876 35.3996 139 35.741 139.036 36.1284H137.819C137.773 35.8493 137.654 35.6228 137.46 35.4488C137.269 35.2715 137.013 35.1829 136.692 35.1829C136.285 35.1829 135.966 35.3355 135.736 35.6409C135.506 35.9462 135.392 36.3566 135.392 36.872C135.392 37.3842 135.506 37.7929 135.736 38.0982C135.966 38.4003 136.285 38.5513 136.692 38.5513C137.017 38.5513 137.269 38.466 137.45 38.2952C137.631 38.1212 137.75 37.8898 137.809 37.6009H139.036C139.006 37.9817 138.886 38.3215 138.676 38.6203C138.469 38.919 138.194 39.1554 137.849 39.3294C137.507 39.5001 137.117 39.5855 136.677 39.5855ZM139.873 39.4673V32.1296H141.114V36.3746H141.129L143.153 34.2669H144.645L142.532 36.5125L144.773 39.4673H143.291L141.587 37.2414L141.114 37.7289V39.4673H139.873Z" fill="#04CD99"/>
</g>
<rect id="Rectangle 1000001675" x="-2" y="183.19" width="365.685" height="62.6006" fill="url(#paint7_linear_225_4540)"/>
</g>
</g>
</g>
</g>
</g>
</g>
</g>
</g>
</g>
<defs>
<filter id="filter0_f_225_4540" x="186.439" y="-44.2301" width="163.839" height="163.839" filterUnits="userSpaceOnUse" color-interpolation-filters="sRGB">
<feFlood flood-opacity="0" result="BackgroundImageFix"/>
<feBlend mode="normal" in="SourceGraphic" in2="BackgroundImageFix" result="shape"/>
<feGaussianBlur stdDeviation="4.66435" result="effect1_foregroundBlur_225_4540"/>
</filter>
<filter id="filter1_f_225_4540" x="221.793" y="-44.2301" width="163.839" height="163.839" filterUnits="userSpaceOnUse" color-interpolation-filters="sRGB">
<feFlood flood-opacity="0" result="BackgroundImageFix"/>
<feBlend mode="normal" in="SourceGraphic" in2="BackgroundImageFix" result="shape"/>
<feGaussianBlur stdDeviation="4.66435" result="effect1_foregroundBlur_225_4540"/>
</filter>
<filter id="filter2_f_225_4540" x="237.474" y="-4.96541" width="163.839" height="163.839" filterUnits="userSpaceOnUse" color-interpolation-filters="sRGB">
<feFlood flood-opacity="0" result="BackgroundImageFix"/>
<feBlend mode="normal" in="SourceGraphic" in2="BackgroundImageFix" result="shape"/>
<feGaussianBlur stdDeviation="4.66435" result="effect1_foregroundBlur_225_4540"/>
</filter>
<filter id="filter3_f_225_4540" x="246.489" y="37.7773" width="163.839" height="163.839" filterUnits="userSpaceOnUse" color-interpolation-filters="sRGB">
<feFlood flood-opacity="0" result="BackgroundImageFix"/>
<feBlend mode="normal" in="SourceGraphic" in2="BackgroundImageFix" result="shape"/>
<feGaussianBlur stdDeviation="4.66435" result="effect1_foregroundBlur_225_4540"/>
</filter>
<filter id="filter4_f_225_4540" x="237.474" y="-23.5338" width="163.839" height="163.839" filterUnits="userSpaceOnUse" color-interpolation-filters="sRGB">
<feFlood flood-opacity="0" result="BackgroundImageFix"/>
<feBlend mode="normal" in="SourceGraphic" in2="BackgroundImageFix" result="shape"/>
<feGaussianBlur stdDeviation="4.66435" result="effect1_foregroundBlur_225_4540"/>
</filter>
<filter id="filter5_dd_225_4540" x="18.5232" y="176.66" width="104.481" height="57.8379" filterUnits="userSpaceOnUse" color-interpolation-filters="sRGB">
<feFlood flood-opacity="0" result="BackgroundImageFix"/>
<feColorMatrix in="SourceAlpha" type="matrix" values="0 0 0 0 0 0 0 0 0 0 0 0 0 0 0 0 0 0 127 0" result="hardAlpha"/>
<feOffset dy="0.932869"/>
<feGaussianBlur stdDeviation="0.932869"/>
<feComposite in2="hardAlpha" operator="out"/>
<feColorMatrix type="matrix" values="0 0 0 0 0 0 0 0 0 0 0 0 0 0 0 0 0 0 0.02 0"/>
<feBlend mode="normal" in2="BackgroundImageFix" result="effect1_dropShadow_225_4540"/>
<feColorMatrix in="SourceAlpha" type="matrix" values="0 0 0 0 0 0 0 0 0 0 0 0 0 0 0 0 0 0 127 0" result="hardAlpha"/>
<feOffset dy="0.186574"/>
<feGaussianBlur stdDeviation="0.186574"/>
<feComposite in2="hardAlpha" operator="out"/>
<feColorMatrix type="matrix" values="0 0 0 0 0 0 0 0 0 0 0 0 0 0 0 0 0 0 0.04 0"/>
<feBlend mode="normal" in2="effect1_dropShadow_225_4540" result="effect2_dropShadow_225_4540"/>
<feBlend mode="normal" in="SourceGraphic" in2="effect2_dropShadow_225_4540" result="shape"/>
</filter>
<filter id="filter6_dd_225_4540" x="132.8" y="176.66" width="83.0254" height="57.8379" filterUnits="userSpaceOnUse" color-interpolation-filters="sRGB">
<feFlood flood-opacity="0" result="BackgroundImageFix"/>
<feColorMatrix in="SourceAlpha" type="matrix" values="0 0 0 0 0 0 0 0 0 0 0 0 0 0 0 0 0 0 127 0" result="hardAlpha"/>
<feOffset dy="0.932869"/>
<feGaussianBlur stdDeviation="0.932869"/>
<feComposite in2="hardAlpha" operator="out"/>
<feColorMatrix type="matrix" values="0 0 0 0 0 0 0 0 0 0 0 0 0 0 0 0 0 0 0.02 0"/>
<feBlend mode="normal" in2="BackgroundImageFix" result="effect1_dropShadow_225_4540"/>
<feColorMatrix in="SourceAlpha" type="matrix" values="0 0 0 0 0 0 0 0 0 0 0 0 0 0 0 0 0 0 127 0" result="hardAlpha"/>
<feOffset dy="0.186574"/>
<feGaussianBlur stdDeviation="0.186574"/>
<feComposite in2="hardAlpha" operator="out"/>
<feColorMatrix type="matrix" values="0 0 0 0 0 0 0 0 0 0 0 0 0 0 0 0 0 0 0.04 0"/>
<feBlend mode="normal" in2="effect1_dropShadow_225_4540" result="effect2_dropShadow_225_4540"/>
<feBlend mode="normal" in="SourceGraphic" in2="effect2_dropShadow_225_4540" result="shape"/>
</filter>
<filter id="filter7_dd_225_4540" x="224.687" y="176.66" width="80.2268" height="57.8379" filterUnits="userSpaceOnUse" color-interpolation-filters="sRGB">
<feFlood flood-opacity="0" result="BackgroundImageFix"/>
<feColorMatrix in="SourceAlpha" type="matrix" values="0 0 0 0 0 0 0 0 0 0 0 0 0 0 0 0 0 0 127 0" result="hardAlpha"/>
<feOffset dy="0.932869"/>
<feGaussianBlur stdDeviation="0.932869"/>
<feComposite in2="hardAlpha" operator="out"/>
<feColorMatrix type="matrix" values="0 0 0 0 0 0 0 0 0 0 0 0 0 0 0 0 0 0 0.02 0"/>
<feBlend mode="normal" in2="BackgroundImageFix" result="effect1_dropShadow_225_4540"/>
<feColorMatrix in="SourceAlpha" type="matrix" values="0 0 0 0 0 0 0 0 0 0 0 0 0 0 0 0 0 0 127 0" result="hardAlpha"/>
<feOffset dy="0.186574"/>
<feGaussianBlur stdDeviation="0.186574"/>
<feComposite in2="hardAlpha" operator="out"/>
<feColorMatrix type="matrix" values="0 0 0 0 0 0 0 0 0 0 0 0 0 0 0 0 0 0 0.04 0"/>
<feBlend mode="normal" in2="effect1_dropShadow_225_4540" result="effect2_dropShadow_225_4540"/>
<feBlend mode="normal" in="SourceGraphic" in2="effect2_dropShadow_225_4540" result="shape"/>
</filter>
<linearGradient id="paint0_linear_225_4540" x1="323.249" y1="-17.2037" x2="213.466" y2="92.5796" gradientUnits="userSpaceOnUse">
<stop stop-color="#0003DB" stop-opacity="0.8"/>
<stop offset="0.65" stop-color="#0003DB" stop-opacity="0.16"/>
<stop offset="1" stop-color="#E6E6FF" stop-opacity="0.08"/>
</linearGradient>
<linearGradient id="paint1_linear_225_4540" x1="358.603" y1="-17.2037" x2="248.82" y2="92.5796" gradientUnits="userSpaceOnUse">
<stop stop-color="#0003DB" stop-opacity="0.8"/>
<stop offset="0.65" stop-color="#0003DB" stop-opacity="0.16"/>
<stop offset="1" stop-color="#E6E6FF" stop-opacity="0.08"/>
</linearGradient>
<linearGradient id="paint2_linear_225_4540" x1="374.284" y1="22.061" x2="264.5" y2="131.844" gradientUnits="userSpaceOnUse">
<stop stop-color="#0003DB" stop-opacity="0.8"/>
<stop offset="0.65" stop-color="#0003DB" stop-opacity="0.16"/>
<stop offset="1" stop-color="#E6E6FF" stop-opacity="0.08"/>
</linearGradient>
<linearGradient id="paint3_linear_225_4540" x1="383.299" y1="64.8036" x2="273.515" y2="174.587" gradientUnits="userSpaceOnUse">
<stop stop-color="#0003DB" stop-opacity="0.8"/>
<stop offset="0.65" stop-color="#0003DB" stop-opacity="0.16"/>
<stop offset="1" stop-color="#E6E6FF" stop-opacity="0.08"/>
</linearGradient>
<linearGradient id="paint4_linear_225_4540" x1="374.284" y1="3.4926" x2="264.501" y2="113.276" gradientUnits="userSpaceOnUse">
<stop stop-color="#0003DB" stop-opacity="0.8"/>
<stop offset="0.65" stop-color="#0003DB" stop-opacity="0.16"/>
<stop offset="1" stop-color="#E6E6FF" stop-opacity="0.08"/>
</linearGradient>
<linearGradient id="paint5_linear_225_4540" x1="20.3892" y1="117.061" x2="343.162" y2="117.061" gradientUnits="userSpaceOnUse">
<stop stop-color="#EEEDFF"/>
<stop offset="0.404" stop-color="#5347FF"/>
</linearGradient>
<linearGradient id="paint6_linear_225_4540" x1="181.776" y1="89.4244" x2="181.776" y2="158.301" gradientUnits="userSpaceOnUse">
<stop stop-color="#5347FF" stop-opacity="0.2"/>
<stop offset="1" stop-color="#6047FF" stop-opacity="0"/>
</linearGradient>
<linearGradient id="paint7_linear_225_4540" x1="180.842" y1="183.19" x2="180.842" y2="245.791" gradientUnits="userSpaceOnUse">
<stop stop-color="white" stop-opacity="0"/>
<stop offset="1" stop-color="white"/>
</linearGradient>
<clipPath id="clip0_225_4540">
<rect width="324" height="246" rx="9.53264" fill="white"/>
</clipPath>
<clipPath id="clip1_225_4540">
<rect x="226.553" y="177.593" width="76.4953" height="54.1064" rx="5.59722" fill="white"/>
</clipPath>
</defs>
</svg>
