<svg width="528" height="331" viewBox="0 0 528 331" fill="none" xmlns="http://www.w3.org/2000/svg">
<rect width="528" height="331" fill="#FFFFFF"/>
<g id="LMS Landing Page">
<path d="M-2961 -5778.3C-2961 -5779.41 -2960.1 -5780.3 -2959 -5780.3H7190C7191.1 -5780.3 7192 -5779.41 7192 -5778.3V6617.7C7192 6618.8 7191.1 6619.7 7190 6619.7H-2959C-2960.1 6619.7 -2961 6618.8 -2961 6617.7V-5778.3Z" fill="#DFDFDF"/>
<path d="M-2959 -5780.3V-5779.3H7190V-5780.3V-5781.3H-2959V-5780.3ZM7192 -5778.3H7191V6617.7H7192H7193V-5778.3H7192ZM7190 6619.7V6618.7H-2959V6619.7V6620.7H7190V6619.7ZM-2961 6617.7H-2960V-5778.3H-2961H-2962V6617.7H-2961ZM-2959 6619.7V6618.7C-2959.55 6618.7 -2960 6618.25 -2960 6617.7H-2961H-2962C-2962 6619.35 -2960.66 6620.7 -2959 6620.7V6619.7ZM7192 6617.7H7191C7191 6618.25 7190.55 6618.7 7190 6618.7V6619.7V6620.7C7191.66 6620.7 7193 6619.35 7193 6617.7H7192ZM7190 -5780.3V-5779.3C7190.55 -5779.3 7191 -5778.86 7191 -5778.3H7192H7193C7193 -5779.96 7191.66 -5781.3 7190 -5781.3V-5780.3ZM-2959 -5780.3V-5781.3C-2960.66 -5781.3 -2962 -5779.96 -2962 -5778.3H-2961H-2960C-2960 -5778.86 -2959.55 -5779.3 -2959 -5779.3V-5780.3Z" fill="black" fill-opacity="0.1"/>
<g id="Theraptly - 1440w">
<rect width="1440" height="8097.49" transform="translate(-150 -4193.3)" fill="#F6F5F3"/>
<g id="Our Solution">
<rect width="1440" height="1565.5" transform="translate(-150 -1025)" fill="white"/>
<g id="Frame 2147207152">
<g id="Container">
<g id="Background+Border">
<rect x="-29.5" y="-238.5" width="587" height="598.778" rx="15.5" fill="#FAFAFA"/>
<rect x="-29.5" y="-238.5" width="587" height="598.778" rx="15.5" stroke="#FFF8EA"/>
<g id="Container Image">
<g clip-path="url(#clip0_225_4540)">
<rect width="528" height="330.778" rx="9.53264" fill="white"/>
<g id="Group 2087331481">
<circle id="Ellipse 11801" opacity="0.4" cx="264" cy="187.619" r="264" fill="url(#paint0_radial_225_4540)"/>
<g id="Vector Lines">
<path id="Vector 8112" d="M155.274 168.704H403.498" stroke="#DFDFDF" stroke-width="1.4"/>
<path id="Vector 8115" d="M145.455 168.704H176.317" stroke="url(#paint1_linear_225_4540)" stroke-width="1.4" stroke-linecap="round"/>
<path id="Vector 8116" d="M358.681 168.704H389.543" stroke="url(#paint2_linear_225_4540)" stroke-width="1.4" stroke-linecap="round"/>
<path id="Vector 8113" d="M191.758 236.147L343.921 96.3322" stroke="#DFDFDF" stroke-width="1.4"/>
<path id="Vector 8117" d="M308.026 129.312L330.792 108.477" stroke="url(#paint3_linear_225_4540)" stroke-width="1.4" stroke-linecap="round"/>
<path id="Vector 8118" d="M221.788 208.555L198.981 229.347" stroke="url(#paint4_linear_225_4540)" stroke-width="1.4" stroke-linecap="round"/>
<path id="Vector 8114" d="M330.783 236.147L196.561 106.186" stroke="#DFDFDF" stroke-width="1.4"/>
<path id="Vector 8119" d="M220.242 129.124L198.071 107.656" stroke="url(#paint5_linear_225_4540)" stroke-width="1.4" stroke-linecap="round"/>
</g>
<g id="Wrappers">
<g id="Wrapper" filter="url(#filter0_d_225_4540)">
<rect x="43.814" y="36.5229" width="167.232" height="56.1121" rx="11.0444" transform="rotate(8 43.814 36.5229)" fill="#FAFAFA"/>
<rect x="44.0209" y="36.7976" width="166.746" height="55.6257" rx="10.8013" transform="rotate(8 44.0209 36.7976)" stroke="#D1D2FF" stroke-width="0.48635"/>
<g id="Group 1707483577">
<path id="High Priority" d="M75.8283 76.9282L77.9485 61.8419L80.1962 62.1578L79.2983 68.5467L86.801 69.6011L87.6989 63.2122L89.9466 63.5281L87.8264 78.6144L85.5786 78.2985L86.5249 71.5654L79.0223 70.5109L78.076 77.2441L75.8283 76.9282ZM90.4184 78.9787L91.921 68.2867L94.0574 68.5869L92.5548 79.2789L90.4184 78.9787ZM93.2432 66.5933C92.8652 66.5402 92.5621 66.3703 92.3339 66.0835C92.1135 65.791 92.0289 65.4624 92.0801 65.0979C92.1323 64.7267 92.3042 64.4342 92.5958 64.2205C92.8951 64.001 93.2337 63.9178 93.6117 63.9709C93.9897 64.0241 94.2923 64.1974 94.5195 64.4909C94.7477 64.7776 94.8356 65.1066 94.7835 65.4779C94.7322 65.8424 94.557 66.1344 94.2577 66.3539C93.9593 66.5666 93.6212 66.6464 93.2432 66.5933ZM99.0275 84.649C97.718 84.465 96.689 84.0243 95.9403 83.3272C95.1916 82.63 94.8199 81.7483 94.8252 80.6821L96.9616 80.9824C97.0236 81.5211 97.2622 81.9539 97.6774 82.2807C98.0927 82.6075 98.6243 82.8164 99.2723 82.9075C100.136 83.0289 100.844 82.8909 101.395 82.4935C101.947 82.096 102.283 81.4653 102.405 80.6013L102.632 78.9813L102.622 78.9799C102.164 79.5487 101.63 79.9418 101.021 80.1591C100.419 80.3773 99.7675 80.4371 99.0655 80.3385C98.134 80.2076 97.3533 79.8604 96.7235 79.2969C96.0947 78.7267 95.6457 78.0028 95.3767 77.1252C95.1087 76.2409 95.051 75.2554 95.2037 74.1686C95.3565 73.0819 95.6835 72.1504 96.185 71.3742C96.6932 70.599 97.3276 70.0274 98.0883 69.6593C98.85 69.2845 99.6898 69.1617 100.608 69.2907C101.303 69.3884 101.92 69.6265 102.459 70.0051C102.998 70.3837 103.401 70.9154 103.67 71.6002L103.68 71.6016L103.909 69.9715L106.015 70.2674L104.532 80.8177C104.381 81.8977 104.039 82.7376 103.507 83.3375C102.975 83.9373 102.32 84.3374 101.542 84.5377C100.763 84.7381 99.9253 84.7752 99.0275 84.649ZM99.7584 78.567C100.67 78.6951 101.442 78.463 102.076 77.8706C102.718 77.2724 103.117 76.4131 103.275 75.2926C103.432 74.1721 103.285 73.2393 102.832 72.4942C102.387 71.7433 101.708 71.3039 100.797 71.1758C99.9332 71.0544 99.1866 71.273 98.5574 71.8316C97.9359 72.3844 97.5408 73.2615 97.3719 74.463C97.203 75.6645 97.3407 76.62 97.7847 77.3294C98.2365 78.0331 98.8944 78.4456 99.7584 78.567ZM109.924 75.4424L109.059 81.5984L106.922 81.2981L109.042 66.2119L111.179 66.5121L110.345 72.4454C111.245 71.381 112.39 70.9465 113.78 71.142C114.516 71.2454 115.152 71.4999 115.687 71.9055C116.229 72.3052 116.625 72.8427 116.874 73.5179C117.124 74.1931 117.183 74.9964 117.052 75.9279L116.116 82.5902L113.979 82.2899L114.879 75.8909C114.999 75.0337 114.884 74.3601 114.533 73.8702C114.183 73.3736 113.64 73.0736 112.904 72.9702C112.175 72.8678 111.529 73.0076 110.966 73.3896C110.411 73.7659 110.063 74.4501 109.924 75.4424ZM123.639 83.6474L125.759 68.5612L131.348 69.3467C132.961 69.5734 134.181 70.175 135.007 71.1516C135.834 72.1282 136.145 73.3387 135.942 74.7832C135.807 75.7485 135.47 76.5546 134.931 77.2017C134.394 77.842 133.7 78.2986 132.849 78.5714C132 78.8375 131.035 78.8946 129.955 78.7428L126.685 78.2832L125.886 83.9633L123.639 83.6474ZM126.958 76.3392L130.188 76.7932C131.16 76.9298 131.96 76.7911 132.59 76.377C133.227 75.9572 133.605 75.3221 133.725 74.4716C133.845 73.6211 133.655 72.913 133.156 72.3473C132.665 71.7758 131.934 71.4218 130.962 71.2851L127.732 70.8312L126.958 76.3392ZM136.123 85.402L137.625 74.71L139.671 74.9974L139.427 76.7288L139.468 76.7345C139.746 76.1747 140.117 75.7623 140.581 75.4971C141.053 75.2261 141.63 75.1385 142.311 75.2343C142.473 75.2571 142.621 75.2847 142.754 75.3172C142.887 75.3497 142.997 75.3755 143.084 75.3945L142.804 77.3892C142.725 77.3575 142.583 77.3169 142.377 77.2672C142.171 77.2108 141.944 77.1651 141.694 77.13C141.093 77.0455 140.547 77.1822 140.057 77.54C139.573 77.8987 139.269 78.5135 139.147 79.3842L138.259 85.7022L136.123 85.402ZM143.21 86.3981L144.713 75.7061L146.849 76.0063L145.347 86.6983L143.21 86.3981ZM146.035 74.0127C145.657 73.9596 145.354 73.7897 145.126 73.5029C144.905 73.2104 144.821 72.8818 144.872 72.5173C144.924 72.1461 145.096 71.8536 145.388 71.6399C145.687 71.4204 146.025 71.3372 146.403 71.3903C146.781 71.4435 147.084 71.6168 147.311 71.9103C147.539 72.197 147.627 72.526 147.575 72.8973C147.524 73.2618 147.349 73.5538 147.049 73.7733C146.751 73.986 146.413 74.0658 146.035 74.0127ZM152.329 87.9274C151.31 87.7842 150.449 87.4222 149.745 86.8416C149.042 86.2609 148.534 85.5218 148.219 84.6241C147.912 83.7273 147.835 82.7322 147.988 81.6387C148.144 80.5317 148.493 79.5895 149.036 78.8123C149.587 78.0293 150.28 77.4556 151.116 77.0912C151.953 76.7201 152.881 76.6062 153.9 76.7494C154.919 76.8927 155.777 77.2575 156.472 77.844C157.175 78.4246 157.68 79.1667 157.987 80.0702C158.301 80.9679 158.38 81.9703 158.225 83.0773C158.071 84.1708 157.719 85.1057 157.17 85.882C156.627 86.6592 155.938 87.23 155.102 87.5943C154.272 87.9596 153.348 88.0707 152.329 87.9274ZM152.588 86.0847C153.506 86.2137 154.276 85.9777 154.897 85.3767C155.518 84.7757 155.909 83.9082 156.068 82.7742C156.229 81.6267 156.091 80.6746 155.654 79.9179C155.223 79.1622 154.552 78.7202 153.641 78.5922C152.73 78.4641 151.96 78.7035 151.331 79.3103C150.709 79.9113 150.317 80.7889 150.155 81.9432C149.995 83.0839 150.13 84.0288 150.562 84.7778C150.995 85.52 151.67 85.9557 152.588 86.0847ZM159.37 88.6691L160.872 77.9771L162.918 78.2646L162.674 79.9959L162.715 80.0016C162.993 79.4419 163.364 79.0294 163.828 78.7643C164.3 78.4933 164.877 78.4057 165.558 78.5015C165.72 78.5243 165.868 78.5519 166.001 78.5844C166.134 78.6168 166.244 78.6426 166.331 78.6617L166.051 80.6563C165.972 80.6247 165.83 80.584 165.624 80.5344C165.418 80.478 165.191 80.4322 164.941 80.3971C164.34 80.3127 163.794 80.4494 163.304 80.8071C162.82 81.1659 162.516 81.7806 162.394 82.6514L161.506 88.9694L159.37 88.6691ZM166.457 89.6652L167.96 78.9732L170.096 79.2735L168.594 89.9655L166.457 89.6652ZM169.282 77.2799C168.904 77.2267 168.601 77.0568 168.373 76.7701C168.152 76.4775 168.068 76.149 168.119 75.7845C168.171 75.4132 168.343 75.1208 168.635 74.9071C168.934 74.6876 169.272 74.6044 169.65 74.6575C170.028 74.7106 170.331 74.8839 170.558 75.1774C170.786 75.4642 170.874 75.7932 170.822 76.1644C170.771 76.5289 170.596 76.8209 170.296 77.0404C169.998 77.2532 169.66 77.333 169.282 77.2799ZM177.852 80.3635L177.604 82.1252L175.438 81.8207L174.58 87.9261C174.524 88.3243 174.566 88.6125 174.706 88.7905C174.846 88.9685 175.129 89.0874 175.554 89.1471L176.597 89.2937L176.349 91.0555L175.003 90.8662C173.025 90.5883 172.156 89.5988 172.395 87.8978L173.291 81.519L171.408 81.2543L171.655 79.4926L173.539 79.7573L173.949 76.8413L176.095 77.1429L175.685 80.0589L177.852 80.3635ZM178.154 95.625L178.407 93.8227L179.562 93.9849C179.899 94.0324 180.186 93.9729 180.423 93.8066C180.666 93.6479 180.899 93.3606 181.122 92.9446L181.786 91.7473L179.148 80.5456L181.436 80.8672L182.749 87.0298C182.834 87.448 182.916 87.8691 182.994 88.293C183.073 88.7103 183.149 89.127 183.221 89.5433C183.406 89.1631 183.593 88.7833 183.784 88.404C183.983 88.0189 184.181 87.6372 184.379 87.2589L187.309 81.6925L189.567 82.0098L182.941 93.8919C182.119 95.3803 180.976 96.0215 179.511 95.8156L178.154 95.625Z" fill="#292929"/>
<g id="Dot">
<rect x="56.6991" y="61.939" width="8.41681" height="8.41681" rx="4.20841" transform="rotate(8 56.6991 61.939)" fill="#0003DB"/>
</g>
</g>
</g>
<g id="Wrapper_2" filter="url(#filter1_d_225_4540)">
<rect x="329.522" y="58.2598" width="156.189" height="56.1121" rx="11.0444" transform="rotate(-8 329.522 58.2598)" fill="#FAFAFA"/>
<rect x="329.796" y="58.4667" width="155.703" height="55.6257" rx="10.8013" transform="rotate(-8 329.796 58.4667)" stroke="#D1D2FF" stroke-width="0.48635"/>
<g id="Group 1707483577_2">
<path id="In progress" d="M371.539 72.8758L373.66 87.962L371.412 88.2779L369.292 73.1917L371.539 72.8758ZM377.513 81.1429L378.378 87.2989L376.241 87.5992L374.739 76.9072L376.835 76.6126L377.061 78.2225C377.619 76.905 378.61 76.1462 380.035 75.946C380.77 75.8426 381.451 75.9122 382.077 76.1546C382.709 76.3893 383.238 76.7968 383.664 77.3771C384.089 77.9574 384.368 78.7133 384.499 79.6448L385.435 86.3071L383.299 86.6073L382.399 80.2083C382.279 79.3511 381.982 78.7354 381.51 78.3613C381.036 77.9804 380.432 77.8416 379.696 77.9451C378.967 78.0475 378.385 78.36 377.949 78.8824C377.519 79.3972 377.373 80.1507 377.513 81.1429ZM393.381 89.5063L391.283 74.582L393.379 74.2875L393.595 75.8265L393.626 75.8222C393.881 75.1875 394.281 74.6838 394.828 74.311C395.374 73.9382 395.995 73.703 396.69 73.6053C397.608 73.4762 398.448 73.5991 399.21 73.9739C399.97 74.3419 400.602 74.9174 401.104 75.7004C401.613 76.4756 401.944 77.4133 402.099 78.5136C402.253 79.6138 402.197 80.6095 401.93 81.5006C401.662 82.3849 401.213 83.1122 400.585 83.6824C399.955 84.2458 399.174 84.593 398.243 84.7239C397.547 84.8216 396.898 84.758 396.295 84.533C395.692 84.308 395.169 83.9168 394.726 83.3596L394.696 83.3639L395.517 89.206L393.381 89.5063ZM397.548 82.9424C398.412 82.8209 399.066 82.4055 399.51 81.6961C399.961 80.9857 400.102 80.0263 399.932 78.8181C399.762 77.6098 399.363 76.7264 398.733 76.1678C398.11 75.6015 397.366 75.3791 396.502 75.5005C395.591 75.6286 394.91 76.0719 394.459 76.8305C394.014 77.5814 393.871 78.5204 394.029 79.6477C394.186 80.7682 394.583 81.6314 395.219 82.2372C395.861 82.8354 396.637 83.0704 397.548 82.9424ZM404.733 83.5949L403.231 72.9029L405.276 72.6155L405.519 74.3468L405.56 74.3411C405.673 73.7264 405.916 73.2276 406.289 72.8448C406.668 72.4543 407.198 72.2111 407.88 72.1153C408.042 72.0925 408.191 72.0784 408.328 72.0729C408.465 72.0675 408.578 72.0619 408.666 72.0563L408.947 74.051C408.863 74.0421 408.715 74.0422 408.503 74.0514C408.29 74.0538 408.058 74.0726 407.809 74.1077C407.208 74.1921 406.721 74.4739 406.348 74.9531C405.981 75.4314 405.859 76.1059 405.982 76.9767L406.87 83.2947L404.733 83.5949ZM416.249 82.2243C415.23 82.3675 414.302 82.2569 413.466 81.8926C412.63 81.5282 411.938 80.9579 411.388 80.1816C410.845 79.4044 410.497 78.469 410.343 77.3755C410.188 76.2685 410.264 75.2666 410.571 74.3699C410.885 73.4654 411.393 72.7229 412.096 72.1422C412.798 71.5548 413.659 71.1895 414.678 71.0462C415.697 70.903 416.622 71.0174 417.452 71.3895C418.288 71.7538 418.978 72.328 419.522 73.112C420.071 73.8883 420.424 74.8299 420.58 75.9369C420.733 77.0304 420.653 78.026 420.339 78.9237C420.031 79.8205 419.526 80.5592 418.823 81.1398C418.126 81.7195 417.268 82.081 416.249 82.2243ZM415.99 80.3815C416.908 80.2525 417.583 79.8135 418.015 79.0645C418.446 78.3155 418.582 77.374 418.423 76.24C418.262 75.0925 417.867 74.2153 417.237 73.6085C416.615 73.0008 415.848 72.7609 414.937 72.889C414.026 73.0171 413.352 73.4594 412.914 74.2161C412.482 74.9651 412.348 75.9168 412.51 77.071C412.67 78.2118 413.061 79.0826 413.683 79.6836C414.303 80.2779 415.072 80.5105 415.99 80.3815ZM428.504 84.7146C427.194 84.8986 426.084 84.7587 425.172 84.2949C424.26 83.8311 423.66 83.086 423.371 82.0597L425.507 81.7594C425.715 82.2602 426.064 82.6104 426.553 82.8101C427.042 83.0098 427.611 83.0641 428.259 82.9731C429.123 82.8516 429.765 82.5239 430.186 81.9898C430.606 81.4558 430.756 80.7568 430.635 79.8928L430.407 78.2728L430.397 78.2742C430.113 78.9474 429.708 79.4723 429.183 79.849C428.664 80.2247 428.054 80.4619 427.352 80.5606C426.421 80.6915 425.575 80.5729 424.814 80.2049C424.052 79.8301 423.421 79.258 422.921 78.4886C422.419 77.7124 422.092 76.7809 421.939 75.6942C421.787 74.6074 421.844 73.6219 422.112 72.7376C422.387 71.8523 422.839 71.1279 423.469 70.5645C424.098 69.9942 424.872 69.6446 425.79 69.5156C426.485 69.4179 427.144 69.4768 427.766 69.6922C428.388 69.9076 428.923 70.3074 429.37 70.8916L429.38 70.8902L429.151 69.2601L431.257 68.9641L432.739 79.5144C432.891 80.5944 432.794 81.4959 432.448 82.2191C432.103 82.9423 431.583 83.5074 430.89 83.9146C430.197 84.3217 429.402 84.5884 428.504 84.7146ZM427.53 78.6668C428.441 78.5387 429.12 78.1026 429.566 77.3584C430.018 76.6066 430.165 75.6704 430.008 74.5499C429.85 73.4294 429.451 72.5735 428.81 71.9821C428.175 71.383 427.402 71.1474 426.491 71.2755C425.627 71.3969 424.97 71.8128 424.519 72.5232C424.074 73.2259 423.936 74.178 424.105 75.3795C424.274 76.581 424.669 77.4616 425.292 78.0211C425.92 78.573 426.666 78.7882 427.53 78.6668ZM435.169 79.3174L433.666 68.6254L435.712 68.338L435.955 70.0694L435.995 70.0637C436.109 69.4489 436.352 68.9501 436.725 68.5673C437.103 68.1768 437.634 67.9336 438.315 67.8378C438.477 67.8151 438.627 67.8009 438.764 67.7955C438.901 67.79 439.013 67.7845 439.102 67.7789L439.383 69.7735C439.299 69.7646 439.151 69.7648 438.939 69.7739C438.726 69.7763 438.494 69.7951 438.244 69.8302C437.644 69.9146 437.157 70.1965 436.783 70.6757C436.417 71.1539 436.295 71.8284 436.417 72.6992L437.305 79.0172L435.169 79.3174ZM446.655 77.9511C445.595 78.1 444.65 77.9884 443.82 77.6164C442.996 77.2434 442.32 76.6673 441.791 75.8882C441.267 75.1013 440.93 74.1713 440.779 73.0981C440.626 72.0113 440.703 71.0162 441.01 70.1127C441.317 69.2091 441.811 68.4651 442.493 67.8806C443.174 67.2893 444 66.9253 444.972 66.7887C445.985 66.6464 446.895 66.7593 447.704 67.1275C448.52 67.4947 449.193 68.0712 449.723 68.8571C450.253 69.6362 450.595 70.5759 450.749 71.6762L450.83 72.2533L442.963 73.359C443.139 74.3185 443.526 75.0592 444.122 75.5811C444.725 76.1021 445.496 76.2966 446.434 76.1648C447.136 76.0661 447.691 75.8264 448.099 75.4456C448.507 75.0648 448.749 74.6108 448.826 74.0837L450.882 73.7948C450.85 74.5013 450.649 75.1492 450.277 75.7383C449.913 76.3264 449.417 76.816 448.79 77.2069C448.17 77.5901 447.458 77.8382 446.655 77.9511ZM442.756 71.7361L448.517 70.9264C448.31 70.0883 447.915 69.4589 447.333 69.0382C446.749 68.6108 446.053 68.454 445.243 68.5679C444.433 68.6817 443.806 69.0244 443.364 69.596C442.927 70.1599 442.724 70.8733 442.756 71.7361ZM457.348 76.4585C456.531 76.5733 455.777 76.5451 455.085 76.3738C454.393 76.2026 453.809 75.8856 453.33 75.4228C452.859 74.959 452.546 74.3457 452.39 73.5828L454.496 73.2868C454.787 74.4712 455.644 74.9634 457.068 74.7632C457.743 74.6683 458.257 74.455 458.61 74.1233C458.969 73.7905 459.119 73.4115 459.059 72.9863C459.008 72.6218 458.825 72.3515 458.512 72.1753C458.197 71.9924 457.803 71.8826 457.329 71.8458L455.502 71.7C453.394 71.5419 452.228 70.6664 452.004 69.0734C451.872 68.1284 452.138 67.3062 452.804 66.6069C453.476 65.9067 454.424 65.4707 455.645 65.299C456.854 65.1292 457.89 65.3036 458.754 65.8223C459.625 66.3332 460.149 67.1268 460.328 68.203L458.283 68.4905C458.203 67.9717 457.947 67.5705 457.515 67.2871C457.082 66.9969 456.548 66.8964 455.913 66.9856C455.306 67.071 454.843 67.2806 454.525 67.6144C454.207 67.9481 454.077 68.3209 454.135 68.7326C454.186 69.0971 454.363 69.3718 454.664 69.5566C454.972 69.7405 455.373 69.8527 455.868 69.8934L457.747 70.0422C458.819 70.1256 459.635 70.3723 460.195 70.7823C460.755 71.1923 461.09 71.7855 461.199 72.5617C461.295 73.2435 461.188 73.8573 460.879 74.4031C460.576 74.9413 460.12 75.3909 459.51 75.752C458.899 76.1063 458.178 76.3418 457.348 76.4585ZM467.513 75.0298C466.697 75.1446 465.942 75.1164 465.251 74.9452C464.559 74.7739 463.974 74.4569 463.496 73.9941C463.025 73.5303 462.711 72.917 462.556 72.1541L464.662 71.8581C464.952 73.0426 465.81 73.5347 467.234 73.3345C467.909 73.2397 468.423 73.0264 468.775 72.6946C469.135 72.3619 469.284 71.9829 469.225 71.5576C469.173 71.1931 468.991 70.9228 468.677 70.7466C468.362 70.5637 467.968 70.4539 467.495 70.4172L465.668 70.2713C463.56 70.1133 462.394 69.2377 462.17 67.6447C462.037 66.6997 462.304 65.8776 462.969 65.1783C463.642 64.478 464.589 64.042 465.811 63.8703C467.019 63.7005 468.055 63.875 468.92 64.3936C469.79 64.9046 470.315 65.6982 470.494 66.7744L468.448 67.0618C468.368 66.543 468.112 66.1419 467.68 65.8585C467.247 65.5683 466.713 65.4678 466.079 65.5569C465.471 65.6423 465.009 65.8519 464.691 66.1857C464.373 66.5195 464.243 66.8922 464.301 67.304C464.352 67.6685 464.528 67.9431 464.829 68.1279C465.138 68.3118 465.539 68.424 466.033 68.4647L467.913 68.6136C468.984 68.697 469.8 68.9437 470.36 69.3537C470.921 69.7637 471.255 70.3568 471.364 71.133C471.46 71.8148 471.354 72.4286 471.045 72.9745C470.742 73.5126 470.285 73.9623 469.675 74.3233C469.064 74.6777 468.344 74.9132 467.513 75.0298Z" fill="#292929"/>
<g id="Dot_2">
<rect x="348.891" y="79.1426" width="8.41681" height="8.41681" rx="4.20841" transform="rotate(-8 348.891 79.1426)" fill="#0003DB"/>
</g>
</g>
</g>
<g id="Wrapper_3" filter="url(#filter2_d_225_4540)">
<rect x="40.4851" y="140.647" width="116.027" height="56.1121" rx="11.0444" fill="#FAFAFA"/>
<rect x="40.7283" y="140.891" width="115.541" height="55.6257" rx="10.8013" stroke="#D1D2FF" stroke-width="0.48635"/>
<g id="Group 1707483577_3">
<path id="Urgent" d="M83.6796 176.449C82.4595 176.449 81.3962 176.217 80.4896 175.754C79.5898 175.283 78.8878 174.636 78.3833 173.811C77.8858 172.986 77.637 172.046 77.637 170.989V160.969H79.8966V170.805C79.8966 171.848 80.234 172.707 80.9088 173.382C81.5904 174.056 82.514 174.394 83.6796 174.394C84.852 174.394 85.7757 174.056 86.4505 173.382C87.1321 172.707 87.4729 171.848 87.4729 170.805V160.969H89.7325V170.989C89.7325 172.046 89.4803 172.986 88.9759 173.811C88.4783 174.636 87.7763 175.283 86.8697 175.754C85.9631 176.217 84.8998 176.449 83.6796 176.449ZM92.2784 176.204V165.407H94.3438V167.155H94.3847C94.5824 166.562 94.8925 166.102 95.3151 165.775C95.7446 165.441 96.3035 165.274 96.9919 165.274C97.1555 165.274 97.3055 165.28 97.4418 165.294C97.5781 165.308 97.6906 165.318 97.7792 165.325V167.339C97.6974 167.319 97.5509 167.298 97.3396 167.278C97.1283 167.25 96.8965 167.237 96.6443 167.237C96.0377 167.237 95.5162 167.448 95.08 167.871C94.6505 168.293 94.4358 168.944 94.4358 169.824V176.204H92.2784ZM103.945 180.621C102.622 180.621 101.542 180.327 100.703 179.741C99.865 179.155 99.3743 178.334 99.2311 177.277H101.388C101.525 177.802 101.821 178.197 102.278 178.463C102.735 178.729 103.29 178.862 103.945 178.862C104.817 178.862 105.499 178.627 105.99 178.156C106.48 177.686 106.726 177.015 106.726 176.142V174.506H106.715C106.341 175.133 105.867 175.597 105.294 175.897C104.728 176.197 104.091 176.347 103.382 176.347C102.442 176.347 101.62 176.112 100.918 175.641C100.216 175.164 99.6708 174.51 99.2822 173.678C98.8937 172.84 98.6994 171.872 98.6994 170.774C98.6994 169.677 98.8937 168.709 99.2822 167.871C99.6776 167.032 100.226 166.378 100.928 165.908C101.63 165.43 102.445 165.192 103.372 165.192C104.074 165.192 104.718 165.342 105.304 165.642C105.891 165.942 106.364 166.412 106.726 167.053H106.736V165.407H108.863V176.06C108.863 177.151 108.641 178.03 108.198 178.698C107.755 179.366 107.162 179.854 106.419 180.16C105.676 180.467 104.851 180.621 103.945 180.621ZM103.822 174.496C104.742 174.496 105.475 174.159 106.02 173.484C106.572 172.802 106.848 171.896 106.848 170.764C106.848 169.633 106.572 168.729 106.02 168.055C105.475 167.373 104.742 167.032 103.822 167.032C102.949 167.032 102.241 167.353 101.695 167.993C101.157 168.627 100.887 169.551 100.887 170.764C100.887 171.977 101.157 172.905 101.695 173.545C102.241 174.179 102.949 174.496 103.822 174.496ZM115.907 176.449C114.837 176.449 113.917 176.207 113.147 175.723C112.383 175.239 111.794 174.575 111.378 173.729C110.969 172.877 110.764 171.909 110.764 170.826C110.764 169.728 110.979 168.753 111.409 167.901C111.838 167.049 112.431 166.381 113.188 165.897C113.944 165.407 114.813 165.161 115.795 165.161C116.817 165.161 117.703 165.4 118.453 165.877C119.21 166.354 119.796 167.019 120.212 167.871C120.628 168.716 120.835 169.694 120.835 170.805V171.388H112.891C112.932 172.363 113.211 173.15 113.729 173.75C114.254 174.35 114.99 174.649 115.938 174.649C116.647 174.649 117.23 174.489 117.686 174.169C118.143 173.849 118.446 173.433 118.596 172.922H120.672C120.542 173.617 120.253 174.23 119.803 174.762C119.36 175.294 118.801 175.709 118.126 176.009C117.458 176.302 116.718 176.449 115.907 176.449ZM112.912 169.752H118.729C118.641 168.893 118.337 168.215 117.819 167.717C117.301 167.213 116.633 166.961 115.815 166.961C114.997 166.961 114.329 167.213 113.811 167.717C113.3 168.215 113 168.893 112.912 169.752ZM124.864 169.987V176.204H122.707V165.407H124.823V167.032C125.559 165.805 126.646 165.192 128.085 165.192C128.828 165.192 129.492 165.355 130.078 165.683C130.671 166.003 131.138 166.48 131.479 167.114C131.82 167.748 131.99 168.535 131.99 169.476V176.204H129.833V169.742C129.833 168.876 129.625 168.225 129.209 167.789C128.794 167.346 128.214 167.124 127.471 167.124C126.735 167.124 126.115 167.353 125.61 167.809C125.113 168.259 124.864 168.985 124.864 169.987ZM139.628 165.407V167.186H137.44V173.351C137.44 173.753 137.522 174.033 137.685 174.189C137.849 174.346 138.146 174.425 138.575 174.425H139.628V176.204H138.268C136.271 176.204 135.272 175.345 135.272 173.627V167.186H133.371V165.407H135.272V162.462H137.44V165.407H139.628Z" fill="#292929"/>
<g id="Dot_3">
<rect x="56.6791" y="164.023" width="8.41681" height="8.41681" rx="4.20841" fill="#0003DB"/>
</g>
</g>
</g>
<g id="Wrapper_4" filter="url(#filter3_d_225_4540)">
<rect x="392.575" y="140.647" width="94.9422" height="56.1121" rx="11.0444" fill="#FAFAFA"/>
<rect x="392.818" y="140.891" width="94.4559" height="55.6257" rx="10.8013" stroke="#D1D2FF" stroke-width="0.48635"/>
<g id="Group 1707483577_4">
<path id="New" d="M429.756 176.204V160.969H432.272L438.089 170.181C438.267 170.468 438.509 170.873 438.815 171.398C439.122 171.923 439.429 172.455 439.735 172.993C439.715 172.441 439.698 171.882 439.684 171.316C439.678 170.744 439.674 170.318 439.674 170.038V160.969H441.954V176.204H439.419L434.214 167.973C434.003 167.639 433.696 167.141 433.294 166.48C432.899 165.812 432.449 165.045 431.944 164.18C431.979 165.073 431.999 165.843 432.006 166.49C432.019 167.131 432.026 167.622 432.026 167.963V176.204H429.756ZM449.162 176.449C448.092 176.449 447.172 176.207 446.402 175.723C445.638 175.239 445.049 174.575 444.633 173.729C444.224 172.877 444.02 171.909 444.02 170.826C444.02 169.728 444.234 168.753 444.664 167.901C445.093 167.049 445.686 166.381 446.443 165.897C447.199 165.407 448.068 165.161 449.05 165.161C450.072 165.161 450.959 165.4 451.708 165.877C452.465 166.354 453.051 167.019 453.467 167.871C453.883 168.716 454.091 169.694 454.091 170.805V171.388H446.146C446.187 172.363 446.467 173.15 446.985 173.75C447.51 174.35 448.246 174.649 449.193 174.649C449.902 174.649 450.485 174.489 450.942 174.169C451.398 173.849 451.702 173.433 451.852 172.922H453.927C453.798 173.617 453.508 174.23 453.058 174.762C452.615 175.294 452.056 175.709 451.381 176.009C450.713 176.302 449.974 176.449 449.162 176.449ZM446.167 169.752H451.984C451.896 168.893 451.593 168.215 451.074 167.717C450.556 167.213 449.888 166.961 449.07 166.961C448.253 166.961 447.585 167.213 447.066 167.717C446.555 168.215 446.255 168.893 446.167 169.752ZM457.986 176.204L454.643 165.407H456.902L458.14 169.824C458.324 170.478 458.497 171.146 458.661 171.828C458.831 172.509 458.998 173.184 459.162 173.852C459.339 173.184 459.513 172.509 459.684 171.828C459.861 171.146 460.038 170.478 460.215 169.824L461.473 165.407H463.528L464.765 169.824C464.949 170.471 465.126 171.132 465.297 171.807C465.467 172.482 465.638 173.15 465.808 173.811C465.972 173.15 466.135 172.482 466.299 171.807C466.469 171.132 466.646 170.471 466.83 169.824L468.078 165.407H470.358L467.014 176.204H464.765L463.395 171.5C463.238 170.955 463.085 170.396 462.935 169.824C462.792 169.251 462.649 168.682 462.505 168.116C462.356 168.682 462.206 169.251 462.056 169.824C461.912 170.396 461.759 170.955 461.595 171.5L460.205 176.204H457.986Z" fill="#292929"/>
<g id="Dot_4">
<rect x="408.727" y="164.023" width="8.41681" height="8.41681" rx="4.20841" fill="#0003DB"/>
</g>
</g>
</g>
<g id="Wrapper_5" filter="url(#filter4_d_225_4540)">
<rect x="192.435" y="140.647" width="143.136" height="56.1121" rx="11.0444" fill="#FAFAFA"/>
<rect x="192.678" y="140.891" width="142.65" height="55.6257" rx="10.8013" stroke="#D1D2FF" stroke-width="0.48635"/>
<g id="Group 1707483577_5">
<path id="Complete" d="M236.256 176.449C234.859 176.449 233.625 176.118 232.555 175.457C231.485 174.796 230.65 173.876 230.05 172.697C229.45 171.517 229.15 170.151 229.15 168.597C229.15 167.029 229.45 165.655 230.05 164.476C230.65 163.297 231.482 162.377 232.545 161.715C233.615 161.054 234.852 160.724 236.256 160.724C237.368 160.724 238.373 160.942 239.273 161.378C240.179 161.814 240.929 162.431 241.522 163.229C242.115 164.019 242.5 164.957 242.677 166.04H240.367C240.142 165.004 239.661 164.207 238.925 163.648C238.196 163.082 237.313 162.799 236.277 162.799C235.275 162.799 234.413 163.041 233.69 163.525C232.968 164.009 232.409 164.687 232.013 165.56C231.625 166.432 231.431 167.445 231.431 168.597C231.431 169.749 231.625 170.757 232.013 171.623C232.402 172.489 232.957 173.164 233.68 173.647C234.409 174.131 235.275 174.373 236.277 174.373C237.306 174.373 238.186 174.094 238.915 173.535C239.651 172.976 240.138 172.182 240.377 171.153H242.677C242.5 172.23 242.115 173.167 241.522 173.964C240.929 174.755 240.179 175.369 239.273 175.805C238.373 176.234 237.368 176.449 236.256 176.449ZM249.334 176.449C248.304 176.449 247.401 176.21 246.624 175.733C245.847 175.256 245.24 174.595 244.804 173.75C244.375 172.905 244.16 171.93 244.16 170.826C244.16 169.708 244.375 168.726 244.804 167.881C245.24 167.029 245.847 166.364 246.624 165.887C247.401 165.403 248.304 165.161 249.334 165.161C250.363 165.161 251.263 165.403 252.033 165.887C252.81 166.364 253.413 167.029 253.843 167.881C254.279 168.726 254.497 169.708 254.497 170.826C254.497 171.93 254.279 172.905 253.843 173.75C253.413 174.595 252.81 175.256 252.033 175.733C251.263 176.21 250.363 176.449 249.334 176.449ZM249.334 174.588C250.261 174.588 250.99 174.247 251.522 173.566C252.053 172.884 252.319 171.971 252.319 170.826C252.319 169.667 252.05 168.743 251.511 168.055C250.98 167.366 250.254 167.022 249.334 167.022C248.413 167.022 247.684 167.366 247.146 168.055C246.614 168.736 246.348 169.66 246.348 170.826C246.348 171.977 246.614 172.894 247.146 173.576C247.677 174.251 248.407 174.588 249.334 174.588ZM256.409 176.204V165.407H258.505V167.216C258.839 166.548 259.292 166.044 259.865 165.703C260.437 165.362 261.058 165.192 261.726 165.192C262.462 165.192 263.106 165.379 263.658 165.754C264.217 166.129 264.609 166.606 264.834 167.186C265.127 166.599 265.57 166.122 266.163 165.754C266.763 165.379 267.462 165.192 268.259 165.192C268.927 165.192 269.534 165.338 270.079 165.631C270.624 165.925 271.057 166.361 271.378 166.94C271.698 167.513 271.858 168.232 271.858 169.098V176.204H269.691V169.282C269.691 168.511 269.476 167.952 269.046 167.605C268.617 167.257 268.109 167.083 267.523 167.083C266.8 167.083 266.231 167.308 265.816 167.758C265.4 168.201 265.192 168.767 265.192 169.455V176.204H263.065V169.138C263.065 168.518 262.864 168.021 262.462 167.646C262.067 167.271 261.562 167.083 260.949 167.083C260.322 167.083 259.766 167.305 259.282 167.748C258.805 168.191 258.566 168.839 258.566 169.691V176.204H256.409ZM274.302 180.477V165.407H276.418V166.961H276.449C276.79 166.368 277.257 165.925 277.85 165.631C278.443 165.338 279.09 165.192 279.792 165.192C280.719 165.192 281.534 165.43 282.236 165.908C282.938 166.378 283.483 167.036 283.872 167.881C284.267 168.719 284.465 169.694 284.465 170.805C284.465 171.916 284.271 172.894 283.882 173.74C283.494 174.578 282.948 175.236 282.246 175.713C281.544 176.183 280.723 176.418 279.782 176.418C279.08 176.418 278.446 176.265 277.88 175.958C277.315 175.651 276.851 175.191 276.49 174.578H276.459V180.477H274.302ZM279.343 174.557C280.215 174.557 280.921 174.237 281.459 173.596C282.004 172.956 282.277 172.025 282.277 170.805C282.277 169.585 282.004 168.655 281.459 168.014C280.921 167.366 280.215 167.042 279.343 167.042C278.422 167.042 277.686 167.387 277.134 168.075C276.589 168.757 276.316 169.667 276.316 170.805C276.316 171.937 276.589 172.847 277.134 173.535C277.686 174.217 278.422 174.557 279.343 174.557ZM288.524 160.969V176.204H286.367V160.969H288.524ZM295.579 176.449C294.509 176.449 293.589 176.207 292.818 175.723C292.055 175.239 291.465 174.575 291.05 173.729C290.641 172.877 290.436 171.909 290.436 170.826C290.436 169.728 290.651 168.753 291.08 167.901C291.51 167.049 292.103 166.381 292.859 165.897C293.616 165.407 294.485 165.161 295.467 165.161C296.489 165.161 297.375 165.4 298.125 165.877C298.882 166.354 299.468 167.019 299.884 167.871C300.299 168.716 300.507 169.694 300.507 170.805V171.388H292.563C292.604 172.363 292.883 173.15 293.401 173.75C293.926 174.35 294.662 174.649 295.61 174.649C296.319 174.649 296.901 174.489 297.358 174.169C297.815 173.849 298.118 173.433 298.268 172.922H300.344C300.214 173.617 299.924 174.23 299.475 174.762C299.032 175.294 298.473 175.709 297.798 176.009C297.13 176.302 296.39 176.449 295.579 176.449ZM292.583 169.752H298.401C298.312 168.893 298.009 168.215 297.491 167.717C296.973 167.213 296.305 166.961 295.487 166.961C294.669 166.961 294.001 167.213 293.483 167.717C292.972 168.215 292.672 168.893 292.583 169.752ZM307.583 165.407V167.186H305.395V173.351C305.395 173.753 305.476 174.033 305.64 174.189C305.804 174.346 306.1 174.425 306.53 174.425H307.583V176.204H306.223C304.226 176.204 303.227 175.345 303.227 173.627V167.186H301.325V165.407H303.227V162.462H305.395V165.407H307.583ZM313.717 176.449C312.647 176.449 311.727 176.207 310.957 175.723C310.193 175.239 309.604 174.575 309.188 173.729C308.779 172.877 308.574 171.909 308.574 170.826C308.574 169.728 308.789 168.753 309.219 167.901C309.648 167.049 310.241 166.381 310.998 165.897C311.754 165.407 312.623 165.161 313.605 165.161C314.627 165.161 315.513 165.4 316.263 165.877C317.02 166.354 317.606 167.019 318.022 167.871C318.438 168.716 318.646 169.694 318.646 170.805V171.388H310.701C310.742 172.363 311.021 173.15 311.54 173.75C312.064 174.35 312.801 174.649 313.748 174.649C314.457 174.649 315.04 174.489 315.496 174.169C315.953 173.849 316.256 173.433 316.406 172.922H318.482C318.352 173.617 318.063 174.23 317.613 174.762C317.17 175.294 316.611 175.709 315.936 176.009C315.268 176.302 314.528 176.449 313.717 176.449ZM310.722 169.752H316.539C316.451 168.893 316.147 168.215 315.629 167.717C315.111 167.213 314.443 166.961 313.625 166.961C312.807 166.961 312.139 167.213 311.621 167.717C311.11 168.215 310.81 168.893 310.722 169.752Z" fill="#292929"/>
<g id="Dot_5">
<rect x="208.683" y="164.023" width="8.41681" height="8.41681" rx="4.20841" fill="#0003DB"/>
</g>
</g>
</g>
<g id="Wrapper_6" filter="url(#filter5_d_225_4540)">
<rect x="75.0908" y="240.849" width="128.075" height="56.1121" rx="11.0444" transform="rotate(-8 75.0908 240.849)" fill="#FAFAFA"/>
<rect x="75.3655" y="241.056" width="127.588" height="55.6257" rx="10.8013" transform="rotate(-8 75.3655 241.056)" stroke="#D1D2FF" stroke-width="0.48635"/>
<g id="Group 1707483577_6">
<path id="Pending" d="M116.924 270.875L114.804 255.789L120.393 255.003C122.006 254.777 123.344 255.019 124.408 255.73C125.472 256.441 126.105 257.518 126.308 258.963C126.443 259.928 126.342 260.796 126.003 261.566C125.663 262.33 125.121 262.96 124.379 263.457C123.635 263.947 122.724 264.268 121.644 264.419L118.373 264.879L119.172 270.559L116.924 270.875ZM118.1 262.935L121.33 262.481C122.302 262.345 123.034 261.99 123.525 261.419C124.021 260.84 124.21 260.125 124.09 259.274C123.971 258.424 123.593 257.796 122.958 257.389C122.329 256.975 121.528 256.837 120.556 256.973L117.326 257.427L118.1 262.935ZM133.583 268.782C132.524 268.93 131.579 268.819 130.749 268.447C129.925 268.074 129.249 267.498 128.719 266.719C128.196 265.932 127.859 265.002 127.708 263.929C127.555 262.842 127.632 261.847 127.939 260.943C128.245 260.04 128.74 259.296 129.422 258.711C130.103 258.12 130.929 257.756 131.901 257.619C132.913 257.477 133.824 257.59 134.633 257.958C135.449 258.325 136.122 258.902 136.652 259.688C137.181 260.467 137.523 261.406 137.678 262.507L137.759 263.084L129.892 264.189C130.068 265.149 130.455 265.89 131.051 266.412C131.654 266.933 132.425 267.127 133.363 266.995C134.065 266.897 134.62 266.657 135.028 266.276C135.435 265.895 135.678 265.441 135.755 264.914L137.811 264.625C137.779 265.332 137.578 265.98 137.206 266.569C136.841 267.157 136.346 267.646 135.719 268.037C135.099 268.421 134.387 268.669 133.583 268.782ZM129.685 262.567L135.446 261.757C135.238 260.919 134.844 260.289 134.261 259.869C133.678 259.441 132.982 259.285 132.172 259.398C131.362 259.512 130.735 259.855 130.292 260.427C129.855 260.99 129.653 261.704 129.685 262.567ZM141.554 261.136L142.419 267.292L140.282 267.592L138.78 256.9L140.876 256.606L141.102 258.216C141.66 256.898 142.651 256.139 144.076 255.939C144.811 255.836 145.492 255.905 146.118 256.148C146.75 256.382 147.279 256.79 147.705 257.37C148.13 257.951 148.409 258.706 148.539 259.638L149.476 266.3L147.339 266.6L146.44 260.201C146.32 259.344 146.023 258.729 145.551 258.354C145.077 257.974 144.473 257.835 143.737 257.938C143.008 258.041 142.425 258.353 141.99 258.876C141.559 259.39 141.414 260.144 141.554 261.136ZM156.026 265.596C155.095 265.727 154.249 265.609 153.488 265.241C152.726 264.866 152.095 264.29 151.593 263.514C151.091 262.731 150.762 261.79 150.608 260.69C150.453 259.589 150.51 258.597 150.778 257.713C151.052 256.821 151.504 256.093 152.133 255.529C152.762 254.959 153.536 254.61 154.454 254.481C155.149 254.383 155.804 254.439 156.418 254.648C157.033 254.858 157.554 255.236 157.982 255.781L158.002 255.778L157.167 249.835L159.303 249.535L161.423 264.621L159.327 264.916L159.098 263.286L159.078 263.288C158.808 263.96 158.403 264.488 157.866 264.873C157.335 265.258 156.721 265.499 156.026 265.596ZM156.203 263.693C157.114 263.564 157.792 263.125 158.237 262.374C158.688 261.615 158.835 260.676 158.677 259.555C158.519 258.428 158.119 257.565 157.477 256.967C156.841 256.361 156.068 256.123 155.157 256.251C154.293 256.372 153.636 256.791 153.186 257.508C152.742 258.218 152.605 259.177 152.774 260.385C152.944 261.593 153.34 262.477 153.963 263.037C154.592 263.595 155.339 263.814 156.203 263.693ZM163.833 264.282L162.33 253.59L164.467 253.29L165.969 263.982L163.833 264.282ZM163.135 251.598C162.757 251.651 162.418 251.572 162.12 251.359C161.827 251.138 161.656 250.846 161.604 250.481C161.552 250.11 161.637 249.782 161.858 249.496C162.085 249.202 162.388 249.029 162.766 248.976C163.144 248.923 163.483 249.006 163.782 249.225C164.08 249.438 164.256 249.73 164.308 250.101C164.359 250.466 164.271 250.795 164.044 251.088C163.816 251.375 163.513 251.545 163.135 251.598ZM169.661 257.186L170.526 263.342L168.389 263.642L166.887 252.95L168.983 252.656L169.209 254.265C169.767 252.948 170.758 252.189 172.183 251.989C172.918 251.886 173.599 251.955 174.225 252.198C174.857 252.432 175.386 252.84 175.812 253.42C176.237 254 176.516 254.756 176.646 255.688L177.583 262.35L175.446 262.65L174.547 256.251C174.427 255.394 174.13 254.778 173.658 254.404C173.184 254.023 172.58 253.885 171.844 253.988C171.115 254.09 170.532 254.403 170.097 254.925C169.666 255.44 169.521 256.194 169.661 257.186ZM185.275 265.729C183.965 265.913 182.855 265.774 181.943 265.31C181.031 264.846 180.431 264.101 180.142 263.074L182.278 262.774C182.486 263.275 182.835 263.625 183.324 263.825C183.814 264.025 184.382 264.079 185.03 263.988C185.894 263.866 186.536 263.539 186.957 263.005C187.378 262.471 187.527 261.772 187.406 260.908L187.178 259.288L187.168 259.289C186.884 259.962 186.479 260.487 185.954 260.864C185.435 261.24 184.825 261.477 184.123 261.575C183.192 261.706 182.346 261.588 181.585 261.22C180.823 260.845 180.192 260.273 179.692 259.503C179.19 258.727 178.863 257.796 178.71 256.709C178.558 255.622 178.615 254.637 178.883 253.752C179.158 252.867 179.611 252.143 180.24 251.579C180.869 251.009 181.643 250.659 182.561 250.53C183.256 250.433 183.915 250.492 184.537 250.707C185.159 250.922 185.694 251.322 186.141 251.906L186.151 251.905L185.922 250.275L188.028 249.979L189.51 260.529C189.662 261.609 189.565 262.511 189.219 263.234C188.874 263.957 188.354 264.522 187.661 264.929C186.968 265.337 186.173 265.603 185.275 265.729ZM184.301 259.682C185.212 259.554 185.891 259.117 186.337 258.373C186.789 257.621 186.936 256.685 186.779 255.565C186.621 254.444 186.222 253.588 185.581 252.997C184.947 252.398 184.174 252.162 183.262 252.29C182.398 252.412 181.741 252.828 181.29 253.538C180.845 254.241 180.707 255.193 180.876 256.394C181.045 257.596 181.44 258.476 182.063 259.036C182.691 259.588 183.437 259.803 184.301 259.682Z" fill="#292929"/>
<g id="Dot_6">
<rect x="94.4043" y="261.74" width="8.41681" height="8.41681" rx="4.20841" transform="rotate(-8 94.4043 261.74)" fill="#0003DB"/>
</g>
</g>
</g>
<g id="Wrapper_7" filter="url(#filter6_d_225_4540)">
<rect x="324.831" y="225.367" width="111.006" height="56.1121" rx="11.0444" transform="rotate(8 324.831 225.367)" fill="#FAFAFA"/>
<rect x="325.038" y="225.641" width="110.52" height="55.6257" rx="10.8013" transform="rotate(8 325.038 225.641)" stroke="#D1D2FF" stroke-width="0.48635"/>
<g id="Group 1707483577_7">
<path id="Active" d="M355.518 265.585L363.116 251.268L365.829 251.649L369.146 267.5L366.706 267.157L365.92 263.051L359.835 262.196L357.907 265.92L355.518 265.585ZM360.782 260.377L365.531 261.045L364.995 258.244C364.88 257.594 364.758 256.899 364.628 256.158C364.498 255.417 364.353 254.536 364.194 253.516C363.752 254.452 363.367 255.258 363.038 255.934C362.709 256.611 362.396 257.245 362.1 257.837L360.782 260.377ZM374.65 268.521C373.631 268.378 372.77 268.016 372.067 267.435C371.371 266.856 370.869 266.117 370.561 265.221C370.254 264.317 370.177 263.322 370.33 262.235C370.485 261.135 370.834 260.193 371.378 259.409C371.928 258.626 372.618 258.052 373.447 257.686C374.277 257.314 375.202 257.2 376.221 257.343C377.072 257.463 377.808 257.738 378.428 258.17C379.057 258.595 379.539 259.131 379.875 259.777C380.211 260.423 380.37 261.13 380.351 261.899L378.225 261.6C378.201 260.984 378.001 260.453 377.623 260.008C377.245 259.562 376.695 259.289 375.973 259.187C375.048 259.057 374.278 259.297 373.662 259.906C373.046 260.514 372.658 261.392 372.497 262.54C372.337 263.674 372.47 264.615 372.895 265.363C373.32 266.111 373.995 266.55 374.92 266.68C375.655 266.783 376.248 266.677 376.699 266.362C377.15 266.04 377.491 265.575 377.721 264.967L379.877 265.27C379.692 266.002 379.348 266.635 378.846 267.17C378.345 267.698 377.733 268.087 377.01 268.337C376.287 268.579 375.501 268.641 374.65 268.521ZM387.841 259.224L387.593 260.986L385.427 260.681L384.569 266.787C384.513 267.185 384.555 267.473 384.695 267.651C384.835 267.829 385.118 267.948 385.543 268.008L386.586 268.154L386.338 269.916L384.992 269.727C383.014 269.449 382.145 268.459 382.384 266.758L383.28 260.38L381.397 260.115L381.645 258.353L383.528 258.618L383.938 255.702L386.084 256.004L385.674 258.92L387.841 259.224ZM388.029 270.154L389.532 259.462L391.668 259.762L390.166 270.454L388.029 270.154ZM390.854 257.768C390.476 257.715 390.173 257.545 389.945 257.259C389.724 256.966 389.64 256.638 389.691 256.273C389.743 255.902 389.915 255.609 390.207 255.396C390.506 255.176 390.845 255.093 391.223 255.146C391.601 255.199 391.903 255.372 392.13 255.666C392.359 255.953 392.447 256.282 392.394 256.653C392.343 257.017 392.168 257.309 391.869 257.529C391.57 257.742 391.232 257.822 390.854 257.768ZM395.694 271.231L393.126 259.967L395.415 260.288L396.717 266.45C396.807 266.889 396.89 267.327 396.966 267.765C397.042 268.202 397.119 268.637 397.196 269.067C397.389 268.674 397.582 268.278 397.776 267.879C397.97 267.479 398.167 267.08 398.367 266.682L401.287 261.114L403.545 261.431L397.962 271.55L395.694 271.231ZM407.628 273.156C406.568 273.007 405.69 272.639 404.995 272.053C404.306 271.467 403.815 270.727 403.521 269.832C403.234 268.932 403.166 267.945 403.317 266.871C403.47 265.785 403.818 264.849 404.362 264.065C404.906 263.281 405.586 262.702 406.403 262.328C407.22 261.948 408.115 261.826 409.087 261.962C410.1 262.105 410.944 262.464 411.62 263.041C412.303 263.619 412.791 264.358 413.084 265.26C413.378 266.155 413.448 267.152 413.293 268.253L413.212 268.83L405.345 267.724C405.25 268.695 405.417 269.514 405.847 270.18C406.283 270.847 406.97 271.246 407.908 271.378C408.61 271.477 409.21 271.399 409.707 271.146C410.203 270.892 410.562 270.522 410.781 270.037L412.837 270.326C412.612 270.996 412.239 271.564 411.72 272.027C411.207 272.492 410.596 272.826 409.886 273.029C409.184 273.227 408.431 273.269 407.628 273.156ZM405.593 266.107L411.354 266.917C411.386 266.054 411.18 265.34 410.736 264.775C410.293 264.204 409.667 263.861 408.857 263.747C408.047 263.633 407.35 263.79 406.767 264.217C406.192 264.639 405.8 265.269 405.593 266.107Z" fill="#292929"/>
<g id="Dot_7">
<rect x="337.604" y="250.767" width="8.41681" height="8.41681" rx="4.20841" transform="rotate(8 337.604 250.767)" fill="#0003DB"/>
</g>
</g>
</g>
</g>
</g>
</g>
</g>
</g>
</g>
</g>
</g>
</g>
</g>
<defs>
<filter id="filter0_d_225_4540" x="33.9966" y="36.5229" width="177.43" height="82.8565" filterUnits="userSpaceOnUse" color-interpolation-filters="sRGB">
<feFlood flood-opacity="0" result="BackgroundImageFix"/>
<feColorMatrix in="SourceAlpha" type="matrix" values="0 0 0 0 0 0 0 0 0 0 0 0 0 0 0 0 0 0 127 0" result="hardAlpha"/>
<feOffset dy="2.00808"/>
<feGaussianBlur stdDeviation="1.00404"/>
<feComposite in2="hardAlpha" operator="out"/>
<feColorMatrix type="matrix" values="0 0 0 0 0 0 0 0 0 0 0 0 0 0 0 0 0 0 0.07 0"/>
<feBlend mode="normal" in2="BackgroundImageFix" result="effect1_dropShadow_225_4540"/>
<feBlend mode="normal" in="SourceGraphic" in2="effect1_dropShadow_225_4540" result="shape"/>
</filter>
<filter id="filter1_d_225_4540" x="327.514" y="36.5225" width="166.495" height="81.3194" filterUnits="userSpaceOnUse" color-interpolation-filters="sRGB">
<feFlood flood-opacity="0" result="BackgroundImageFix"/>
<feColorMatrix in="SourceAlpha" type="matrix" values="0 0 0 0 0 0 0 0 0 0 0 0 0 0 0 0 0 0 127 0" result="hardAlpha"/>
<feOffset dy="2.00808"/>
<feGaussianBlur stdDeviation="1.00404"/>
<feComposite in2="hardAlpha" operator="out"/>
<feColorMatrix type="matrix" values="0 0 0 0 0 0 0 0 0 0 0 0 0 0 0 0 0 0 0.07 0"/>
<feBlend mode="normal" in2="BackgroundImageFix" result="effect1_dropShadow_225_4540"/>
<feBlend mode="normal" in="SourceGraphic" in2="effect1_dropShadow_225_4540" result="shape"/>
</filter>
<filter id="filter2_d_225_4540" x="38.477" y="140.647" width="120.043" height="60.1285" filterUnits="userSpaceOnUse" color-interpolation-filters="sRGB">
<feFlood flood-opacity="0" result="BackgroundImageFix"/>
<feColorMatrix in="SourceAlpha" type="matrix" values="0 0 0 0 0 0 0 0 0 0 0 0 0 0 0 0 0 0 127 0" result="hardAlpha"/>
<feOffset dy="2.00808"/>
<feGaussianBlur stdDeviation="1.00404"/>
<feComposite in2="hardAlpha" operator="out"/>
<feColorMatrix type="matrix" values="0 0 0 0 0 0 0 0 0 0 0 0 0 0 0 0 0 0 0.07 0"/>
<feBlend mode="normal" in2="BackgroundImageFix" result="effect1_dropShadow_225_4540"/>
<feBlend mode="normal" in="SourceGraphic" in2="effect1_dropShadow_225_4540" result="shape"/>
</filter>
<filter id="filter3_d_225_4540" x="390.567" y="140.647" width="98.9584" height="60.1285" filterUnits="userSpaceOnUse" color-interpolation-filters="sRGB">
<feFlood flood-opacity="0" result="BackgroundImageFix"/>
<feColorMatrix in="SourceAlpha" type="matrix" values="0 0 0 0 0 0 0 0 0 0 0 0 0 0 0 0 0 0 127 0" result="hardAlpha"/>
<feOffset dy="2.00808"/>
<feGaussianBlur stdDeviation="1.00404"/>
<feComposite in2="hardAlpha" operator="out"/>
<feColorMatrix type="matrix" values="0 0 0 0 0 0 0 0 0 0 0 0 0 0 0 0 0 0 0.07 0"/>
<feBlend mode="normal" in2="BackgroundImageFix" result="effect1_dropShadow_225_4540"/>
<feBlend mode="normal" in="SourceGraphic" in2="effect1_dropShadow_225_4540" result="shape"/>
</filter>
<filter id="filter4_d_225_4540" x="190.427" y="140.647" width="147.152" height="60.1285" filterUnits="userSpaceOnUse" color-interpolation-filters="sRGB">
<feFlood flood-opacity="0" result="BackgroundImageFix"/>
<feColorMatrix in="SourceAlpha" type="matrix" values="0 0 0 0 0 0 0 0 0 0 0 0 0 0 0 0 0 0 127 0" result="hardAlpha"/>
<feOffset dy="2.00808"/>
<feGaussianBlur stdDeviation="1.00404"/>
<feComposite in2="hardAlpha" operator="out"/>
<feColorMatrix type="matrix" values="0 0 0 0 0 0 0 0 0 0 0 0 0 0 0 0 0 0 0.07 0"/>
<feBlend mode="normal" in2="BackgroundImageFix" result="effect1_dropShadow_225_4540"/>
<feBlend mode="normal" in="SourceGraphic" in2="effect1_dropShadow_225_4540" result="shape"/>
</filter>
<filter id="filter5_d_225_4540" x="73.0827" y="223.024" width="138.654" height="77.4068" filterUnits="userSpaceOnUse" color-interpolation-filters="sRGB">
<feFlood flood-opacity="0" result="BackgroundImageFix"/>
<feColorMatrix in="SourceAlpha" type="matrix" values="0 0 0 0 0 0 0 0 0 0 0 0 0 0 0 0 0 0 127 0" result="hardAlpha"/>
<feOffset dy="2.00808"/>
<feGaussianBlur stdDeviation="1.00404"/>
<feComposite in2="hardAlpha" operator="out"/>
<feColorMatrix type="matrix" values="0 0 0 0 0 0 0 0 0 0 0 0 0 0 0 0 0 0 0.07 0"/>
<feBlend mode="normal" in2="BackgroundImageFix" result="effect1_dropShadow_225_4540"/>
<feBlend mode="normal" in="SourceGraphic" in2="effect1_dropShadow_225_4540" result="shape"/>
</filter>
<filter id="filter6_d_225_4540" x="315.013" y="225.367" width="121.751" height="75.0313" filterUnits="userSpaceOnUse" color-interpolation-filters="sRGB">
<feFlood flood-opacity="0" result="BackgroundImageFix"/>
<feColorMatrix in="SourceAlpha" type="matrix" values="0 0 0 0 0 0 0 0 0 0 0 0 0 0 0 0 0 0 127 0" result="hardAlpha"/>
<feOffset dy="2.00808"/>
<feGaussianBlur stdDeviation="1.00404"/>
<feComposite in2="hardAlpha" operator="out"/>
<feColorMatrix type="matrix" values="0 0 0 0 0 0 0 0 0 0 0 0 0 0 0 0 0 0 0.07 0"/>
<feBlend mode="normal" in2="BackgroundImageFix" result="effect1_dropShadow_225_4540"/>
<feBlend mode="normal" in="SourceGraphic" in2="effect1_dropShadow_225_4540" result="shape"/>
</filter>
<radialGradient id="paint0_radial_225_4540" cx="0" cy="0" r="1" gradientUnits="userSpaceOnUse" gradientTransform="translate(264 187.619) rotate(90) scale(264)">
<stop stop-color="white" stop-opacity="0"/>
<stop offset="1" stop-color="white"/>
</radialGradient>
<linearGradient id="paint1_linear_225_4540" x1="146.742" y1="168.704" x2="176.317" y2="168.704" gradientUnits="userSpaceOnUse">
<stop offset="0.418243" stop-color="#DFDFDF" stop-opacity="0"/>
<stop offset="1" stop-color="#4D47FF"/>
</linearGradient>
<linearGradient id="paint2_linear_225_4540" x1="389.543" y1="168.704" x2="359.968" y2="168.704" gradientUnits="userSpaceOnUse">
<stop offset="0.418243" stop-color="#DFDFDF" stop-opacity="0"/>
<stop offset="1" stop-color="#6047FF"/>
</linearGradient>
<linearGradient id="paint3_linear_225_4540" x1="330.792" y1="108.477" x2="308.975" y2="128.444" gradientUnits="userSpaceOnUse">
<stop offset="0.418243" stop-color="#DFDFDF" stop-opacity="0"/>
<stop offset="1" stop-color="#6047FF"/>
</linearGradient>
<linearGradient id="paint4_linear_225_4540" x1="198.981" y1="229.347" x2="220.837" y2="209.421" gradientUnits="userSpaceOnUse">
<stop offset="0.418243" stop-color="#DFDFDF" stop-opacity="0"/>
<stop offset="1" stop-color="#6047FF"/>
</linearGradient>
<linearGradient id="paint5_linear_225_4540" x1="198.071" y1="107.656" x2="219.318" y2="128.229" gradientUnits="userSpaceOnUse">
<stop offset="0.418243" stop-color="#DFDFDF" stop-opacity="0"/>
<stop offset="1" stop-color="#5947FF"/>
</linearGradient>
<clipPath id="clip0_225_4540">
<rect width="528" height="330.778" rx="9.53264" fill="white"/>
</clipPath>
</defs>
</svg>
