<svg preserveAspectRatio="none" width="100%" height="100%" overflow="visible" style="display: block;" viewBox="0 0 44 65" fill="none" xmlns="http://www.w3.org/2000/svg">
<g id="svg1123424374_2721">
<path id="Vector" d="M10 32.5V17.8757C10 11.0412 15.5966 5.5 22.5004 5.5C29.4034 5.5 35 11.0412 35 17.8757V32.5" stroke="var(--stroke-0, #232323)" stroke-width="4.627" stroke-miterlimit="10"/>
<path id="Vector_2" d="M22 61.5C32.4932 61.5 41 52.9932 41 42.5C41 32.0068 32.4932 23.5 22 23.5C11.5068 23.5 3 32.0068 3 42.5C3 52.9932 11.5068 61.5 22 61.5Z" fill="var(--fill-0, #232323)"/>
<path id="Vector_3" d="M30.2253 47.0436L22.2466 40.0511V34.806L16.3839 34.5C16.339 34.6009 16.048 34.8928 16.0938 35.0558C16.1472 35.2509 16.4221 35.1881 16.501 35.3138C16.5944 35.461 16.434 36.0614 16.3865 36.2343C16.2949 36.5626 16.0861 36.8298 16.0259 37.1564C15.9241 37.7072 16.1294 37.6634 16.518 38.0083C17.1738 38.588 16.6487 39.1901 16.8141 39.8716C16.9482 40.4273 17.5336 40.7152 17.7491 41.2693C17.9145 41.6977 18.1428 41.8068 18.4957 42.1203C18.4872 41.9301 18.309 41.3702 18.645 41.419C18.9776 41.4686 18.8487 41.9359 18.9131 42.131C18.9666 42.294 19.3467 42.619 19.0319 42.7695C18.9267 42.8191 18.6281 42.6223 18.5076 42.5685C18.5924 42.8208 18.539 43.0813 18.673 43.3211C18.8325 43.6081 19.0056 43.4973 19.2186 43.6536C19.4366 43.8141 19.4137 43.9977 19.3161 44.2408C19.2152 44.4939 19.11 44.4542 19.2712 44.7593C19.3874 44.9802 19.5851 45.2589 19.7556 45.4268C19.8549 45.5252 19.9618 45.5467 20.0611 45.6716C20.1434 45.7758 20.112 45.9114 20.2095 46.0049C20.3767 46.1653 20.6609 46.167 20.7941 46.377C20.9417 46.6111 20.7738 46.7881 21.2082 46.7657C21.2302 47.2347 21.3235 47.6581 21.3184 48.1262C21.5603 48.2172 21.9522 48.1088 22.2068 48.06C22.4587 48.3842 22.7845 48.1593 23.0739 48.3346C23.1994 48.4115 23.1731 48.6034 23.2495 48.6704C23.4064 48.8077 23.5227 48.7217 23.7161 48.7696C23.8604 48.8044 23.9724 48.9053 24.1106 48.9425C24.2396 48.9764 24.4543 48.8962 24.5501 49.0053C24.6655 49.136 24.4721 49.375 24.646 49.4809C24.7902 49.5694 24.999 49.3593 25.1398 49.3899C25.3044 49.4263 25.7753 49.8349 25.8907 49.9705C26.0222 50.1243 26.1545 50.4121 26.23 50.6098C26.3463 50.9191 26.3302 51.0713 26.5703 51.2979C26.723 51.4426 26.5787 51.4525 26.8282 51.4955C26.9919 51.5237 27.2083 51.4104 27.3729 51.3938C27.7173 51.3574 28.0644 51.4203 28.4029 51.3582C28.7185 51.3012 29.0188 51.2069 29.3429 51.1631C29.6229 51.125 30.115 51.154 30.3645 51.0274C30.6326 50.8902 30.6572 50.5825 30.2686 50.6387C30.2381 50.4419 30.3763 50.1698 30.2219 50.0333C30.4366 49.7538 30.5146 49.5561 30.5486 49.2146C30.563 49.0649 30.5698 48.8978 30.6478 48.7721C30.7242 48.6481 30.9389 48.5736 30.9796 48.4661C31.0441 48.3007 30.9423 48.2263 30.8625 48.1336C30.8116 48.0741 30.6691 48.1022 30.6275 48.0501C30.5511 47.9534 30.6275 47.8533 30.5851 47.7557C30.4637 47.4728 30.3178 47.3629 30.2253 47.0436C30.2279 47.0974 30.2304 47.1503 30.227 47.2032L30.2253 47.0436Z" fill="var(--fill-0, #ECE9E4)"/>
</g>
</svg>
