<svg preserveAspectRatio="none" width="100%" height="100%" overflow="visible" style="display: block;" viewBox="0 0 48 48" fill="none" xmlns="http://www.w3.org/2000/svg">
<g id="Frame">
<path id="Vector" d="M7.56614 5.65196L24 2L40.4338 5.65196C41.349 5.85532 42 6.66694 42 7.60434V27.5778C42 31.59 39.9948 35.3368 36.6564 37.5624L24 46L11.3436 37.5624C8.00522 35.3368 6 31.59 6 27.5778V7.60434C6 6.66694 6.65106 5.85532 7.56614 5.65196ZM24 22C26.7614 22 29 19.7614 29 17C29 14.2386 26.7614 12 24 12C21.2386 12 19 14.2386 19 17C19 19.7614 21.2386 22 24 22ZM15.0549 32H32.945C32.4476 27.5 28.6326 24 24 24C19.3674 24 15.5524 27.5 15.0549 32Z" fill="var(--fill-0, black)"/>
</g>
</svg>
