<svg width="48" height="48" viewBox="0 0 48 48" fill="none" xmlns="http://www.w3.org/2000/svg">
<rect width="48" height="48" fill="#EFEFEF"/>
<g id="LMS Landing Page">
<path d="M-3529.98 -8742.47C-3529.98 -8743.57 -3529.08 -8744.47 -3527.98 -8744.47H6621.02C6622.13 -8744.47 6623.02 -8743.57 6623.02 -8742.47V3653.53C6623.02 3654.64 6622.13 3655.53 6621.02 3655.53H-3527.98C-3529.08 3655.53 -3529.98 3654.64 -3529.98 3653.53V-8742.47Z" fill="#DFDFDF"/>
<path d="M-3527.98 -8744.47V-8743.47H6621.02V-8744.47V-8745.47H-3527.98V-8744.47ZM6623.02 -8742.47H6622.02V3653.53H6623.02H6624.02V-8742.47H6623.02ZM6621.02 3655.53V3654.53H-3527.98V3655.53V3656.53H6621.02V3655.53ZM-3529.98 3653.53H-3528.98V-8742.47H-3529.98H-3530.98V3653.53H-3529.98ZM-3527.98 3655.53V3654.53C-3528.53 3654.53 -3528.98 3654.08 -3528.98 3653.53H-3529.98H-3530.98C-3530.98 3655.19 -3529.64 3656.53 -3527.98 3656.53V3655.53ZM6623.02 3653.53H6622.02C6622.02 3654.09 6621.57 3654.53 6621.02 3654.53V3655.53V3656.53C6622.68 3656.53 6624.02 3655.19 6624.02 3653.53H6623.02ZM6621.02 -8744.47V-8743.47C6621.57 -8743.47 6622.02 -8743.02 6622.02 -8742.47H6623.02H6624.02C6624.02 -8744.12 6622.68 -8745.47 6621.02 -8745.47V-8744.47ZM-3527.98 -8744.47V-8745.47C-3529.64 -8745.47 -3530.98 -8744.12 -3530.98 -8742.47H-3529.98H-3528.98C-3528.98 -8743.02 -3528.53 -8743.47 -3527.98 -8743.47V-8744.47Z" fill="black" fill-opacity="0.1"/>
<g id="Theraptly - 1440w">
<rect width="1440" height="8097.49" transform="translate(-718.979 -7157.47)" fill="#F6F5F3"/>
<g id="Our specific features listed">
<rect width="1440" height="778.351" transform="translate(-718.979 -465.916)" fill="white"/>
<g id="Section">
<rect width="1200" height="461" transform="translate(-598.979 -405.916)" fill="white"/>
<g id="Container">
<g id="Container_2">
<g id="HorizontalBorder">
<g clip-path="url(#clip0_225_4540)">
<mask id="path-3-inside-1_225_4540" fill="white">
<path d="M0 -31.5537H601.021V55.0843H0V-31.5537Z"/>
</mask>
<g id="Button">
<g id="Frame 2147207172">
<g id="Margin">
<g id="Container_3">
<g id="SVG">
<path id="Vector" d="M23.5313 38.6843C15.1594 34.5386 9.8938 26.2068 9.8938 17.1104V9.89404H37.1687V17.1104C37.1687 26.2083 31.9032 34.5386 23.5313 38.6843Z" stroke="black" stroke-width="1.96807" stroke-miterlimit="10"/>
<path id="Vector_2" d="M24.8562 37.9788C24.0349 38.4477 23.0276 38.4477 22.2063 37.9788C14.6077 33.6392 9.8938 25.717 9.8938 17.1104V12.9246C9.8938 11.2508 11.2506 9.89404 12.9243 9.89404H34.1382C35.8119 9.89404 37.1687 11.2508 37.1687 12.9246V17.1104C37.1687 25.7184 32.4549 33.6394 24.8562 37.9788Z" stroke="black" stroke-width="1.96807" stroke-miterlimit="10"/>
<path id="Vector_3" d="M17.895 21.9413L21.9199 25.9662L30.6801 17.2061" stroke="black" stroke-width="1.96807" stroke-linecap="square"/>
<path id="Vector_4" d="M20.2639 24.3086C21.1793 25.2239 22.6633 25.2239 23.5786 24.3086" stroke="black" stroke-width="1.96807" stroke-linecap="square"/>
</g>
</g>
</g>
</g>
</g>
</g>
<path d="M0 -31.5537V-30.4841H601.021V-31.5537V-32.6233H0V-31.5537Z" fill="#D4D4D4" mask="url(#path-3-inside-1_225_4540)"/>
</g>
</g>
</g>
</g>
</g>
</g>
</g>
<defs>
<clipPath id="clip0_225_4540">
<path d="M0 -31.5537H601.021V55.0843H0V-31.5537Z" fill="white"/>
</clipPath>
</defs>
</svg>
