<svg width="48" height="48" viewBox="0 0 48 48" fill="none" xmlns="http://www.w3.org/2000/svg">
<rect width="48" height="48" fill="#EFEFEF"/>
<g id="LMS Landing Page">
<path d="M-3529.98 -8368.1C-3529.98 -8369.21 -3529.08 -8370.1 -3527.98 -8370.1H6621.02C6622.13 -8370.1 6623.02 -8369.21 6623.02 -8368.1V4027.9C6623.02 4029 6622.13 4029.9 6621.02 4029.9H-3527.98C-3529.08 4029.9 -3529.98 4029 -3529.98 4027.9V-8368.1Z" fill="#DFDFDF"/>
<path d="M-3527.98 -8370.1V-8369.1H6621.02V-8370.1V-8371.1H-3527.98V-8370.1ZM6623.02 -8368.1H6622.02V4027.9H6623.02H6624.02V-8368.1H6623.02ZM6621.02 4029.9V4028.9H-3527.98V4029.9V4030.9H6621.02V4029.9ZM-3529.98 4027.9H-3528.98V-8368.1H-3529.98H-3530.98V4027.9H-3529.98ZM-3527.98 4029.9V4028.9C-3528.53 4028.9 -3528.98 4028.45 -3528.98 4027.9H-3529.98H-3530.98C-3530.98 4029.55 -3529.64 4030.9 -3527.98 4030.9V4029.9ZM6623.02 4027.9H6622.02C6622.02 4028.45 6621.57 4028.9 6621.02 4028.9V4029.9V4030.9C6622.68 4030.9 6624.02 4029.55 6624.02 4027.9H6623.02ZM6621.02 -8370.1V-8369.1C6621.57 -8369.1 6622.02 -8368.66 6622.02 -8368.1H6623.02H6624.02C6624.02 -8369.76 6622.68 -8371.1 6621.02 -8371.1V-8370.1ZM-3527.98 -8370.1V-8371.1C-3529.64 -8371.1 -3530.98 -8369.76 -3530.98 -8368.1H-3529.98H-3528.98C-3528.98 -8368.66 -3528.53 -8369.1 -3527.98 -8369.1V-8370.1Z" fill="black" fill-opacity="0.1"/>
<g id="Theraptly - 1440w">
<rect width="1440" height="8097.49" transform="translate(-718.979 -6783.1)" fill="#F6F5F3"/>
<g id="Our specific features listed">
<rect width="1440" height="778.351" transform="translate(-718.979 -91.5532)" fill="white"/>
<g id="Section">
<rect width="1200" height="461" transform="translate(-598.979 -31.5532)" fill="white"/>
<g id="Container">
<g id="Container_2">
<g id="HorizontalBorder">
<g clip-path="url(#clip0_225_4540)">
<mask id="path-3-inside-1_225_4540" fill="white">
<path d="M0 -31.5532H601.021V121.4H0V-31.5532Z"/>
</mask>
<g id="Button">
<g id="Frame 2147207169">
<g id="Margin">
<g id="Container_3">
<g id="SVG">
<path id="Vector" d="M20.8174 19.5889V20.5744L19.9379 20.0338L20.8174 19.5889ZM41.7927 19.5889V18.6034H42.2374L42.5317 18.9367L41.7927 19.5889ZM45.7469 24.0687L46.4858 23.4166V24.721L45.7469 24.0687ZM41.7927 28.5486L42.5317 29.2008L42.2374 29.5342H41.7927V28.5486ZM38.9541 28.5486V29.5342H38.5429L38.2536 29.2418L38.9541 28.5486ZM36.0712 25.6352L35.3706 24.942H36.7717L36.0712 25.6352ZM33.7306 28.0006L34.4311 28.6938H33.03L33.7306 28.0006ZM31.39 25.6352L30.6894 24.942H32.0905L31.39 25.6352ZM29.0494 28.0006L29.75 28.6938H28.3488L29.0494 28.0006ZM26.7088 25.6352L26.0082 24.942H27.4094L26.7088 25.6352ZM23.8259 28.5486L24.5264 29.2418L24.2371 29.5342H23.8259V28.5486ZM20.8203 28.5486L19.941 28.1034L20.8203 27.563V28.5486ZM20.8174 18.6034H41.7927V20.5744H20.8174V18.6034ZM46.4858 24.721L42.5317 29.2008L41.0538 27.8964L45.008 23.4166L46.4858 24.721ZM41.7927 29.5342H38.9541V27.563H41.7927V29.5342ZM38.2536 29.2418L35.3706 26.3284L36.7717 24.942L39.6546 27.8554L38.2536 29.2418ZM36.7717 26.3284L34.4311 28.6938L33.03 27.3073L35.3706 24.942L36.7717 26.3284ZM33.03 28.6938L30.6894 26.3284L32.0905 24.942L34.4311 27.3073L33.03 28.6938ZM32.0905 26.3284L29.75 28.6938L28.3488 27.3073L30.6894 24.942L32.0905 26.3284ZM28.3488 28.6938L26.0082 26.3284L27.4094 24.942L29.75 27.3073L28.3488 28.6938ZM27.4094 26.3284L24.5264 29.2418L23.1253 27.8554L26.0082 24.942L27.4094 26.3284ZM23.8259 29.5342H20.8203V27.563H23.8259V29.5342ZM21.6996 28.9938C19.9254 32.4976 16.3139 34.9099 12.1346 34.9099V32.9389C15.5328 32.9389 18.485 30.9789 19.941 28.1034L21.6996 28.9938ZM12.1346 34.9099C6.19448 34.9099 1.39648 30.0462 1.39648 24.0687H3.36762C3.36762 28.9773 7.3026 32.9389 12.1346 32.9389V34.9099ZM1.39648 24.0687C1.39648 18.0912 6.19448 13.2275 12.1346 13.2275V15.1987C7.3026 15.1987 3.36762 19.1602 3.36762 24.0687H1.39648ZM12.1346 13.2275C16.314 13.2275 19.9241 15.64 21.6968 19.1441L19.9379 20.0338C18.4833 17.1584 15.5327 15.1987 12.1346 15.1987V13.2275ZM6.91105 24.0687C6.91105 25.0186 7.67053 25.7711 8.58527 25.7711V27.7422C6.56241 27.7422 4.93992 26.0876 4.93992 24.0687H6.91105ZM8.58527 25.7711C9.50001 25.7711 10.2595 25.0186 10.2595 24.0687H12.2306C12.2306 26.0876 10.6081 27.7422 8.58527 27.7422V25.7711ZM10.2595 24.0687C10.2595 23.1189 9.50001 22.3665 8.58527 22.3665V20.3953C10.6081 20.3953 12.2306 22.05 12.2306 24.0687H10.2595ZM8.58527 22.3665C7.67053 22.3665 6.91105 23.1189 6.91105 24.0687H4.93992C4.93992 22.05 6.56241 20.3953 8.58527 20.3953V22.3665ZM42.5317 18.9367L44.5087 21.1766L43.0309 22.481L41.0538 20.2412L42.5317 18.9367ZM44.5087 21.1766L46.4858 23.4166L45.008 24.721L43.0309 22.481L44.5087 21.1766Z" fill="black"/>
<path id="Vector_2" d="M38.9573 28.5472L37.2446 26.8165C36.6003 26.1653 35.5483 26.1653 34.904 26.8165C34.2597 27.4676 33.2077 27.4676 32.5634 26.8165C31.919 26.1653 30.8671 26.1653 30.2228 26.8165C29.5784 27.4676 28.5265 27.4676 27.8821 26.8165C27.2378 26.1653 26.186 26.1653 25.5415 26.8165L23.829 28.5472" stroke="black" stroke-width="1.97113" stroke-miterlimit="10"/>
<path id="Vector_3" d="M41.5454 19.708L43.5225 21.948L43.9644 22.4487C44.8415 23.4423 44.8415 24.9335 43.9644 25.927L41.5454 28.6677" stroke="black" stroke-width="1.97113" stroke-miterlimit="10"/>
</g>
</g>
</g>
</g>
</g>
</g>
<path d="M0 -31.5532V-30.4836H601.021V-31.5532V-32.6228H0V-31.5532Z" fill="#D4D4D4" mask="url(#path-3-inside-1_225_4540)"/>
</g>
</g>
</g>
</g>
</g>
</g>
</g>
<defs>
<clipPath id="clip0_225_4540">
<path d="M0 -31.5532H601.021V121.4H0V-31.5532Z" fill="white"/>
</clipPath>
</defs>
</svg>
