<svg width="48" height="48" viewBox="0 0 48 48" fill="none" xmlns="http://www.w3.org/2000/svg">
<rect width="48" height="48" fill="#EFEFEF"/>
<g id="LMS Landing Page">
<path d="M-3529.98 -8639.78C-3529.98 -8640.89 -3529.08 -8641.78 -3527.98 -8641.78H6621.02C6622.13 -8641.78 6623.02 -8640.89 6623.02 -8639.78V3756.22C6623.02 3757.32 6622.13 3758.22 6621.02 3758.22H-3527.98C-3529.08 3758.22 -3529.98 3757.32 -3529.98 3756.22V-8639.78Z" fill="#DFDFDF"/>
<path d="M-3527.98 -8641.78V-8640.78H6621.02V-8641.78V-8642.78H-3527.98V-8641.78ZM6623.02 -8639.78H6622.02V3756.22H6623.02H6624.02V-8639.78H6623.02ZM6621.02 3758.22V3757.22H-3527.98V3758.22V3759.22H6621.02V3758.22ZM-3529.98 3756.22H-3528.98V-8639.78H-3529.98H-3530.98V3756.22H-3529.98ZM-3527.98 3758.22V3757.22C-3528.53 3757.22 -3528.98 3756.77 -3528.98 3756.22H-3529.98H-3530.98C-3530.98 3757.87 -3529.64 3759.22 -3527.98 3759.22V3758.22ZM6623.02 3756.22H6622.02C6622.02 3756.77 6621.57 3757.22 6621.02 3757.22V3758.22V3759.22C6622.68 3759.22 6624.02 3757.87 6624.02 3756.22H6623.02ZM6621.02 -8641.78V-8640.78C6621.57 -8640.78 6622.02 -8640.34 6622.02 -8639.78H6623.02H6624.02C6624.02 -8641.44 6622.68 -8642.78 6621.02 -8642.78V-8641.78ZM-3527.98 -8641.78V-8642.78C-3529.64 -8642.78 -3530.98 -8641.44 -3530.98 -8639.78H-3529.98H-3528.98C-3528.98 -8640.34 -3528.53 -8640.78 -3527.98 -8640.78V-8641.78Z" fill="black" fill-opacity="0.1"/>
<g id="Theraptly - 1440w">
<rect width="1440" height="8097.49" transform="translate(-718.979 -7054.78)" fill="#F6F5F3"/>
<g id="Our specific features listed">
<rect width="1440" height="778.351" transform="translate(-718.979 -363.233)" fill="white"/>
<g id="Section">
<rect width="1200" height="461" transform="translate(-598.979 -303.233)" fill="white"/>
<g id="Container">
<g id="Container_2">
<g id="HorizontalBorder">
<g clip-path="url(#clip0_225_4540)">
<mask id="path-3-inside-1_225_4540" fill="white">
<path d="M0 -31.5532H601.021V55.0848H0V-31.5532Z"/>
</mask>
<g id="Button">
<g id="Frame 2147207171">
<g id="Margin">
<g id="Container_3">
<g id="SVG">
<path id="Vector" d="M19.5025 19.2542V18.2702L18.5184 19.2542H19.5025ZM26.2054 19.2542H27.1894V18.2702H26.2054V19.2542ZM26.2054 36.3665V37.3505H27.1894V36.3665H26.2054ZM19.5025 36.3665H18.5184V37.3505H19.5025V36.3665ZM10.3451 25.5907V24.6067L9.36108 25.5907H10.3451ZM16.0441 25.5907H17.0282V24.6067H16.0441V25.5907ZM16.0441 36.3665V37.3505H17.0282V36.3665H16.0441ZM10.3451 36.3665H9.36108V37.3505H10.3451V36.3665ZM29.9272 10.696V9.71191L28.9431 10.696H29.9272ZM36.2637 10.696H37.2478V9.71191H36.2637V10.696ZM36.2637 36.3665V37.3505H37.2478V36.3665H36.2637ZM29.9272 36.3665H28.9431V37.3505H29.9272V36.3665ZM19.5025 20.2382H26.2054V18.2702H19.5025V20.2382ZM25.2213 19.2542V36.3665H27.1894V19.2542H25.2213ZM26.2054 35.3825H19.5025V37.3505H26.2054V35.3825ZM20.4865 36.3665V19.2542H18.5184V36.3665H20.4865ZM10.3451 26.5748H16.0441V24.6067H10.3451V26.5748ZM15.0601 25.5907V36.3665H17.0282V25.5907H15.0601ZM16.0441 35.3825H10.3451V37.3505H16.0441V35.3825ZM11.3292 36.3665V25.5907H9.36108V36.3665H11.3292ZM29.9272 11.68H36.2637V9.71191H29.9272V11.68ZM35.2797 10.696V36.3665H37.2478V10.696H35.2797ZM36.2637 35.3825H29.9272V37.3505H36.2637V35.3825ZM30.9112 36.3665V10.696H28.9431V36.3665H30.9112Z" fill="black"/>
<path id="Vector_2" d="M8.20996 36.3662H38.5067" stroke="black" stroke-width="1.96807"/>
<path id="Vector_3" d="M29.9489 36.3663H28.2443C27.1182 36.3663 26.2053 35.4534 26.2053 34.3274V34.2271" stroke="black" stroke-width="1.96807"/>
<path id="Vector_4" d="M19.7877 36.3663H18.0831C16.957 36.3663 16.0441 35.4534 16.0441 34.3274V34.2271" stroke="black" stroke-width="1.96807"/>
</g>
</g>
</g>
</g>
</g>
</g>
<path d="M0 -31.5532V-30.4836H601.021V-31.5532V-32.6228H0V-31.5532Z" fill="#D4D4D4" mask="url(#path-3-inside-1_225_4540)"/>
</g>
</g>
</g>
</g>
</g>
</g>
</g>
<defs>
<clipPath id="clip0_225_4540">
<path d="M0 -31.5532H601.021V55.0848H0V-31.5532Z" fill="white"/>
</clipPath>
</defs>
</svg>
