<svg width="48" height="48" viewBox="0 0 48 48" fill="none" xmlns="http://www.w3.org/2000/svg">
<rect width="48" height="48" fill="#EFEFEF"/>
<g id="LMS Landing Page">
<path d="M-3529.98 -8537.1C-3529.98 -8538.21 -3529.08 -8539.1 -3527.98 -8539.1H6621.02C6622.13 -8539.1 6623.02 -8538.21 6623.02 -8537.1V3858.9C6623.02 3860 6622.13 3860.9 6621.02 3860.9H-3527.98C-3529.08 3860.9 -3529.98 3860 -3529.98 3858.9V-8537.1Z" fill="#DFDFDF"/>
<path d="M-3527.98 -8539.1V-8538.1H6621.02V-8539.1V-8540.1H-3527.98V-8539.1ZM6623.02 -8537.1H6622.02V3858.9H6623.02H6624.02V-8537.1H6623.02ZM6621.02 3860.9V3859.9H-3527.98V3860.9V3861.9H6621.02V3860.9ZM-3529.98 3858.9H-3528.98V-8537.1H-3529.98H-3530.98V3858.9H-3529.98ZM-3527.98 3860.9V3859.9C-3528.53 3859.9 -3528.98 3859.45 -3528.98 3858.9H-3529.98H-3530.98C-3530.98 3860.55 -3529.64 3861.9 -3527.98 3861.9V3860.9ZM6623.02 3858.9H6622.02C6622.02 3859.45 6621.57 3859.9 6621.02 3859.9V3860.9V3861.9C6622.68 3861.9 6624.02 3860.55 6624.02 3858.9H6623.02ZM6621.02 -8539.1V-8538.1C6621.57 -8538.1 6622.02 -8537.66 6622.02 -8537.1H6623.02H6624.02C6624.02 -8538.76 6622.68 -8540.1 6621.02 -8540.1V-8539.1ZM-3527.98 -8539.1V-8540.1C-3529.64 -8540.1 -3530.98 -8538.76 -3530.98 -8537.1H-3529.98H-3528.98C-3528.98 -8537.66 -3528.53 -8538.1 -3527.98 -8538.1V-8539.1Z" fill="black" fill-opacity="0.1"/>
<g id="Theraptly - 1440w">
<rect width="1440" height="8097.49" transform="translate(-718.979 -6952.1)" fill="#F6F5F3"/>
<g id="Our specific features listed">
<rect width="1440" height="778.351" transform="translate(-718.979 -260.551)" fill="white"/>
<g id="Section">
<rect width="1200" height="461" transform="translate(-598.979 -200.551)" fill="white"/>
<g id="Container">
<g id="Container_2">
<g id="HorizontalBorder">
<g clip-path="url(#clip0_225_4540)">
<mask id="path-3-inside-1_225_4540" fill="white">
<path d="M0 -31.5537H601.021V55.0843H0V-31.5537Z"/>
</mask>
<g id="Button">
<g id="Frame 2147207170">
<g id="Margin">
<g id="Container_3">
<g id="SVG">
<path id="Vector" d="M22.9965 37.3028C30.3067 37.3028 36.2329 31.3767 36.2329 24.0664C36.2329 16.7562 30.3067 10.8301 22.9965 10.8301C15.6863 10.8301 9.76013 16.7562 9.76013 24.0664C9.76013 31.3767 15.6863 37.3028 22.9965 37.3028Z" stroke="black" stroke-width="1.96807"/>
<path id="Vector_2" fill-rule="evenodd" clip-rule="evenodd" d="M11.3478 30.4586C11.9533 28.668 13.6473 27.3788 15.6425 27.3788H15.852C15.1741 26.1845 14.7868 24.8031 14.7868 23.3323C14.7868 18.7984 18.4622 15.123 22.996 15.123C27.5297 15.123 31.2052 18.7984 31.2052 23.3323C31.2052 24.8031 30.8178 26.1845 30.14 27.3788H30.3495C32.3432 27.3788 34.0363 28.6661 34.6428 30.4549C34.2239 31.2324 33.7298 31.9631 33.1706 32.6374V31.9113C33.1706 30.3533 31.9075 29.0902 30.3495 29.0902H28.4771L27.8395 27.6639C28.8689 26.5137 29.4939 24.997 29.4939 23.3323C29.4939 19.7435 26.5846 16.8344 22.996 16.8344C19.4073 16.8344 16.4981 19.7435 16.4981 23.3323C16.4981 24.997 17.123 26.5137 18.1524 27.6639L17.5148 29.0902H15.6425C14.0844 29.0902 12.8214 30.3533 12.8214 31.9113V32.6415C12.2616 31.9671 11.7672 31.2362 11.3478 30.4586Z" fill="black"/>
<path id="Vector_3" d="M11.348 30.4584L11.0946 30.3729L11.0574 30.483L11.1126 30.5854L11.348 30.4584ZM15.8522 27.3786V27.646H16.3114L16.0847 27.2466L15.8522 27.3786ZM30.1402 27.3786L29.9077 27.2466L29.6809 27.646H30.1402V27.3786ZM34.643 30.4547L34.8785 30.5816L34.9338 30.4791L34.8963 30.3688L34.643 30.4547ZM33.1708 32.6372H32.9034V33.3786L33.3766 32.8079L33.1708 32.6372ZM28.4773 29.09L28.2332 29.1992L28.304 29.3574H28.4773V29.09ZM27.8397 27.6637L27.6404 27.4854L27.5248 27.6146L27.5956 27.7728L27.8397 27.6637ZM18.1526 27.6637L18.3967 27.7728L18.4675 27.6146L18.3519 27.4854L18.1526 27.6637ZM17.515 29.09V29.3574H17.6884L17.7591 29.1992L17.515 29.09ZM12.8216 32.6413L12.6158 32.8121L13.089 33.3822V32.6413H12.8216ZM15.6427 27.1112C13.5293 27.1112 11.7357 28.4768 11.0946 30.3729L11.6013 30.5441C12.1712 28.8587 13.7656 27.646 15.6427 27.646V27.1112ZM15.8522 27.1112H15.6427V27.646H15.8522V27.1112ZM14.5196 23.3321C14.5196 24.8504 14.9195 26.2771 15.6196 27.5106L16.0847 27.2466C15.4291 26.0915 15.0544 24.7554 15.0544 23.3321H14.5196ZM22.9962 14.8555C18.3146 14.8555 14.5196 18.6505 14.5196 23.3321H15.0544C15.0544 18.946 18.61 15.3903 22.9962 15.3903V14.8555ZM31.4728 23.3321C31.4728 18.6505 27.6777 14.8555 22.9962 14.8555V15.3903C27.3823 15.3903 30.938 18.946 30.938 23.3321H31.4728ZM30.3727 27.5106C31.0728 26.2771 31.4728 24.8504 31.4728 23.3321H30.938C30.938 24.7554 30.5632 26.0915 29.9077 27.2466L30.3727 27.5106ZM30.3497 27.1112H30.1402V27.646H30.3497V27.1112ZM34.8963 30.3688C34.254 28.4749 32.4615 27.1112 30.3497 27.1112V27.646C32.2254 27.646 33.8189 28.857 34.3899 30.5406L34.8963 30.3688ZM34.4077 30.3278C33.9971 31.0896 33.513 31.8057 32.9649 32.4665L33.3766 32.8079C33.947 32.1202 34.4509 31.3747 34.8785 30.5816L34.4077 30.3278ZM32.9034 31.9111V32.6372H33.4382V31.9111H32.9034ZM30.3497 29.3574C31.76 29.3574 32.9034 30.5008 32.9034 31.9111H33.4382C33.4382 30.2054 32.0554 28.8226 30.3497 28.8226V29.3574ZM28.4773 29.3574H30.3497V28.8226H28.4773V29.3574ZM27.5956 27.7728L28.2332 29.1992L28.7215 28.9809L28.0839 27.5546L27.5956 27.7728ZM29.2267 23.3321C29.2267 24.9285 28.6277 26.3824 27.6404 27.4854L28.039 27.842C29.1106 26.6448 29.7615 25.0651 29.7615 23.3321H29.2267ZM22.9962 17.1016C26.4371 17.1016 29.2267 19.8911 29.2267 23.3321H29.7615C29.7615 19.5957 26.7325 16.5668 22.9962 16.5668V17.1016ZM16.7658 23.3321C16.7658 19.8911 19.5552 17.1016 22.9962 17.1016V16.5668C19.2599 16.5668 16.2309 19.5957 16.2309 23.3321H16.7658ZM18.3519 27.4854C17.3646 26.3824 16.7658 24.9285 16.7658 23.3321H16.2309C16.2309 25.0651 16.8818 26.6448 17.9533 27.842L18.3519 27.4854ZM17.7591 29.1992L18.3967 27.7728L17.9085 27.5546L17.2709 28.9809L17.7591 29.1992ZM15.6427 29.3574H17.515V28.8226H15.6427V29.3574ZM13.089 31.9111C13.089 30.5008 14.2323 29.3574 15.6427 29.3574V28.8226C13.9369 28.8226 12.5542 30.2054 12.5542 31.9111H13.089ZM13.089 32.6413V31.9111H12.5542V32.6413H13.089ZM13.0273 32.4705C12.4788 31.8097 11.9943 31.0935 11.5833 30.3316L11.1126 30.5854C11.5405 31.3787 12.0448 32.1243 12.6158 32.8121L13.0273 32.4705Z" fill="black"/>
</g>
</g>
</g>
</g>
</g>
</g>
<path d="M0 -31.5537V-30.4841H601.021V-31.5537V-32.6233H0V-31.5537Z" fill="#D4D4D4" mask="url(#path-3-inside-1_225_4540)"/>
</g>
</g>
</g>
</g>
</g>
</g>
</g>
<defs>
<clipPath id="clip0_225_4540">
<path d="M0 -31.5537H601.021V55.0843H0V-31.5537Z" fill="white"/>
</clipPath>
</defs>
</svg>
